<?xml version="1.0" encoding="UTF-8"?>
<svg id="Layer_1" data-name="Layer 1" xmlns="http://www.w3.org/2000/svg" viewBox="0 0 1410.89 1034.68">
  <defs>
    <style>
      .cls-1 {
        fill: #efece6;
      }
    </style>
  </defs>
  <path id="Path_443" data-name="Path 443" class="cls-1" d="M1410.84,800.6c-2.37,2.89-5.26,4.59-6.98,7.08-5.29,7.53-10.1,15.38-15.18,23.06-1.27,1.92-2.69,3.74-4.26,5.41-2.84,2.99-6.31,4.11-9.72,1.27-3.04-2.52-2.47-5.76-.42-8.85,5.09-7.68,10.12-15.38,15.18-23.06,2.37-3.57,4.69-7.16,7.13-10.67,3.24-4.66,7.4-6.36,13.54-3.39,.65,3.02,.87,6.08,.72,9.15Z"/>
  <path id="Path_448" data-name="Path 448" class="cls-1" d="M1410.84,541.6c-5.66,1.7-9.55-.37-12.22-5.44-5.04-9.57-10.4-18.97-15.53-28.47-1.12-1.62-1.84-3.47-2.12-5.41,.05-2.04,.8-5.11,2.24-5.83,2.29-1.07,4.96-1.05,7.23,.07,2.52,1.82,4.09,4.99,5.86,7.7,4.44,6.76,8.75,13.61,13.84,20.47,.6,5.61,.85,11.24,.7,16.9Z"/>
  <path id="Path_457" data-name="Path 457" class="cls-1" d="M1410.84,218.27c-2.07,2.22-4.56,3.24-6.13,5.01-4.76,5.44-9.23,11.12-13.71,16.78-2.72,3.44-5.78,5.61-10.15,2.67-3.12-2.14-3.37-6.33-.37-10.45,5.63-7.65,11.34-15.26,17.3-22.66,2.99-3.71,7.11-4.51,12.32-2.44,.65,3.67,.9,7.38,.75,11.1Z"/>
  <path id="Path_474" data-name="Path 474" class="cls-1" d="M1052.01,986.39c1.27-2.97,2.19-5.31,3.67-9.03-4.94-.52-8.73-1.1-12.57-1.3-4.01-.2-8.08-.07-12.09-.07s-7.48-.92-7.83-5.68c-.3-4.04,2.24-6.08,8.23-6.31,5.71-.2,11.44,.12,17.13-.1,3.29-.37,6.53-.95,9.72-1.75-2.89-5.34-5.04-9.32-7.18-13.29-2.97-5.51-5.98-11.02-8.9-16.56-1.94-3.71-.05-6.31,2.92-8.4,3.12-2.22,5.88-.9,7.95,1.55,2.12,2.52,4.01,5.24,5.66,8.05,3.84,6.51,7.53,13.11,12.09,21.09,3.32-5.39,5.98-9.77,8.73-14.14,2.54-4.61,5.46-9,8.75-13.11,2.14-1.87,5.09-2.57,7.85-1.84,1.92,.9,3.47,4.79,3.24,7.21-.3,3.04-2.42,5.98-4.01,8.83-3.67,6.48-7.5,12.87-12.12,20.74,10.27,0,18.57-.17,26.88,.1,3.32,.15,6.58,.77,9.72,1.87,2.82,.65,4.56,3.42,3.91,6.18-.07,.3-.17,.6-.3,.87-1.15,2.22-3.22,3.81-5.68,4.39-6.33,.6-12.74,.27-19.15,.3-3.96,.02-7.95,0-13.91,0,2.19,5.21,3.57,9,5.39,12.59,1.77,3.52,3.96,6.83,6.01,10.22,2.37,3.89,1.25,6.96-2.29,9.32-3.96,2.67-7.48,.72-9.65-2.27-3.64-5.09-6.46-10.75-9.65-16.13-.97-1.65-2.02-3.29-3.94-6.31-3.69,5.71-6.76,10.5-9.8,15.28-2.29,3.62-4.41,7.38-6.91,10.85-2.32,3.22-5.51,4.94-9.57,3.07-3.29-1.5-4.39-6.18-2.02-10.45,2.87-5.16,6.21-10.1,9.72-15.78Z"/>
  <path id="Path_494" data-name="Path 494" class="cls-1" d="M957.09,706.87c-5.36-7.88-10.35-15.18-16.11-23.64-5.26,8.4-9.8,15.61-14.26,22.86-4.09,6.68-7.48,8.78-11.54,6.83-3.99-1.92-4.19-5.88-.2-12.96,2.89-5.16,6.23-10.12,9.25-15.23,1.8-3.04,3.37-6.18,5.76-10.6-9.18,0-16.8,.17-24.41-.1-2.94,.02-5.86-.67-8.48-1.99-1.77-1.35-2.74-3.49-2.57-5.68,.37-1.62,2.94-3.19,4.91-3.94,1.77-.67,3.99-.1,6.01-.27,5.91-.6,11.79-1.32,19.7-2.22-4.59-6.78-8.28-12.07-11.79-17.45-3.52-5.39-3.34-9.13,.27-11.19,3.42-1.94,8.33-.47,11.29,3.74,2.47,3.52,4.56,7.28,6.91,10.87,2.32,3.52,4.76,6.96,8.18,11.94,4.04-6.08,7.23-10.85,10.4-15.66,1.27-2.32,2.67-4.56,4.19-6.73,4.99-6.16,7.18-6.03,13.79,1.07-3.81,7.11-7.8,14.51-12.64,23.51,6.76,.1,11.97,.2,17.18,.25,3.37,.05,6.76-.2,10.07,.15,4.09,.42,7.33,2.72,7.23,6.83-.12,4.06-3.37,6.31-7.48,6.63-3.02,.25-6.06,.1-9.08,.1h-22.09c7.73,12.19,14.49,22.81,21.02,33.11-7.06,8.28-7.26,8.28-15.51-.22Z"/>
  <path id="Path_505" data-name="Path 505" class="cls-1" d="M954.72,61.87c-1.4,2.54-2.37,4.49-3.81,7.43h20c2.37,0,4.71,.02,7.06,.07,3.89,.1,6.51,1.75,6.53,5.83,.02,4.11-2.54,5.76-6.41,6.06-7.58,.55-15.18,1.12-24.46,1.82,2.77,5.83,4.81,10.17,6.93,14.49,2.04,4.14,4.11,8.28,6.38,12.32,2.22,3.94,1.25,7.13-2.39,9.3-3.76,2.24-6.51-.1-8.33-2.99-3.49-5.58-6.53-11.44-9.9-17.1-1.94-3.29-4.19-6.38-6.96-10.6-4.21,6.83-7.58,12.44-11.1,17.93-1.27,2.29-2.99,4.36-5.01,6.06-1.62,1.15-4.66,1.99-6.16,1.25-1.84-1.27-2.94-3.34-2.94-5.53,.55-3.19,1.62-6.26,3.24-9.1,2.49-4.89,5.36-9.57,8.88-15.76-8.8,0-15.76,.02-22.69-.02-2.37-.02-5.09,.55-6.93-.42-1.99-1.05-4.36-3.57-4.36-5.46,.42-2.39,2.02-4.46,4.26-5.51,2.64-1.02,5.96-.37,8.95-.62,7.23-.6,14.46-1.32,23.51-2.14-4.89-9.47-9.05-17.58-13.24-25.66-.62-1.17-1.47-2.19-2.17-3.32-2.22-3.54-2.52-7.08,1.47-9.4,3.86-2.22,7.33-.45,9.47,2.89,3.42,5.26,6.41,10.75,9.55,16.18,1.77,3.04,3.44,6.13,5.96,10.57,4.59-7.7,8.43-14.06,12.24-20.47,1.2-1.99,1.84-4.96,3.57-5.76,2.79-1.42,6.01-1.84,9.05-1.15,2.77,1,3.76,4.41,1.94,7.58-3.91,6.88-7.8,13.79-12.14,21.24Z"/>
  <path id="Path_510" data-name="Path 510" class="cls-1" d="M421.39,654.99c-3.14-5.09-5.98-9.57-8.53-14.19-1.75-3.14-2.09-6.61,1.32-8.78,3.69-2.39,7.33-1.1,9.65,2.24,4.31,6.23,8.23,12.74,12.34,19.12,1.02,1.6,2.14,3.12,3.94,5.73l10.17-16.63c1.2-1.97,1.99-4.84,3.76-5.63,2.57-1.12,5.46-1.27,8.15-.45,2.54,.8,3.94,3.47,3.12,5.93-.17,.5-.4,.97-.72,1.4-1.87,3.12-3.76,6.18-5.51,9.37-1.7,3.09-3.22,6.31-5.58,10.95,7.65,.15,13.86,.3,20.07,.42,3.02,.05,6.06,.05,9.05,.1,4.09,.05,7.55,1.12,7.63,5.88,.07,4.76-3.22,6.01-7.4,6.01-7.06,0-14.11-.05-21.17,.05-2.87,.05-5.73,.4-10.05,.72,4.44,7.21,8.2,13.24,11.92,19.32,1.87,3.09,3.69,6.23,5.49,9.4,2.07,3.67,.37,6.31-2.59,8.45-3.64,2.64-6.58,.82-8.58-2.07-4.46-6.53-8.5-13.34-12.79-20.02-1.2-1.92-2.57-3.71-4.86-6.98-3.49,5.41-6.33,9.97-9.3,14.44-2.74,4.49-5.78,8.8-9.1,12.92-1.42,1.62-5.76,3.07-6.68,2.27-2.04-1.94-3.19-4.59-3.19-7.36,.12-2.72,2.04-5.46,3.52-7.98,4.29-7.31,8.78-14.51,14.09-23.26-9.05,0-16.63,.07-24.21-.02-7.16-.1-11.59-2.77-11.62-6.78-.02-4.04,4.54-6.78,11.54-6.86,6.26-.05,12.54-.02,20-.02-1.47-3.22-2.44-5.19-3.86-7.7Z"/>
  <path id="Path_511" data-name="Path 511" class="cls-1" d="M260.77,352.51c1.07,1.7,1.82,2.77,3.42,5.11,3.02-4.09,5.66-7.6,8.18-11.19,2.87-4.04,5.36-8.38,8.5-12.19,5.06-6.18,7.21-5.93,13.79,1.55-5.81,9.45-11.82,19.22-18.4,29.92,2.19,.7,4.44,1.17,6.73,1.47,7.08,.15,14.14-.05,21.19,.05,4.16,.05,7.4,1.99,8.08,6.06,.75,4.76-3.49,6.18-6.98,6.91-3.99,.57-8,.8-12.04,.67-3.69,.1-7.33,.02-12.82,.02,2.92,5.04,5.14,8.93,7.38,12.77,1.75,2.39,3.22,4.96,4.41,7.65,1.02,3.22,.87,6.83-2.97,8.5-3.57,1.57-6.48,.35-8.58-2.92-3.02-4.74-6.16-9.4-9.25-14.09-1.97-2.97-3.96-5.96-6.73-10.12-3.96,6.01-7.28,11.22-10.8,16.28-2.52,3.86-5.36,7.53-8.48,10.95-1.75,1.27-4.01,1.6-6.06,.9-1.87-1.15-3.04-3.12-3.17-5.29,.57-3.19,1.75-6.26,3.44-9.03,2.34-4.19,5.14-8.15,8.65-13.64-8.13,0-14.41-.02-20.69,0-4.14,.02-7.31-1.15-7.73-5.83-.37-4.31,1.77-6.96,7.28-7.55,4.69-.32,9.42-.42,14.11-.27,3.94-.05,7.83,0,13.81,0-5.21-8.3-9.3-14.88-13.44-21.42-1.77-2.79-3.67-5.51-5.49-8.25-2.14-3.24-2.02-6.61,1.12-8.75,2.82-2.29,7.01-1.89,9.32,.85,.17,.2,.35,.42,.5,.67,4.66,6.33,8.9,13.04,13.69,20.22Z"/>
  <path id="Path_519" data-name="Path 519" class="cls-1" d="M1363.97,960.26c2.62,.05,4.29,0,5.98,.1,3.86,.27,6.43,1.99,6.38,6.08-.05,4.11-2.77,5.71-6.63,5.78-5.71,.1-11.42,.05-17.15,.12-2.32,.05-4.64,.25-7.23,.4-.9,4.61,2.12,7.63,3.91,10.9,2.22,4.04,4.76,7.93,7.38,11.72,2.42,3.49,1.37,6.16-1.52,8.6-3.32,2.79-6.53,1.8-8.73-1.17-3.91-5.31-7.33-10.95-10.97-16.43-1.4-2.09-2.92-4.11-5.34-7.55-3.29,4.64-5.93,8.23-8.4,11.89-2.19,3.29-3.76,7.16-6.51,9.87-1.72,1.72-5.76,3.12-7.65,2.27-1.92-.87-3.02-4.56-3.42-7.18-.25-1.6,1.35-3.57,2.32-5.24,3.34-5.61,6.78-11.19,11.12-18.33-9.08,0-16.93-.02-24.78,0-3.44,0-6.91,.05-8.65-3.59-2.44-4.99,.7-9.8,6.88-10.02,8.38-.3,16.75-.07,26.9-.07-3.71-6.36-6.76-11.59-9.87-16.8-2.77-4.11-5.31-8.35-7.58-12.74-1.52-3.39-1.42-7.43,2.87-9.32,3.54-1.57,6.51-.2,8.5,3.12,1.02,1.7,2.34,3.22,3.37,4.91,2.92,4.79,5.66,9.7,8.65,14.44,1.7,2.74,3.69,5.29,6.41,9.13,3.74-5.76,6.88-10.6,10.05-15.43,1.37-2.24,2.89-4.41,4.56-6.48,5.11-5.91,7.36-5.66,13.41,1.87-5.11,8.73-10.42,17.75-16.03,27.35,7.03,3.54,14.09,1.1,21.77,1.82Z"/>
  <path id="Path_523" data-name="Path 523" class="cls-1" d="M245.29,987.69c2.34-4.04,4.29-7.48,6.98-12.24-3.29-1.2-6.68-2.12-10.15-2.74-5.01-.45-10.1,.07-15.13-.17-5.16-.25-8.98-3.29-8.4-6.56,.8-4.36,4.01-5.51,8.23-5.44,8.4,.15,16.78,.05,27.03,.05-2.82-5.44-4.99-9.97-7.48-14.31-2.62-4.56-5.83-8.85-8.33-13.46-3.09-5.76-2.44-9.52,1.27-11.12,3.69-1.62,7.33,.1,10.55,5.26,4.54,7.28,8.93,14.66,13.39,21.99,.65,1.1,1.52,2.07,3.04,4.11,4.79-7.43,8.98-14.36,13.66-20.92,1.6-2.34,3.96-4.09,6.73-4.91,5.91-1.15,8.95,3.07,6.21,8.38-2.57,4.96-5.86,9.57-8.73,14.39-1.8,3.04-3.39,6.21-5.86,10.75h13.31c4.36,.02,8.78-.25,13.11,.15,4.76,.42,8.08,3.81,7.73,7.53-.4,4.74-4.21,5.58-7.98,5.88-4.01,.32-8.08,.12-12.12,.12-3.62,.02-7.23,0-12.87,0,3.54,5.98,6.16,10.4,8.73,14.79,1.5,2.57,2.99,5.14,4.46,7.73,1.8,3.19,2.52,6.53-1.52,8.4-3.54,1.62-7.43,1.57-9.9-2.04-2.79-4.09-5.14-8.48-7.75-12.69-2.04-3.29-4.26-6.51-7.23-11.05-2.87,4.21-5.01,7.36-7.13,10.57-2.37,3.59-4.51,7.33-7.08,10.77-2.47,3.29-6.03,4.56-9.7,2.14-3.37-2.24-2.89-5.68-1.2-8.85,1.1-2.04,2.49-3.91,4.11-6.51Z"/>
  <path id="Path_529" data-name="Path 529" class="cls-1" d="M423.14,81.59c-7.85-.05-14.91-.05-21.97-.02-4.04,.02-7.5-.77-7.98-5.51-.4-4.04,2.19-6.26,8.1-6.43,7.63-.22,15.26-.05,23.41-.05-2.17-13.96-17.43-21.52-15.23-35.88,8.8-1.99,9.82-1.67,13.69,4.51,4.69,7.5,9.3,15.06,14.71,23.81,3.81-6.38,6.91-11.62,10.07-16.83,1.25-2.32,2.69-4.54,4.31-6.61,2.44-2.84,6.18-3.89,8.85-1.27,1.72,2.22,2.29,5.09,1.55,7.78-2.12,4.81-4.59,9.5-7.36,13.99-1.67,3.07-3.29,6.18-5.58,10.52,9.57,0,17.58-.02,25.56,0,2.34-.05,4.71,0,7.06,.2,3.27,.3,5.68,3.14,5.36,6.36-.27,2.87-2.67,5.11-5.61,5.26-5.36,.27-10.75,.17-16.13,.2-4.34,.02-8.65,0-13.86,0,1.72,6.66,5.39,11.22,8.48,16.06,1.82,2.37,3.34,4.91,4.59,7.58,1.12,3.12,1.35,6.78-2.27,8.78-3.91,2.19-6.98,.77-9.3-2.89-2.99-4.76-6.08-9.42-9.23-14.09-1.6-2.37-3.32-4.66-5.78-8.13-3.62,6.31-6.51,11.42-9.5,16.43-1.87,3.49-4.04,6.81-6.48,9.92-2.04,2.52-5.78,2.92-8.35,.92-.22-.17-.42-.35-.62-.55-1.47-1.97-1.84-4.51-1.05-6.83,3.54-7.43,7.83-14.51,11.67-21.79,.97-1.67,3.66-3.89-1.1-5.44Z"/>
  <path id="Path_533" data-name="Path 533" class="cls-1" d="M1303.71,394.69c2.87-4.44,5.34-8.23,8.98-13.74-6.21-.1-10.72-.2-15.26-.25-2.69-.05-5.39,.05-8.08-.12-3.27-.15-5.81-2.87-5.66-6.06,.12-2.87,2.39-5.21,5.31-5.51,4.69-.35,9.42,0,14.11-.35,4.54-.35,9.05-1.2,15.46-2.07-5.61-8.53-10.47-15.53-14.88-22.79-1.89-3.04-3.22-6.38-3.84-9.9-.02-2.19,1.12-4.26,2.99-5.49,2.14-.57,4.44-.07,6.08,1.37,3.57,4.34,6.88,8.85,9.97,13.51,2.77,3.91,5.49,7.9,9.15,13.21,5.83-8.33,10.52-15.41,15.63-22.14,1.62-2.34,3.99-4.09,6.76-4.94,5.91-1.17,9.1,3.07,6.26,8.3-2.99,5.49-6.78,10.57-10.22,15.81-2.52,3.81-5.04,7.6-8.78,13.24,6.31,0,10.77-.02,15.26,0,6.06-.2,12.12-.07,18.15,.42,1.89,.22,4.39,2.99,4.96,5.01,.77,2.57-.75,5.26-3.37,6.01-.45,.12-.95,.2-1.42,.2-4.01,.42-8.08,.1-12.09,.42-4.59,.37-9.15,1.1-14.01,1.72,1.82,10.05,13.79,15.36,10.37,26.43-5.86,2.99-9.8,.85-12.87-3.89-3.44-5.26-6.76-10.6-10.22-15.81-1.02-1.55-2.42-2.89-4.46-5.31-3.12,4.86-5.71,8.93-8.38,12.94-2.02,3.04-4.09,6.01-6.21,9-4.39,6.23-7.33,7.68-11,5.41-3.42-2.14-3.49-6.18-.17-12.29,.27-.67,.72-1.17,1.47-2.37Z"/>
  <path id="Path_536" data-name="Path 536" class="cls-1" d="M1091.9,333.63c2.97,4.24,1.17,7.55-.67,10.7-3.32,5.68-6.91,11.27-10.3,16.93-1.02,2.02-1.92,4.06-2.69,6.18h15.96c3.69,0,7.4-.1,11.1,.05,6.33,.2,10.5,3.12,10.3,7.03-.17,3.81-4.41,6.53-10.77,6.63-6.36,.1-12.74,.02-20.22,.02,.65,2.19,1.47,4.31,2.47,6.38,3.02,5.11,6.61,9.92,9.2,15.23,.8,2.29,.3,4.84-1.27,6.71-2.29,1.12-4.99,1.12-7.26,0-2.47-1.7-4.54-3.89-6.06-6.43-4.44-6.16-8.63-12.49-13.69-19.87-3.99,6.56-7.4,12.39-11,18.13-1.55,2.49-2.97,5.39-5.29,6.98-2.17,1.2-4.79,1.4-7.13,.52-2.72-1.1-3.99-4.16-2.87-6.81,.1-.25,.22-.5,.37-.72,1.52-2.92,3.14-5.81,4.76-8.7,2.07-3.69,4.19-7.36,7.23-12.72-6.33-.2-11.12-.4-15.93-.5-3.02-.07-6.08,.07-9.08-.15-3.94-.3-6.26-2.42-5.98-6.46,.02-2.99,2.52-5.39,5.56-5.36,.17,0,.32,0,.5,.02,6.38-.15,12.79-.05,19.17-.17,1.94-.05,3.86-.35,7.45-.72-2.97-5.01-5.34-9.13-7.85-13.16-2.17-2.92-4.16-5.96-5.98-9.1-1.45-3.07-1.67-6.43,1.94-8.7,3.62-2.27,6.68-.92,8.83,1.84,3.84,4.96,7.23,10.3,10.82,15.43,.95,1.35,2.02,2.59,3.94,5.01,4.19-6.88,8.05-13.16,11.87-19.5,2.77-4.59,5.78-8.4,12.57-4.74Z"/>
  <path id="Path_540" data-name="Path 540" class="cls-1" d="M1021.87,840.54c-4.44,1.17-7.06-.12-9.05-3.39-7.23-11.77-14.69-23.39-21.89-35.18-1.25-1.92-1.82-4.16-1.62-6.43,1.07-5.46,7.63-7.01,11.49-2.37,4.46,5.71,8.55,11.67,12.24,17.88,3.89,6.08,7.18,12.59,11.37,18.48,3.32,4.61,2.49,7.78-2.54,11.02Z"/>
  <path id="Path_549" data-name="Path 549" class="cls-1" d="M342.58,808.05c2.94-4.46,5.51-8.33,8.23-12.07,.95-1.3,2.27-3.14,3.52-3.22,2.82-.17,6.21-.12,8.33,1.32,1.2,.82,1.25,4.99,.25,6.86-3.07,5.81-6.81,11.29-10.42,16.83-4.34,6.63-8.73,13.26-13.34,19.72-1.97,2.77-4.59,5.06-8.5,2.89s-5.01-5.66-2.37-10.05c4.41-7.36,9.3-14.44,14.31-22.29Z"/>
  <path id="Path_567" data-name="Path 567" class="cls-1" d="M1016.68,495.82c5.68,3.07,5.31,7.5,3.04,11.34-6.88,11.62-14.24,22.96-21.47,34.38-2.07,3.27-5.58,4.59-8.53,2.22-1.87-1.47-2.29-4.94-2.87-7.6-.22-1.02,.8-2.44,1.45-3.54,6.58-10.65,13.29-21.24,19.85-31.89,1.82-2.99,3.69-5.56,8.53-4.91Z"/>
  <path id="Path_582" data-name="Path 582" class="cls-1" d="M1132.84,83.16c-1.62-2.89-3.91-6.11-3.07-7.83,1.67-2.34,4.34-3.81,7.26-3.99,11.77-.37,23.54-.2,35.3,.05,2.37-.02,4.66,.75,6.51,2.14,1.72,1.55,3.49,4.49,3.12,6.43-.82,2.32-2.82,4.06-5.26,4.64-14.36-.07-28.75-.67-43.86-1.45Z"/>
  <path id="Path_587" data-name="Path 587" class="cls-1" d="M596.32,73.86c9.67-.05,18.43-.12,27.18-.15,2.34-.07,4.71,0,7.06,.22,3.54,.42,5.83,2.74,5.04,6.06-.5,2.07-2.94,5.11-4.69,5.24-14.36,1.1-28.75,1.77-43.16,2.07-1.94,.05-4.76-2.39-5.68-4.34-1.42-3.04,.4-5.96,3.62-7.06,3.47-1.02,7.03-1.7,10.65-2.04Z"/>
  <path id="Path_594" data-name="Path 594" class="cls-1" d="M63.41,634.2c-7.28-12.54-14.16-24.46-20.84-36.03,6.06-7.88,9.3-8.4,13.86-1.45,6.86,10.45,12.84,21.44,19.07,32.24,.9,1.37,1.3,3.02,1.12,4.64-.4,2.42-1.57,4.66-3.34,6.41-1.1,.77-4.19-.65-6.08-1.65-1.47-1.15-2.74-2.57-3.79-4.16Z"/>
  <path id="Path_595" data-name="Path 595" class="cls-1" d="M354.12,509.28c3.57,6.38,6.91,12.04,10.02,17.83,1.67,2.82,2.99,5.83,3.94,8.95,.87,3.29,.42,6.78-3.54,8.18-3.69,1.27-6.43-.17-8.3-3.54-2.72-4.86-5.68-9.62-8.33-14.51-3.59-6.66-6.86-13.46-10.47-20.12-2.19-4.04-.95-7.01,2.54-9.25,4.26-2.74,6.96,.12,9.08,3.19,1.89,2.99,3.59,6.08,5.06,9.27Z"/>
  <path id="Path_600" data-name="Path 600" class="cls-1" d="M1183.36,632.18c-6.36-10.52-12.32-20.39-18.35-30.24-2.12-3.44-2.87-6.81,.57-9.72,3.02-2.54,8.15-1.25,10.95,3.22,6.66,10.62,13.16,21.37,19.2,32.31,1.4,2.54,.7,6.21,1,9.47-6.56,2.54-10.6,1.32-13.36-5.04Z"/>
  <path id="Path_602" data-name="Path 602" class="cls-1" d="M106.04,639.51c-3.44-2.67-3.49-5.24-1.82-8.25,6.36-11.57,12.49-23.24,19-34.73,1.8-3.19,4.49-6.08,8.98-3.81,3.86,1.97,4.94,5.39,2.52,10-5.51,10.52-11.07,21.02-17.13,31.24-2.17,3.71-4.79,8.5-11.54,5.56Z"/>
  <path id="Path_603" data-name="Path 603" class="cls-1" d="M618.56,670.4c-8.7,.02-16.43,.05-24.18,.05-3.59,0-6.91-.65-7.7-4.76-.87-4.49,2.02-6.68,5.86-7.85,1.92-.6,3.89-.95,5.91-1,10.77-.12,21.52-.1,32.29-.15,4.01-.02,7.53,.67,8.1,5.41,.27,4.14-2.92,7.7-7.13,7.98h-.07c-4.36,.35-8.73,.45-13.06,.32Z"/>
  <path id="Path_605" data-name="Path 605" class="cls-1" d="M1207.76,631.45c6.03-11.39,11.79-22.14,17.63-32.81,.8-1.45,1.99-2.64,2.84-4.04,2.37-3.86,5.91-4.51,9.4-2.37,3.22,1.97,3.47,5.24,1.57,8.63-6.21,11.24-12.09,22.66-18.6,33.73-1.77,2.19-4.36,3.59-7.21,3.91-4.19,.5-5.51-2.79-5.63-7.06Z"/>
  <path id="Path_614" data-name="Path 614" class="cls-1" d="M1212.38,954.7c2.62,.02,4.29,0,5.98,.07,4.49,.2,6.71,2.52,6.68,6.91,0,4.41-2.37,6.61-6.83,6.71-3.02,.05-6.03,.05-9.05,.05-9.05,0-18.1,.17-27.15-.05-5.63-.12-7.65-2.27-7.6-6.91,.05-4.59,2.04-6.56,7.85-6.68,9.75-.27,19.47-.1,30.12-.1Z"/>
  <path id="Path_617" data-name="Path 617" class="cls-1" d="M100.88,369.26c3.32,.02,6.63,.32,9.9,.87,3.14,.57,5.26,3.49,4.76,6.58-.3,3.96-2.39,6.11-6.33,6.18-8.05,.15-16.11,.1-24.16,.12-4.36,0-8.73,.02-13.09-.02-4.14-.05-7.65-1.75-8-5.88s2.99-6.71,6.88-7.21c4.99-.47,10.02-.65,15.03-.57,4.66-.07,9.35-.05,15.01-.07Z"/>
  <path id="Path_624" data-name="Path 624" class="cls-1" d="M651.39,966.97c-2.32-7.88-1.89-9,3.71-11.07,1.55-.62,3.19-.97,4.84-1.05,11.37-.17,22.76-.37,34.13-.2,5.56,.07,8.55,3.07,7.13,6.93-1,2.27-2.94,3.99-5.36,4.69-6.88,1.17-13.86,1.84-20.84,1.99-7.88,.02-15.78-.4-23.61-1.3Z"/>
  <path id="Path_655" data-name="Path 655" class="cls-1" d="M1272.86,81.41c-13.79,1.55-27.1,2.52-40.39,3.37-1.67,.02-3.34-.25-4.91-.8-3.09-.7-5.11-3.62-4.59-6.68,.3-3.44,2.02-5.81,5.51-5.86,13.09-.2,26.2-.45,39.27-.05,5.73,.15,6.93,2.92,5.11,10.02Z"/>
  <path id="Path_656" data-name="Path 656" class="cls-1" d="M346.47,244.52c-3.34,.07-7.7,.5-8.45-.9-1.4-2.84-1.47-6.13-.17-9.03,6.41-10.37,13.44-20.34,20.49-30.34,2.02-2.84,4.89-4.79,8.58-2.29,3.49,2.37,4.84,5.49,2.29,9.27-7.35,10.97-14.76,21.89-22.74,33.28Z"/>
  <path id="Path_661" data-name="Path 661" class="cls-1" d="M992.15,214.75c-1.87-4.91,1.1-7.23,4.26-7.93,2.59-.12,5.09,.95,6.76,2.87,7.73,9.87,15.23,19.95,22.46,30.22,2.29,3.02,1.67,7.28-1.42,9.52-.35,.25-.7,.47-1.1,.65-3.86,1.99-6.41-.35-8.4-3.14-7.48-10.5-14.86-21.04-22.56-32.19Z"/>
  <path id="Path_667" data-name="Path 667" class="cls-1" d="M592.88,917.36c1.12,1.72,2.07,2.72,2.64,3.89,1.87,3.79,2.77,8.03-1.5,10.45-4.34,2.44-7.5-.52-9.92-4.01-6.36-9.23-12.87-18.35-19.02-27.7-3.34-5.04-2.77-8.98,1.35-10.97,4.56-2.19,7.58,.67,9.95,4.04,5.46,7.85,10.77,15.78,16.51,24.31Z"/>
  <path id="Path_687" data-name="Path 687" class="cls-1" d="M649.87,419.15c3.49,5.24,6.76,9.8,9.72,14.51,1.32,1.84,2.09,3.99,2.27,6.23-.05,2.19-1.07,4.24-2.79,5.63-1.57,.85-4.46,.17-6.36-.7-1.67-1.05-3.07-2.47-4.01-4.19-6.03-8.63-12.07-17.23-17.88-26-2.12-3.19-4.96-6.91-.37-10.35,3.44-2.57,8.35-.92,11.74,3.71,2.49,3.44,4.89,7.01,7.68,11.14Z"/>
  <path id="Path_689" data-name="Path 689" class="cls-1" d="M1182.53,19.88c2.92,4.06,5.71,7.38,7.98,11,1.25,1.89,1.92,4.09,2.02,6.36,.02,5.39-5.26,8.38-8.8,4.51-10.02-10.87-19.7-22.17-25.33-36.05-.45-1.07,.2-2.54,.37-4.04,5.49-3.22,9.52-1.52,12.89,3.14,3.52,4.84,7.03,9.65,10.87,15.08Z"/>
  <path id="Path_693" data-name="Path 693" class="cls-1" d="M64.53,25.74c2.64,3.89,4.91,7.13,7.16,10.4,2.14,3.17,2.29,6.98-.92,8.68-2.37,1.25-7.88,1.12-8.98-.42-7.65-10.75-14.71-21.92-21.34-33.28-.8-1.35,1.62-5.41,3.57-7.11,2.84-2.47,5.93-.57,7.73,1.99,4.29,6.28,8.28,12.77,12.79,19.75Z"/>
  <path id="Path_697" data-name="Path 697" class="cls-1" d="M638.2,899.2c2.09-4.56,3.49-8.63,5.63-12.29,2.62-4.44,6.73-5.88,10.02-3.91,4.04,2.39,3.52,5.91,1.84,9.47-4.66,9.77-9.32,19.57-14.04,29.35-.4,.9-.85,1.8-1.37,2.62-1.89,3.27-6.13,4.41-9.45,2.57-.07-.05-.15-.07-.22-.12-3.24-1.72-4.01-4.91-2.12-8.48,3.22-6.16,6.23-12.34,9.7-19.2Z"/>
  <path id="Path_699" data-name="Path 699" class="cls-1" d="M126.34,28.51c-2.67,4.61-4.94,8.58-7.36,12.49-1.2,1.92-2.22,4.56-4.01,5.41-2.49,1.25-5.39,1.5-8.08,.72-1.5-.67-1.87-4.34-2.19-6.73-.15-1.1,.87-2.42,1.52-3.57,4.86-8.9,9.62-17.9,14.74-26.65,3.52-6.06,7.65-8.08,10.9-6.08,3.29,2.02,3.59,6.31,.7,12.42-1.84,3.81-3.91,7.55-6.21,11.99Z"/>
  <path id="Path_704" data-name="Path 704" class="cls-1" d="M44.96,71.24c4.76,1.5,6.33,4.54,4.69,7.88-1.42,2.07-3.69,3.44-6.21,3.74-9.65,.97-19.35,1.4-29.05,1.99-1.35,.07-2.69,.07-4.04,.02C4.09,84.63-.15,81.71,0,77.82c.12-2.97,4.69-7.11,10.8-6.81,11.05,.6,22.17,.12,34.16,.22Z"/>
  <path id="Path_710" data-name="Path 710" class="cls-1" d="M625.74,1001.28c-1.87-4.46-1.82-8,2.59-9.67,4.11-1.57,7.13,.77,9.27,4.01,6.01,9.03,11.89,18.15,17.78,27.25,.82,1.02,1.27,2.29,1.25,3.59-.75,2.59-1.42,6.06-3.37,7.33-3.09,2.04-6.28,.37-8.38-2.89-6.21-9.67-12.52-19.3-19.15-29.62Z"/>
  <path id="Path_711" data-name="Path 711" class="cls-1" d="M175.28,82.91c-3.34,1.12-6.81,1.8-10.32,2.07-9.4,.2-18.77,.02-28.17-.05-3.79-.02-6.43-1.47-6.98-5.53-.62-4.51,1.94-7.45,5.91-7.58,11.69-.52,23.41-.42,35.08,.32,6.48,.52,7.48,3.79,4.49,10.77Z"/>
  <path id="Path_718" data-name="Path 718" class="cls-1" d="M569.59,369.31c4.89,.45,8.58,2.09,8.38,6.38-.2,4.49-4.09,6.96-8.38,7.08-11.72,.35-23.49,.3-35.23,.25-2.97,.25-5.56-1.92-5.81-4.81-.02-.22-.02-.45,0-.7-.17-4.06,2.27-6.01,6.16-6.26,11.34-.72,22.69-1.32,34.88-1.94Z"/>
  <path id="Path_719" data-name="Path 719" class="cls-1" d="M659.52,380.83c-2.14-.35-3.81-.3-4.64-1.1-1.55-1.52-3.96-3.94-3.57-5.21,.67-2.12,3.17-3.81,5.21-5.29,.92-.65,2.59-.4,3.94-.4,12.42-.02,24.83,.1,37.25-.05,4.19-.05,7.43,.92,8.25,5.31,.62,3.29-3.09,6.46-8.33,6.56-12.42,.25-24.83,.15-38.12,.17Z"/>
  <path id="Path_728" data-name="Path 728" class="cls-1" d="M1225.04,733.25c-3.84-6.93-7.43-13.19-10.87-19.5-1.35-2.24-2.39-4.66-3.04-7.18-.87-3.32,1.15-6.68,4.51-7.55,.05-.02,.12-.02,.17-.05,2.54-.22,5.06,.82,6.66,2.74,6.16,10.45,11.82,21.17,17.6,31.79,1.75,3.22,.22,5.61-2.22,7.73-3.04,2.62-5.86,.87-8.03-1-1.92-1.6-3.02-4.16-4.79-6.98Z"/>
  <path id="Path_733" data-name="Path 733" class="cls-1" d="M1180.19,704.23c2.32-2.82,3.84-5.66,6.23-7.08,2.22-1.07,4.79-1.15,7.08-.2,2.67,1.25,3.79,4.34,2.52,6.96-.1,.22-.22,.42-.37,.65-.25,.6-.57,1.2-.9,1.77-6.33,9.2-12.59,18.45-19.05,27.55-1.3,1.42-2.74,2.69-4.34,3.76-9.27-3.67-10-5.29-5.36-12.37,4.49-6.88,9.15-13.66,14.19-21.04Z"/>
  <path id="Path_734" data-name="Path 734" class="cls-1" d="M177.47,668.4c-3.27,1.99-6.08,4.31-9.03,4.46-8.98,.47-18,.2-27.03,.05-1.99,.15-3.96-.32-5.66-1.32-2.04-1.77-4.81-4.59-4.51-6.61,.95-2.64,3.22-4.64,6.01-5.24,11.32-.52,22.69-.55,34.01-.07,4.29,.15,7.21,3.14,6.21,8.73Z"/>
  <path id="Path_743" data-name="Path 743" class="cls-1" d="M578.17,412.07c2.92-3.67,4.94-7.33,8.03-9.6,1.87-1.35,6.33-1.6,7.93-.32,1.77,2.14,2.27,5.06,1.3,7.65-5.91,9.9-12.39,19.45-18.92,28.95-2.59,3.76-6.53,4.06-10.62,2.59-2.87-4.11-1.45-7.8,.65-11.24,3.62-5.86,7.45-11.62,11.64-18.03Z"/>
  <path id="Path_746" data-name="Path 746" class="cls-1" d="M136.71,147.69c-4.44,6.83-7.06,7.58-11.44,3.14-2.59-2.97-4.84-6.21-6.73-9.62-4.01-6.38-8-12.79-11.87-19.27-1.94-3.27-3.34-6.76,1.2-9.25,3.74-1.84,8.3-.52,10.42,2.99,4.59,7.21,8.98,14.51,13.34,21.84,1.92,3.29,3.62,6.68,5.09,10.17Z"/>
  <path id="Path_750" data-name="Path 750" class="cls-1" d="M566.25,1028.26c-.15-3.04-.62-5.93,.57-7.85,5.66-9.25,11.69-18.25,17.8-27.23,2.12-3.09,4.91-5.71,9.08-2.84,3.59,2.47,4.26,6.01,1.52,10.35-5.58,8.9-11.29,17.75-17.25,26.4-3.59,5.21-4.89,5.21-11.72,1.17Z"/>
  <path id="Path_751" data-name="Path 751" class="cls-1" d="M107.74,702.89c7.21-3.52,9.15-3.52,12.09,1.42,5.73,9.65,10.95,19.6,16.26,29.47,1.62,2.64,.75,6.08-1.94,7.68-.35,.2-.75,.37-1.12,.52-1.87,.82-6.01,.35-6.93-1-8.1-11.57-16.63-23.01-18.35-38.1Z"/>
  <path id="Path_756" data-name="Path 756" class="cls-1" d="M1164.16,148.66c-.57-3.04-1.52-5.98-.5-7.95,5.06-9.97,10.32-19.87,16.16-29.45,3.34-5.51,9.45-5.16,11.69,.32,.62,2.14,.37,4.41-.65,6.38-4.86,9.32-9.9,18.6-15.21,27.7-2.39,4.09-5.98,6.28-11.49,2.99Z"/>
  <path id="Path_761" data-name="Path 761" class="cls-1" d="M67.02,718.94c-3.94,5.36-7.08,10.42-11,14.83-5.61,6.31-6.98,6.01-13.84-2.07,7.28-10.37,14.69-21.14,22.39-31.71,2.37-3.24,6.16-4.54,9.67-1.87,3.59,2.72,2.77,6.23,.4,9.57-2.49,3.54-4.81,7.13-7.63,11.24Z"/>
  <path id="Path_763" data-name="Path 763" class="cls-1" d="M46.68,670.5c-5.68,1.22-11.47,2.04-17.28,2.47-6.66,.5-13.34,.42-20-.27-3.02-.85-5.44-3.02-6.56-5.86-.47-1.47,3.02-4.34,5.01-6.28,1.1-.75,2.44-1.12,3.76-1.02,10.02-.12,20.05-.5,30.04-.1,6.83,.3,8.3,3.69,5.01,11.07Z"/>
  <path id="Path_780" data-name="Path 780" class="cls-1" d="M60.29,106.72c3.76-3.27,6.58-2.32,9.25,.42,2.52,2.59,2.14,5.26,.45,8.08-5.21,8.75-10.35,17.53-15.63,26.23-.77,1.47-1.94,2.69-3.42,3.52-1.87,.82-4.56,1.67-6.08,.95-1.89-1.12-3.09-3.07-3.24-5.21,.6-3.52,1.82-6.88,3.67-9.97,4.64-7.98,9.62-15.68,15.01-24.01Z"/>
  <path id="Path_781" data-name="Path 781" class="cls-1" d="M1200.78,368.81c7.03,0,13.06-.02,19.12,.05,4.29,.05,7.23,1.84,6.96,6.46-.25,4.11-3.19,5.44-6.98,5.46-12.42,.02-24.86-.05-37.27,.07-4.01,.05-6.91-1.6-7.16-5.29-.3-4.39,3.24-6.31,7.23-6.53,5.68-.32,11.39-.17,18.1-.22Z"/>
  <path id="Path_782" data-name="Path 782" class="cls-1" d="M86.47,968.74c-6.36,0-11.74-.15-17.13,.05-4.19,.15-7.83-.95-8.15-5.34-.32-4.29,3.09-6.53,7.16-6.61,12.79-.2,25.53-.15,38.32,.05,3.07-.25,5.76,1.99,6.01,4.99,.05,.47,.02,.97-.07,1.45,.02,2.94-2.42,5.36-5.44,5.36-.2,0-.4,0-.57-.02-6.36,.12-12.74,.05-20.12,.07Z"/>
  <path id="Path_791" data-name="Path 791" class="cls-1" d="M656.95,301.42c-.1,2.82-.62,5.61-1.6,8.28-4.16,8.63-8.48,17.15-13.11,25.53-1.77,3.22-4.51,6.21-8.95,3.81-3.94-2.09-4.46-5.39-2.54-9.18,4.59-9.13,8.7-18.52,13.86-27.33,3.86-6.53,6.73-6.53,12.34-1.12Z"/>
  <path id="Path_795" data-name="Path 795" class="cls-1" d="M1241.07,141.18c2.39,4.64,1.32,7.88-2.82,9.4-3.27,1.35-7.03,.07-8.75-2.94-5.76-8.83-11.74-17.53-17.28-26.45-2.79-4.49-1.94-6.01,5.01-11.57,10.45,8.3,15.56,20.72,23.84,31.56Z"/>
  <path id="Path_801" data-name="Path 801" class="cls-1" d="M540.29,966.12c-3.64-.05-6.33,.05-9-.17-2.94,.05-5.39-2.24-5.44-5.11,0-.25,0-.5,.05-.72-.2-2.99,2.14-5.58,5.21-5.76h.37c1.35-.12,2.69-.17,4.01-.15,9.72,0,19.47-.02,29.2,.05,1.99,.02,4.51-.35,5.86,.65,2.19,1.62,4.84,4.06,5.16,6.41,.45,3.44-2.89,4.76-6.26,4.79-9.42,.02-18.82,0-29.17,.02Z"/>
  <path id="Path_812" data-name="Path 812" class="cls-1" d="M1229.41,659.9c12.02-.65,23.34-.9,34.63-.95,1.97,0,3.91,.5,5.63,1.47,3.86,2.29,3.94,6.18,.2,8.65-1.35,.95-2.92,1.52-4.56,1.65-10.67,.12-21.37,.4-32.01-.12-6.93-.35-8.35-4.16-3.89-10.7Z"/>
  <path id="Path_814" data-name="Path 814" class="cls-1" d="M564.13,301.99c3.74-4.49,7.31-3.29,9.55,.05,6.08,8.93,11.87,18.08,17.13,27.5,.97,1.77-.2,6.06-1.89,7.55-2.79,2.49-6.48,1.37-8.55-1.84-5.51-8.55-10.97-17.15-16.08-25.93-1.05-1.77-.37-4.41-.15-7.33Z"/>
  <path id="Path_817" data-name="Path 817" class="cls-1" d="M1164.08,658.83h10.5c2.69,9.52,1.65,11.57-6.16,11.82-9.72,.3-19.42,.12-29.15,.12-4.26,.02-7.31-1.52-7.11-6.23,.17-4.11,3.07-5.53,6.83-5.61,8.05-.07,16.11-.07,25.08-.1Z"/>
</svg>