<?xml version="1.0" encoding="utf-8"?>
<!-- Generator: Adobe Illustrator 27.0.1, SVG Export Plug-In . SVG Version: 6.00 Build 0)  -->
<svg version="1.1" id="Layer_1" xmlns="http://www.w3.org/2000/svg" xmlns:xlink="http://www.w3.org/1999/xlink" x="0px" y="0px"
	 viewBox="0 0 1500 1068" style="enable-background:new 0 0 1500 1068;" xml:space="preserve">
<style type="text/css">
	.st0{fill:#D9D9D1;}
</style>
<g id="Group_157" transform="translate(0 -203)">
	<g id="broderi" transform="translate(0 203)">
		<g id="Group_99" transform="translate(-240.7 -1.05)">
			<path id="Path_442" class="st0" d="M756.27,2.07c0.82,0.93,1.54,1.95,2.14,3.04c0.64,1.02,1.46,1.95,2.01,3.01
				c0.56,1.04,0.16,2.33-0.9,2.89c-0.1,0.05-0.21,0.1-0.32,0.14c-0.94,0.36-1.99,0.29-2.87-0.21c-1.62-1.45-3.13-3-4.53-4.66
				c-0.9-0.98-1.72-2.04-2.61-3.09c-3.41,3.01-5.72,6.85-9.76,8.59c-3.12-2.46-3.17-2.75-1-5.08c1.29-1.39,2.63-2.75,4.06-4.37
				C747.04,2.07,751.46,2.07,756.27,2.07z"/>
			<path id="Path_443" class="st0" d="M240.72,316.16c0.96-1.19,2.15-1.9,2.86-2.93c2.16-3.11,4.13-6.36,6.2-9.54
				c0.51-0.8,1.1-1.54,1.75-2.24c1.16-1.24,2.58-1.7,3.98-0.53c1.24,1.05,1.01,2.38,0.17,3.66c-2.07,3.18-4.13,6.36-6.21,9.54
				c-0.96,1.47-1.91,2.96-2.91,4.41c-1.32,1.93-3.02,2.63-5.54,1.4C240.76,318.69,240.66,317.42,240.72,316.16z"/>
			<path id="Path_445" class="st0" d="M440.92,2.07c1.11,1.4,1.7,2.9,2.62,4.17c0.96,1.34,1.59,2.57,0.42,4
				c-0.99,1.2-2.63,1.05-4.28-0.46c-1.8-1.66-3.48-3.42-5.21-5.15c-1.19-1.19-2.35-1.18-3.55,0c-1.93,1.91-3.9,3.78-5.82,5.7
				c-1.04,1.04-2.11,1.84-3.52,0.67c-1.43-1.19-1.19-2.67-0.3-3.97c1.05-1.54,2.33-2.92,3.52-4.66
				C430.05,2.07,435.3,2.07,440.92,2.07z"/>
			<path id="Path_446" class="st0" d="M240.72,27.78c1.06,0.39,2.45,0.95,3.12,1.96c3.12,4.76,6.1,9.61,8.98,14.52
				c0.68,1.16,1.03,2.47,1.02,3.81c-0.06,2-2.06,2.84-3.48,1.39c-1.6-1.62-2.76-3.66-4.12-5.51c-1.64-2.25-3.29-4.5-5.23-6.75
				C240.72,34.19,240.72,31.17,240.72,27.78z"/>
			<path id="Path_448" class="st0" d="M240.72,391.35c2.31-0.7,3.91,0.15,5,2.25c2.06,3.96,4.24,7.85,6.35,11.78
				c0.46,0.67,0.75,1.44,0.86,2.24c-0.02,0.84-0.32,2.11-0.92,2.42c-0.94,0.44-2.03,0.43-2.95-0.03c-1.03-0.75-1.67-2.06-2.4-3.18
				c-1.81-2.8-3.58-5.62-5.65-8.46C240.76,396.03,240.66,393.69,240.72,391.35z"/>
			<path id="Path_450" class="st0" d="M240.72,208.34c1.49-0.46,2.53,0.08,3.37,1.41c2.66,4.24,5.5,8.36,8.17,12.6
				c0.55,0.91,0.82,1.96,0.78,3.02c-0.13,2-2.03,2.8-3.5,1.4c-1.65-1.56-2.92-3.52-4.38-5.3c-1.28-1.59-2.66-3.1-4.13-4.52
				C240.76,214.09,240.66,211.22,240.72,208.34z"/>
			<path id="Path_451" class="st0" d="M334.46,2.07c0.35,3.28,3.02,5.17,4.48,7.68c0.94,1.63,2.29,3.03,3.27,4.64
				c1.17,1.94,0.91,3.17-0.62,4.21c-1.72,1.18-2.87,0.15-3.77-1.11c-2.62-3.62-5.21-7.25-7.65-10.99c-0.69-1.06-0.78-2.52-1.13-4.11
				C330.83,2.11,332.65,2.01,334.46,2.07z"/>
			<path id="Path_452" class="st0" d="M240.72,133.97c0.82-1.13,1.86-1.77,2.41-2.7c1.3-2.21,2.31-4.58,3.55-6.83
				c1.11-2.02,2.75-2.91,5.53-1.64c-0.15,1.15-0.02,2.53-0.52,3.63c-1.69,3.67-3.54,7.29-5.48,10.84c-1.01,1.84-2.42,3.36-5.19,2.09
				C240.76,137.57,240.66,135.77,240.72,133.97z"/>
			<path id="Path_454" class="st0" d="M958.53,2.07c0.18,1.04,0.02,2.12-0.45,3.07c-2.4,3.77-4.94,7.46-7.46,11.16
				c-0.38,0.55-0.88,1.26-1.44,1.39c-1.09,0.26-2.64,0.6-3.29,0.06c-0.65-0.53-0.91-2.33-0.49-3.17c1-2.05,2.52-3.84,3.78-5.77
				c1.33-2.04,2.61-4.11,3.92-6.45C954.9,2.11,956.72,2.01,958.53,2.07z"/>
			<path id="Path_455" class="st0" d="M651.45,2.07c2.13,3.19,3.88,6.38,5.65,9.57c0.6,1.07,1.37,2.05,1.85,3.16
				c0.53,1.22,0.42,2.7-0.94,3.13c-0.97,0.31-2.24-0.26-3.36-0.5c-0.22-0.05-0.41-0.36-0.56-0.58c-2.95-4.73-5.89-9.47-8.86-14.49
				C647.3,2.11,649.38,2.01,651.45,2.07z"/>
			<path id="Path_456" class="st0" d="M643.19,2.07c-0.72,1.82-1.62,3.57-2.69,5.21c-1.88,2.99-3.82,5.94-5.74,8.9
				c-0.96,1.47-2.18,2.56-4.06,1.81c-1.4-0.57-1.7-2.64-0.54-4.7c1.26-2.25,2.8-4.34,4.19-6.51c0.88-1.36,1.71-2.75,2.58-4.42
				C639.01,2.11,641.1,2.01,643.19,2.07z"/>
			<path id="Path_458" class="st0" d="M322.12,2.07c1.66,2.78,0.82,5.09-1.02,7.38c-1.94,2.42-3.63,5.04-5.44,7.56
				c-0.3,0.45-0.65,0.87-1.03,1.25c-1.1,1.07-2.57,1.51-3.59,0.35c-0.61-0.96-0.77-2.14-0.44-3.22c0.4-1.22,1.49-2.22,2.24-3.34
				c2.11-3.12,4.2-6.26,6.3-9.68C320.11,2.11,321.11,2,322.12,2.07z"/>
			<path id="Path_460" class="st0" d="M968.45,2.07c2.24,3.1,4.1,6.2,6.01,9.28c0.71,1.15,1.75,2.17,2.18,3.4
				c0.3,0.84,0.13,2.49-0.43,2.84c-0.83,0.5-2.84,0.64-3.21,0.13c-3.42-4.77-7.88-8.97-9.16-15.33
				C965.36,2.11,966.91,2.01,968.45,2.07z"/>
			<path id="Path_461" class="st0" d="M854.52,2.07c-1.81,2.77-3.78,5.44-5.88,8c-1.51,1.88-3.27,2.27-4.53,1.11
				c-1.15-1.06-1.03-3.08,0.31-4.76c1-1.26,2.02-2.52,3.04-4.06C849.79,2.11,852.16,2.01,854.52,2.07z"/>
			<path id="Path_462" class="st0" d="M861.95,2.07c1.28,1.61,2.44,3.31,3.47,5.09c1.22,2.01,1.24,3.46-0.06,4.25
				c-1.79,1.06-3.19,0.18-4.24-1.2c-1.86-2.46-3.58-5.04-5.38-7.85C857.8,2.11,859.87,2.01,861.95,2.07z"/>
			<path id="Path_463" class="st0" d="M545.78,2.07c0.73,0.85,1.36,1.77,1.89,2.74c0.52,0.78,1.25,1.43,1.73,2.23
				c1.14,1.91,0.92,3.15-0.62,4.2c-1.71,1.18-2.81,0.13-3.78-1.08c-2.04-2.52-4.01-5.07-6.15-7.86
				C541.16,2.1,543.47,2.02,545.78,2.07z"/>
			<path id="Path_464" class="st0" d="M1169.86,2.07c-1.57,2.57-3.29,5.04-5.14,7.41c-0.92,1.19-2.08,1.87-3.48,0.7
				c-1.42-1.19-1.17-2.66-0.31-4c0.78-1.24,1.78-2.35,2.69-3.81C1165.68,2.11,1167.77,2.01,1169.86,2.07z"/>
			<path id="Path_465" class="st0" d="M537.53,2.07c-1.81,2.58-3.79,5.04-5.92,7.37c-0.98,1.08-2.19,0.91-3.26-0.07
				c-1.17-1.07-1.46-2.22-0.36-3.54c0.91-1.1,1.73-2.26,2.47-3.47C532.81,2.11,535.17,2.01,537.53,2.07z"/>
			<path id="Path_466" class="st0" d="M1064.2,2.07c-0.11,3.54-3.07,5.28-5.33,7.48c-0.62,0.45-1.43,0.54-2.15,0.26
				c-0.63-0.48-1.35-1.66-1.16-2.25c0.56-1.7,1.57-3.26,2.4-5.17C1060.03,2.11,1062.11,2.01,1064.2,2.07z"/>
			<path id="Path_467" class="st0" d="M1074.11,2.07c0.56,1.52,1.04,3.07,1.43,4.64c0.52,1.55,0.15,2.77-1.26,3.35
				c-1.35,0.56-2.75,0.28-3.37-1.32c-0.78-2-1.49-4.03-2.22-6.36C1070.48,2.11,1072.3,2.01,1074.11,2.07z"/>
			<path id="Path_468" class="st0" d="M1180.59,2.07c1,1.89,1.85,3.85,2.55,5.86c-2.26,2.79-3.34,2.95-5.1,0.38
				c-1.15-1.88-2.12-3.87-2.89-5.93C1176.96,2.11,1178.78,2.01,1180.59,2.07z"/>
			<path id="Path_475" class="st0" d="M424.36,171.98c1.03-0.06,1.69-0.12,3.08-0.25c-1.25-2.14-2.25-3.97-3.37-5.72
				c-1.24-1.95-2.64-3.81-3.87-5.76c-1.48-2.36-1.3-3.88,0.56-4.87c2.05-1.1,3.03,0.43,3.95,1.8c1.89,2.83,3.7,5.71,5.58,8.54
				c0.65,0.98,1.39,1.92,2.32,3.2c2.04-3.13,3.8-5.85,5.57-8.56c0.67-1.02,1.31-2.08,2.07-3.04c0.88-1.11,1.9-2.06,3.49-1.13
				s1.99,2.32,0.92,4.17c-1.23,2.11-2.7,4.09-3.99,6.17c-0.84,1.35-1.56,2.77-2.65,4.72c3.66,0,6.64,0.01,9.62,0
				c1.75-0.01,3.41,0.15,3.55,2.41c0.11,1.74-1.24,3.08-3.52,3.18c-3,0.14-6.01,0.03-9.92,0.03c0.99,1.72,1.57,2.83,2.25,3.88
				c1.76,2.75,3.66,5.42,5.32,8.23c1.29,2.21,1.01,3.83-0.66,4.52c-1.86,0.77-3.1-0.36-4.05-1.81c-2.59-3.98-5.15-7.99-8-12.4
				c-2.33,3.55-4.38,6.71-6.46,9.86c-0.52,0.79-0.94,1.81-1.69,2.25c-0.8,0.47-2.29,0.86-2.83,0.44c-0.86-0.76-1.36-1.84-1.39-2.97
				c0.02-0.95,0.97-1.88,1.53-2.81c1.75-2.86,3.5-5.7,5.67-9.24c-2.6,0.22-4.34,0.4-6.08,0.52c-1.9,0.22-3.82,0.31-5.73,0.28
				c-2.3-0.14-3.26-1.18-3.21-2.91c0.05-1.84,0.87-2.56,3.35-2.65C418.51,171.94,421.26,172,424.36,171.98z"/>
			<path id="Path_480" class="st0" d="M760.42,156c1.98,1.82,1,3.43,0.09,4.95c-1.47,2.45-3.07,4.82-4.59,7.24
				c-0.49,0.77-0.88,1.6-1.61,2.98h9c0.82-0.1,1.64-0.07,2.45,0.09c0.81,0.29,2.05,0.96,2.07,1.51c-0.02,1.02-0.48,1.99-1.27,2.65
				c-0.95,0.5-2.03,0.73-3.11,0.67c-2.85,0.09-5.7,0.03-9.28,0.03c1.63,2.72,2.89,4.91,4.24,7.04c1.16,1.84,2.51,3.57,3.59,5.46
				c0.98,1.73,0.53,3.75-0.81,4.32c-1.68,0.71-2.83,0.03-3.77-1.46c-2.54-4.01-5.18-7.95-8.19-12.55c-2.34,3.56-4.49,6.62-6.42,9.82
				c-1.25,2.07-2.62,3.51-5.71,2.42c-0.94-5.69,4.42-8.8,6.03-13.65c-1.14-1.12-2.72-0.57-4.13-0.63c-2.19-0.09-4.4-0.02-6.59,0
				c-1.68,0.01-3.17-0.62-3.42-2.29c-0.27-1.78,1.14-2.71,2.79-2.88c2.58-0.26,5.18-0.37,7.77-0.5c1.33-0.06,2.66-0.01,4.56-0.01
				c-2.32-3.71-4.31-6.9-6.31-10.09c-0.43-0.69-0.92-1.36-1.29-2.08c-0.69-1.31-0.89-2.72,0.43-3.69c1.46-1.06,2.94-0.57,3.97,0.77
				c1.06,1.4,1.94,2.95,2.91,4.43c1.62,2.46,3.25,4.9,5.24,7.91c1.79-2.67,3.23-4.77,4.61-6.89c0.89-1.36,1.7-2.79,2.62-4.14
				C757.2,156.12,758.41,155.33,760.42,156z"/>
			<path id="Path_488" class="st0" d="M258.53,81.4c3.37-0.04,6.39-0.04,10.16-0.04c-1.17-2.32-2.1-4.18-3.06-6.02
				c-0.95-1.81-1.99-3.56-2.9-5.38c-0.75-1.49-0.84-3.01,0.9-3.85c1.64-0.8,3.01,0.05,3.84,1.43c1.62,2.67,3.09,5.44,4.64,8.17
				c0.52,0.92,1.07,1.83,1.88,3.21c1.52-2.56,2.79-4.74,4.09-6.89c0.63-1.04,1.16-2.34,2.11-2.94c1.01-0.55,2.22-0.64,3.3-0.22
				c0.6,0.29,1.05,2.03,0.74,2.8c-0.95,2.11-2.01,4.16-3.2,6.14c-0.38,0.7-0.71,1.41-1.39,2.73c3.3,0,6.1-0.02,8.89,0.01
				c3.08,0.03,4.74,0.95,4.88,2.64c0.15,1.8-1.76,2.98-4.95,3.01c-3.29,0.03-6.57,0.01-10.52,0.01c1.12,2.23,1.99,4.02,2.92,5.78
				c1.21,2.29,2.54,4.5,3.69,6.82c0.94,1.91,0.52,3.32-1.06,4.13c-1.85,0.94-2.9-0.29-3.67-1.6c-1.93-3.28-3.7-6.64-5.65-10.18
				c-1.84,1.08-2.54,2.68-3.41,4.15c-1.1,1.87-2.14,3.8-3.36,5.6c-0.78,1.16-1.87,2.08-3.47,1.19c-1.6-0.9-2-2.31-0.97-4.17
				c1.38-2.5,2.91-4.91,4.33-7.39c0.52-0.9,0.9-1.87,1.68-3.51h-6.56c-1.1,0-2.2-0.01-3.3,0c-1.59,0.02-3.1-0.13-3.48-2.06
				C255.23,82.92,256.36,81.93,258.53,81.4z"/>
			<path id="Path_495" class="st0" d="M377.95,93.09c-1.28,2.26-2.44,4.27-3.59,6.27c-0.8,1.39-2.15,2.05-3.42,1.18
				c-0.86-0.78-1.34-1.89-1.31-3.04c0.05-1.12,0.85-2.24,1.42-3.32c1.12-2.12,2.29-4.22,3.84-7.07c-2.65-0.05-4.51-0.09-6.37-0.11
				c-1.93-0.02-3.85,0.05-5.77-0.06c-1.68-0.11-3.01-1.06-3.02-2.76c-0.01-1.7,1.36-2.6,3.01-2.79c1.1-0.08,2.2-0.1,3.3-0.05
				c2.57-0.01,5.14,0,8.42,0c-1.64-2.75-2.98-4.9-4.2-7.1c-0.74-1.12-1.24-2.38-1.49-3.7c0.09-1,0.64-1.91,1.49-2.46
				c0.52-0.32,1.94,0.06,2.43,0.6c1.3,1.57,2.5,3.22,3.58,4.94c1.05,1.56,2.02,3.18,3.31,5.22c1.95-3.37,3.67-6.37,5.42-9.34
				c0.89-1.52,1.68-3.39,4.01-2.49c1.98,0.77,2.18,2.32,0.73,5.14c-0.81,1.57-1.81,3.04-2.65,4.59c-0.68,1.27-1.24,2.6-2.18,4.59
				h4.67c1.65,0,3.3-0.07,4.95,0.02c2.29,0.12,3.99,1.43,3.71,2.93c-0.35,1.87-1.74,2.68-3.59,2.7c-2.98,0.02-5.97,0.01-9.84,0.01
				c2.01,3.3,3.63,5.88,5.18,8.51c0.68,1.16,1.54,2.38,1.68,3.63c0.06,1.15-0.42,2.27-1.29,3.04c-1.27,0.85-2.6,0.19-3.44-1.18
				c-1.62-2.67-3.26-5.35-4.93-7.99c-0.56-0.88-1.28-1.67-2.14-2.77C379.12,91.33,378.61,92.08,377.95,93.09z"/>
			<path id="Path_502" class="st0" d="M897.66,87.04c-2.29-0.01-4.22,0-6.14-0.03c-1.36-0.02-2.44-0.55-2.69-2
				c-0.28-1.62,0.6-2.63,2.07-3.04c1.18-0.32,2.39-0.51,3.62-0.54c2.3-0.09,4.61-0.02,7.19-0.02c-0.42-3.39-2.69-5.37-3.89-7.86
				c-0.77-1.59-1.76-3.08-2.36-4.72c-0.55-1.17-0.06-2.57,1.1-3.16c1.46-0.83,2.47-0.13,3.16,0.9c2.18,3.28,4.24,6.64,6.33,9.97
				c0.43,0.68,0.85,1.37,1.61,2.62c1.79-2.97,3.36-5.56,4.92-8.17c0.56-1.08,1.19-2.13,1.88-3.15c0.77-1.22,2.4-1.61,3.65-0.86
				c1.5,0.84,1.46,2.29,0.78,3.57c-1.65,3.12-3.44,6.17-5.18,9.25c-0.27,0.46-0.54,0.92-0.88,1.5c1.29,1.31,2.87,0.73,4.27,0.79
				c2.05,0.09,4.12-0.04,6.18,0.05c2.43,0.1,3.48,0.98,3.33,2.64c-0.18,1.96-1.59,2.31-3.24,2.3c-2.61-0.01-5.21-0.01-7.83,0.02
				c-0.78,0.01-1.57,0.15-2.98,0.29c1.28,2.18,2.36,3.99,3.41,5.81c0.68,1.18,1.38,2.35,1.99,3.56c0.74,1.48,0.87,3-0.84,3.87
				c-1.64,0.84-2.98-0.01-3.86-1.36c-1.33-2.05-2.51-4.2-3.76-6.31c-0.47-0.79-0.96-1.56-1.79-2.9c-1.92,3.28-3.62,6.14-5.26,9.03
				c-1.99,3.49-3.23,3.59-6.19,0.17c2.07-3.75,4.2-7.61,6.75-12.2C900.92,87.04,899.48,87.04,897.66,87.04z"/>
			<path id="Path_503" class="st0" d="M584.65,79.8c-1.17-2.86-2.42-5.42-3.68-7.99c-0.42-0.85-0.81-1.72-1.28-2.56
				c-0.81-1.49-0.32-2.65,0.94-3.53c1.52-1.06,2.65-0.12,3.45,1.02c1.16,1.67,2.12,3.48,3.13,5.25c1.13,1.96,2.22,3.94,3.68,6.56
				c1.76-2.87,3.05-5.03,4.41-7.14c0.6-1.06,1.35-2.03,2.23-2.88c0.63-0.53,2.02-1.03,2.47-0.7c0.82,0.63,1.31,1.59,1.34,2.62
				c-0.25,1.32-0.74,2.58-1.45,3.72c-0.98,1.91-2.07,3.76-3.48,6.31c2.39,0,4.09-0.01,5.8,0c1.93,0.01,3.84-0.02,5.76,0.05
				c1.24-0.1,2.33,0.81,2.44,2.04c0.01,0.06,0.01,0.13,0.01,0.19c0.1,1.67-0.87,2.52-2.47,2.63c-3.93,0.26-7.86,0.47-12.53,0.75
				c1.64,4.25,3.7,7.56,5.39,11.03c0.3,0.6,0.81,1.11,1.1,1.72c0.57,1.25,0.52,2.66-0.78,3.17c-1.12,0.28-2.3,0.14-3.32-0.4
				c-0.74-0.36-1.17-1.45-1.64-2.26c-1.71-2.92-3.37-5.86-5.38-9.35c-1.74,2.87-3.25,5.35-4.74,7.85c-0.42,0.7-0.7,1.48-1.15,2.16
				c-1.02,1.58-2.92,2.26-4.17,1.4c-1.5-1.03-1.53-2.42-0.65-3.92c1.8-3.04,3.59-6.08,5.37-9.14c0.27-0.46,0.42-0.98,0.89-2.08
				c-1.99-0.02-3.66-0.05-5.34-0.06c-1.92-0.02-3.84,0.02-5.76-0.02c-1.61-0.03-2.64-0.77-2.62-2.46s1.1-2.37,2.68-2.45
				c0.69,0.02,1.37,0.01,2.06-0.04C579.82,80.94,582.25,80.45,584.65,79.8z"/>
			<path id="Path_516" class="st0" d="M519.86,173.79c0.96-2.03,2.56-1.78,4.06-1.79c3.4-0.02,6.8-0.01,11.03-0.01
				c-1.68-2.95-2.98-5.25-4.28-7.55c-0.81-1.42-1.69-2.8-2.42-4.26c-1.01-2.02-0.75-3.59,0.56-4.27c1.45-0.75,3.19-0.01,4.35,1.93
				c1.26,2.11,2.44,4.25,3.69,6.37c0.62,1.05,1.32,2.05,2.17,3.37c3.45-3.59,4.51-8.75,8.35-11.72c3.18,1.47,3.65,2.34,2.31,4.93
				c-1.37,2.66-3.02,5.17-4.5,7.77c-0.51,0.9-0.89,1.87-1.66,3.49c2.87,0,5.15-0.02,7.43,0.01c1.23-0.04,2.47,0.04,3.69,0.23
				c1.46,0.3,2.43,1.19,2.29,2.88c0.04,1.35-1.03,2.47-2.39,2.52c-0.09,0-0.18,0-0.26-0.01c-1.51,0.05-3.03,0.01-4.54,0.04
				c-1.32,0.03-2.65,0.12-4.64,0.2c1.07,2.04,1.88,3.56,2.67,5.07c0.91,1.52,1.71,3.09,2.4,4.72c0.46,1.29,0.43,3.02-1.16,3.46
				c-1.16,0.12-2.3-0.32-3.08-1.17c-1.59-2.21-3.06-4.5-4.39-6.86c-0.7-1.13-1.32-2.31-2.29-4.01c-1.56,2.49-2.83,4.51-4.07,6.54
				c-1.17,1.93-1.65,4.48-4.56,4.83c-2.9-1.94-2.98-2-1.66-4.65c1.27-2.53,2.71-4.97,4.35-7.94c-1.06-0.42-2.16-0.73-3.29-0.92
				c-2.33-0.12-4.67-0.03-7.02-0.04C521.03,176.95,519.7,176.3,519.86,173.79z"/>
			<path id="Path_519" class="st0" d="M259.88,266.84c-1.06-0.02-1.75,0-2.44-0.04c-1.58-0.11-2.63-0.83-2.61-2.52
				c0.02-1.7,1.14-2.36,2.71-2.39c2.33-0.04,4.67-0.02,7.01-0.05c0.95-0.02,1.89-0.1,2.96-0.16c0.37-1.91-0.86-3.15-1.6-4.51
				c-0.91-1.67-1.94-3.28-3.01-4.85c-0.99-1.44-0.56-2.55,0.63-3.56c1.35-1.15,2.67-0.74,3.56,0.48c1.6,2.19,2.99,4.52,4.48,6.79
				c0.57,0.87,1.19,1.7,2.18,3.12c1.35-1.92,2.43-3.4,3.44-4.92c0.9-1.36,1.53-2.96,2.66-4.08c0.7-0.71,2.36-1.29,3.12-0.94
				c0.78,0.36,1.23,1.89,1.39,2.97c0.1,0.66-0.55,1.47-0.95,2.16c-1.36,2.32-2.77,4.62-4.54,7.58c3.71,0,6.92,0.01,10.12,0
				c1.4,0,2.82-0.02,3.54,1.48c0.99,2.06-0.28,4.05-2.81,4.14c-3.42,0.12-6.84,0.03-10.99,0.03c1.52,2.63,2.76,4.8,4.03,6.95
				c1.13,1.7,2.17,3.46,3.1,5.27c0.62,1.4,0.58,3.08-1.17,3.86c-1.45,0.65-2.65,0.09-3.48-1.29c-0.41-0.7-0.96-1.32-1.38-2.03
				c-1.19-1.98-2.32-4.01-3.53-5.97c-0.7-1.13-1.51-2.18-2.62-3.77c-1.53,2.38-2.81,4.38-4.11,6.38c-0.56,0.93-1.19,1.83-1.86,2.68
				c-2.09,2.45-3.01,2.34-5.48-0.77c2.09-3.61,4.26-7.34,6.55-11.3C265.9,266.13,263.01,267.14,259.88,266.84z"/>
			<path id="Path_530" class="st0" d="M705.42,66.62c2.51,0.54,2.83,1.87,1.87,3.69c-1.46,2.77-2.95,5.52-4.42,8.28
				c-0.37,0.69-0.7,1.4-1.36,2.71h7.69c1.1,0,2.2,0,3.3,0.02c1.57,0.02,2.73,0.62,2.79,2.32c0.07,1.94-1.21,2.58-2.94,2.61
				c-1.93,0.03-3.84,0-5.77,0.04c-1.32,0.02-2.65,0.11-4.19,0.18c0.96,5.59,7.21,8.71,6.22,14.68c-3.63,0.76-3.99,0.64-5.59-1.95
				c-1.92-3.1-3.81-6.21-5.99-9.78c-1.5,2.52-2.74,4.56-3.95,6.62c-0.49,0.82-0.85,1.71-1.4,2.49c-0.96,1.33-2.27,2.15-3.88,1.32
				c-1.73-0.89-1.5-2.42-0.77-3.88c0.85-1.7,1.77-3.37,2.69-5.04c0.7-1.29,1.45-2.56,2.58-4.56c-2.4-0.03-4.23-0.06-6.05-0.08
				c-1.51-0.02-3.02,0-4.53-0.01c-3.99-0.02-5.13-0.61-5.04-2.58c0.08-1.87,1.17-2.38,5.25-2.39c2.2-0.01,4.39,0.02,6.59-0.01
				c0.8-0.01,1.6-0.12,3.13-0.25c-1.46-2.39-2.69-4.41-3.91-6.43c-0.69-1.16-1.68-2.29-1.89-3.55c-0.13-1.15,0.26-2.3,1.06-3.15
				c1.2-1,2.62-0.46,3.5,0.88c1.35,2.04,2.65,4.12,3.98,6.17c0.58,0.9,1.19,1.77,1.93,2.88c2.44-1.87,3.11-4.56,4.5-6.77
				C701.93,69.3,702.34,66.83,705.42,66.62z"/>
			<path id="Path_533" class="st0" d="M284.5,435.83c-1.17,1.84-2.18,3.4-3.67,5.68c2.54,0.04,4.38,0.08,6.23,0.1
				c1.1,0.02,2.2-0.02,3.3,0.05c1.34,0.06,2.37,1.18,2.31,2.51c-0.05,1.19-0.98,2.16-2.17,2.28c-1.92,0.14-3.85,0-5.77,0.15
				c-1.86,0.14-3.7,0.5-6.32,0.86c2.29,3.52,4.28,6.42,6.08,9.42c0.78,1.25,1.31,2.64,1.57,4.09c0.01,0.91-0.45,1.77-1.22,2.27
				c-0.87,0.24-1.81,0.03-2.49-0.57c-1.46-1.79-2.82-3.66-4.08-5.59c-1.14-1.62-2.24-3.27-3.73-5.46c-2.39,3.45-4.3,6.37-6.39,9.15
				c-0.66,0.97-1.63,1.69-2.76,2.05c-2.41,0.49-3.72-1.27-2.56-3.43c1.22-2.27,2.77-4.37,4.18-6.53c1.03-1.57,2.06-3.15,3.59-5.47
				c-2.58,0-4.4,0.01-6.23,0c-2.47,0.08-4.95,0.03-7.41-0.17c-0.78-0.09-1.79-1.23-2.03-2.08c-0.31-1.06,0.3-2.17,1.38-2.48
				c0.19-0.05,0.38-0.08,0.58-0.08c1.64-0.17,3.3-0.04,4.94-0.18c1.87-0.15,3.73-0.46,5.72-0.71c-0.74-4.15-5.63-6.35-4.24-10.92
				c2.4-1.24,4-0.35,5.26,1.6c1.4,2.18,2.76,4.38,4.18,6.54c0.42,0.64,0.99,1.19,1.82,2.2c1.28-2.01,2.33-3.69,3.42-5.35
				c0.82-1.25,1.68-2.49,2.54-3.72c1.79-2.58,3-3.18,4.49-2.24c1.39,0.88,1.43,2.56,0.07,5.08
				C284.99,435.12,284.81,435.33,284.5,435.83z"/>
			<path id="Path_544" class="st0" d="M404.97,223.49c-1.01,1.48-1.69,2.93-2.82,3.83c-0.79,0.63-2.48,1.01-3.25,0.57
				c-0.77-0.43-1.04-1.98-1.22-3.08c-0.09-0.54,0.46-1.23,0.82-1.8c2.72-4.24,5.45-8.46,8.21-12.68c0.29-0.46,0.62-0.9,0.98-1.3
				c0.99-1.24,2.77-1.53,4.1-0.67c1.55,0.97,1.39,2.49,0.46,3.93C409.87,215.94,407.49,219.58,404.97,223.49z"/>
			<path id="Path_546" class="st0" d="M805.32,171.17c2.6,0.01,4.79,0.05,6.98,0.02c1.51-0.02,2.59,0.91,2.5,2.11
				c-0.08,0.94-1.26,1.82-2.05,2.63c-0.22,0.23-0.78,0.17-1.19,0.19c-5.72,0.26-11.45,0.51-17.18,0.75c-0.27,0.02-0.55,0.02-0.82,0
				c-2.25-0.16-3.98-1.45-3.71-2.94c0.33-1.87,1.71-2.67,3.56-2.69C797.25,171.21,801.09,171.19,805.32,171.17z"/>
			<path id="Path_574" class="st0" d="M718.16,41.65c2.18-3.49,4.24-6.69,6.21-9.95c0.9-1.5,2.02-2.24,3.73-1.55
				c1.38,0.56,1.91,2.58,0.9,4.29c-2.9,4.92-5.89,9.81-9.04,14.56c-0.49,0.73-2.22,1.2-3.16,0.97c-1.64-0.4-1.75-2.11-1.28-3.4
				C716.27,44.86,717.15,43.22,718.16,41.65z"/>
			<path id="Path_578" class="st0" d="M405.61,45.19c-0.76,1.24-1.6,2.44-2.49,3.59c-0.8,0.91-1.86,1.77-3.2,0.85
				c-1.41-0.95-1.93-2.26-1.17-3.87c0.27-0.47,0.58-0.92,0.92-1.34c2.41-3.61,4.8-7.24,7.23-10.83c0.55-0.78,1.18-1.5,1.86-2.16
				c0.96-0.98,2.02-2.13,3.5-1.01c1.43,1.08,1.21,2.64,0.56,4.07c-0.45,0.84-0.96,1.64-1.54,2.39
				C409.46,39.57,407.62,42.27,405.61,45.19z"/>
			<path id="Path_589" class="st0" d="M646.75,86.2c-3.28,0.02-6.17,0.05-9.05,0.06c-0.82,0.02-1.65,0-2.47-0.07
				c-1.25,0.01-2.28-0.99-2.28-2.23c0-0.06,0-0.11,0.01-0.17c-0.13-1.2,0.74-2.28,1.95-2.41c0.1-0.01,0.19-0.01,0.29-0.01
				c5.74-0.32,11.49-0.59,17.23-0.81c1.39-0.05,2.65,0.66,2.51,2.07c-0.09,1-0.93,2.49-1.76,2.75
				C651.26,85.99,649.16,85.97,646.75,86.2z"/>
			<path id="Path_600" class="st0" d="M333.68,364.23c2.6,4.35,5.03,8.44,7.5,12.5c0.86,1.43,1.17,2.81-0.23,4.02
				c-1.23,1.05-3.33,0.52-4.47-1.32c-2.72-4.39-5.38-8.83-7.85-13.36c-0.57-1.05-0.29-2.56-0.41-3.91
				C330.9,361.1,332.55,361.6,333.68,364.23z"/>
			<path id="Path_605" class="st0" d="M323.71,364.54c-2.47,4.71-4.82,9.15-7.2,13.56c-0.32,0.6-0.81,1.09-1.16,1.67
				c-0.96,1.6-2.42,1.87-3.84,0.98c-1.32-0.81-1.42-2.16-0.64-3.57c2.54-4.65,4.94-9.37,7.6-13.94c0.72-0.91,1.78-1.49,2.94-1.62
				C323.12,361.41,323.66,362.78,323.71,364.54z"/>
			<path id="Path_614" class="st0" d="M321.82,267.59c-1.07-0.01-1.75,0-2.44-0.03c-1.83-0.08-2.74-1.05-2.73-2.85
				c0-1.83,0.97-2.73,2.79-2.77c1.23-0.02,2.47-0.02,3.7-0.02c3.7,0,7.4-0.07,11.09,0.02c2.3,0.05,3.13,0.94,3.11,2.86
				c-0.02,1.9-0.84,2.71-3.21,2.77C330.15,267.66,326.17,267.59,321.82,267.59z"/>
			<path id="Path_621" class="st0" d="M319.63,81.37c5.16-0.17,9.95-0.34,14.75-0.5c1.91-0.06,3.48,1.05,3.67,2.56
				c0.21,1.69-0.82,2.63-3.19,2.79c-4.37,0.29-8.75,0.53-13.12,0.79c-0.55,0.03-1.1,0.03-1.65,0.01c-2.36-0.11-4.08-1.12-4.06-2.62
				C316.07,82.43,317.44,81.6,319.63,81.37z"/>
			<path id="Path_628" class="st0" d="M561.56,40.77c-1.69-2.5-3.3-4.7-4.71-7.03c-1.21-1.99-0.99-3.56,0.31-4.35
				c1.32-0.81,2.94-0.37,4.2,1.44c2.88,4.13,5.65,8.34,8.46,12.5c0.94,1.39,1.2,2.79-0.17,4.02c-1.09,0.98-3.2,0.56-4.3-0.91
				C564.06,44.69,562.93,42.83,561.56,40.77z"/>
			<path id="Path_634" class="st0" d="M399.28,124.2c0.02-1.6-0.56-3.21,1.43-3.59c1.38-0.33,2.81,0.32,3.45,1.57
				c2.76,4.35,5.62,8.65,8.43,12.97c0.85,1.29,0.96,2.64-0.32,3.65c-1.24,0.98-2.61,0.7-3.68-0.43c-0.75-0.79-1.42-1.64-2.02-2.54
				C404.14,132.07,401.74,128.29,399.28,124.2z"/>
			<path id="Path_639" class="st0" d="M639.18,163.39c0.88,1.9,1.88,3.59-0.16,4.96c-1.48,0.99-3.22,0.15-4.54-2.22
				c-2.18-3.91-4.28-7.86-6.41-11.81c-0.2-0.36-0.34-0.74-0.52-1.1c-0.8-1.53-0.09-2.61,1.13-3.48c1.5-1.07,2.69-0.29,3.48,0.91
				c1.42,2.15,2.67,4.41,3.91,6.66C637.11,159.21,638.05,161.17,639.18,163.39z"/>
			<path id="Path_643" class="st0" d="M467.83,109.42c2.41-4.76,4.78-9.2,7.1-13.67c0.77-1.49,1.75-2.48,3.55-1.94
				c1.49,0.44,2.27,2.21,1.32,4.12c-2.34,4.76-4.87,9.43-7.52,14.02c-0.38,0.67-1.91,1.12-2.8,0.98
				C467.77,112.69,467.67,111.16,467.83,109.42z"/>
			<path id="Path_647" class="st0" d="M475.09,84.65c-0.38,1.99-1.61,2.36-3.1,2.36c-4.51-0.01-9.02,0.01-13.53-0.01
				c-0.54,0-1.25,0.05-1.57-0.25c-0.84-0.78-2.08-1.77-2.06-2.64c0.02-0.88,1.32-1.81,2.18-2.56c0.34-0.29,1.05-0.19,1.59-0.19
				c4.1-0.02,8.2,0.01,12.3-0.02C473.07,81.33,474.63,82.05,475.09,84.65z"/>
			<path id="Path_660" class="st0" d="M490.69,92.93c1.12,0.66,2.13,1.49,2.98,2.47c2.42,3.42,4.74,6.92,7.01,10.44
				c0.91,1.41,1.6,3.1-0.09,4.36c-1.65,1.23-3.22,0.38-4.23-1.05c-2.8-3.97-5.59-7.97-8.16-12.1
				C487.03,95.17,487.46,94.68,490.69,92.93z"/>
			<path id="Path_664" class="st0" d="M321.88,162.87c0.52,1.14,1.21,2.02,1.18,2.87c-0.03,0.93-0.52,2.28-1.22,2.63
				c-0.74,0.38-2.04-0.05-2.98-0.42c-0.55-0.22-0.95-0.96-1.27-1.54c-2.22-4.04-4.45-8.08-6.57-12.17c-1-1.93-0.62-3.69,0.82-4.12
				c1.6-0.64,3.42,0.12,4.07,1.7c0,0.01,0.01,0.02,0.01,0.03C317.81,155.47,319.8,159.03,321.88,162.87z"/>
			<path id="Path_677" class="st0" d="M653.8,197.17c-2.65-4.29-5.12-8.34-7.49-12.46c-0.8-1.39-1.85-2.97,0.23-4.21
				c1.56-0.93,3.37-0.33,4.48,1.53c2.29,3.84,4.52,7.73,6.74,11.61c0.71,1.24,1.13,2.59-0.04,3.75S655.25,198.34,653.8,197.17z"/>
			<path id="Path_694" class="st0" d="M489.37,70.88c2-2.93,3.81-5.63,5.64-8.3c0.45-0.67,0.91-1.53,1.57-1.8
				c0.91-0.36,2.27-0.64,2.96-0.21c0.68,0.42,0.82,1.77,1.07,2.73c0.08,0.32-0.22,0.77-0.44,1.1c-2.72,4.04-5.36,8.13-8.25,12.05
				c-1.44,1.94-2.88,2.01-4.05,0.53c-0.6-0.82-0.83-1.85-0.63-2.84C487.54,73.05,488.5,72.12,489.37,70.88z"/>
			<path id="Path_696" class="st0" d="M335.03,194.72c-1.95-3.12-3.72-6-5.47-8.89c-0.35-0.58-0.67-1.18-0.94-1.8
				c-0.59-1.15-0.12-2.56,1.04-3.14c0.13-0.06,0.27-0.12,0.4-0.16c0.98-0.27,2.03-0.05,2.82,0.58c1.2,1.46,2.27,3.03,3.19,4.68
				c1.37,2.17,2.76,4.34,4.02,6.58c0.64,1.02,1.07,2.16,1.24,3.35c0.01,0.89-0.42,1.73-1.15,2.25c-0.96,0.34-2.03,0.25-2.91-0.26
				C336.35,197.24,335.87,195.96,335.03,194.72z"/>
			<path id="Path_715" class="st0" d="M316.58,176.43c-5.3,0.55-10.32,0.94-15.35,1.26c-1.76,0.12-3.34-0.2-3.54-2.42
				c-0.17-1.9,0.83-3.06,3.37-3.15c4.79-0.17,9.59-0.22,14.38-0.06C317.97,172.14,318.38,173.65,316.58,176.43z"/>
			<path id="Path_716" class="st0" d="M779.96,87.03c-1.34-0.03-2.45,0.22-3.21-0.18c-0.9-0.47-1.56-1.29-1.81-2.27
				c0.06-1,0.55-1.93,1.35-2.56c0.82-0.47,1.77-0.68,2.72-0.6c3.82-0.08,7.65-0.08,11.48-0.07c0.67-0.09,1.36,0.02,1.97,0.32
				c0.8,0.64,1.83,1.55,1.86,2.38c0.03,0.76-0.99,1.81-1.82,2.27c-0.98,0.46-2.06,0.68-3.14,0.64
				C786.36,87.04,783.35,87.01,779.96,87.03z"/>
			<path id="Path_728" class="st0" d="M316.64,333.83c1.57,2.87,3.04,5.45,4.45,8.06c0.56,0.93,0.97,1.92,1.24,2.97
				c0.36,1.37-0.47,2.76-1.85,3.12c-0.02,0.01-0.05,0.01-0.07,0.02c-1.04,0.09-2.06-0.34-2.72-1.14c-2.52-4.31-4.83-8.75-7.2-13.15
				c-0.71-1.32-0.09-2.32,0.91-3.19c1.24-1.08,2.4-0.36,3.28,0.41C315.48,331.6,315.92,332.66,316.64,333.83z"/>
			<path id="Path_730" class="st0" d="M312.89,198.6c-1.64-1.57-1.39-3.15-0.59-4.66c1.91-3.58,3.9-7.12,5.89-10.66
				c0.33-0.59,0.73-1.46,1.22-1.56c1.22-0.31,2.5-0.31,3.72-0.02c0.39,0.12,0.7,2.02,0.34,2.77c-2.17,4.36-4.55,8.61-6.86,12.91
				C315.85,198.78,314.69,199.19,312.89,198.6z"/>
			<path id="Path_731" class="st0" d="M637.58,189.81c-2.11,3.13-2.69,6.91-5.99,8.86c-3.13-1.55-3.56-2.21-2.26-4.81
				c2-4,4.17-7.91,6.4-11.78c0.76-1.32,1.96-2.45,3.7-1.32c1.44,0.93,1.97,2.18,1.03,3.82C639.53,186.2,638.66,187.9,637.58,189.81z
				"/>
			<path id="Path_733" class="st0" d="M334.97,345.39c-0.95,1.16-1.57,2.34-2.54,2.93c-0.9,0.44-1.96,0.47-2.89,0.09
				c-1.09-0.51-1.55-1.8-1.03-2.87c0.04-0.09,0.09-0.18,0.15-0.26c0.11-0.25,0.23-0.49,0.37-0.73c2.58-3.8,5.14-7.62,7.78-11.39
				c0.52-0.59,1.12-1.11,1.77-1.56c3.79,1.52,4.09,2.18,2.19,5.11C338.93,339.54,337.03,342.34,334.97,345.39z"/>
			<path id="Path_735" class="st0" d="M788.06,62.52c1.95-2.99,3.28-3.24,4.82-0.81c2.47,3.91,4.66,7.99,6.92,12.03
				c0.8,1.43,1,2.9-0.6,3.96c-1.32,0.87-3.08,0.36-4.13-1.52C792.63,71.79,790.39,67.29,788.06,62.52z"/>
			<path id="Path_737" class="st0" d="M789.51,102.45c1.71-2.32,3.23-4.42,4.74-6.52c2.26-3.14,3.12-3.16,5.96-0.05
				c-1.15,4.13-4.5,6.98-6.69,10.54c-0.65,1.2-1.5,2.28-2.51,3.19c-0.82,0.6-1.87,0.81-2.86,0.57c-1.3-0.53-2.21-1.77-1.39-3.32
				C787.53,105.41,788.47,104.07,789.51,102.45z"/>
			<path id="Path_739" class="st0" d="M501.64,82.11c3.54,0.01,6.68,0.02,9.81,0.02c1.63,0,3.05,0.3,3.25,2.25
				c0.17,1.65-0.88,2.61-3.27,2.65c-5.04,0.09-10.09,0.01-15.14,0.04c-1.6,0.1-3.06-0.89-3.55-2.39c0.4-1.61,1.92-2.69,3.59-2.56
				C497.96,82.12,499.6,82.11,501.64,82.11z"/>
			<path id="Path_745" class="st0" d="M615.97,176.81c-1.75-3.16-1.36-4.51,1.24-4.74c4.6-0.4,9.22-0.59,13.84-0.83
				c1.8-0.09,3.29,0.34,3.45,2.52c0.13,1.87-0.91,3.01-3.44,3.08C626.15,176.98,621.23,176.89,615.97,176.81z"/>
			<path id="Path_752" class="st0" d="M476.32,75.26c-2.1-3.7-4.06-7.12-5.95-10.58c-0.44-0.81-0.99-1.79-0.88-2.6
				c0.13-0.92,0.78-2.2,1.53-2.49c1.01-0.24,2.08,0.05,2.83,0.77c2.65,4.28,5.11,8.67,7.56,13.07c0.74,1.34-0.07,2.36-1.12,3.15
				C478.59,77.83,477.51,76.72,476.32,75.26z"/>
			<path id="Path_771" class="st0" d="M564.1,135.08c-0.79,1.3-1.19,2.59-2.07,3.33c-0.84,0.6-1.9,0.81-2.91,0.57
				c-0.63-0.19-1.1-1.38-1.35-2.21c-0.12-0.67-0.01-1.35,0.32-1.94c2.05-3.97,4.1-7.93,6.34-11.8c0.6-0.84,1.54-1.39,2.58-1.51
				c1.79-0.13,2.85,1.77,2.07,3.92c-0.82,2-1.77,3.95-2.83,5.84C565.62,132.49,564.94,133.66,564.1,135.08z"/>
			<path id="Path_783" class="st0" d="M353.44,172.9c1.71,1.94,1.18,3.25-0.72,4.05c-1,0.42-2.08,0.65-3.16,0.67
				c-3.16,0.1-6.31,0.06-9.47,0.07c-0.55,0-1.28,0.16-1.61-0.12c-0.97-0.81-2.48-1.83-2.47-2.74c0.01-0.91,1.5-2.42,2.53-2.6
				c2.45-0.32,4.92-0.38,7.38-0.18C348.44,172.19,350.95,172.46,353.44,172.9z"/>
			<path id="Path_784" class="st0" d="M813.28,97.2c2.07,3.37,3.99,6.48,5.87,9.62c1.21,2.01,1.03,3.08-0.5,4.13
				c-1.75,1.19-2.97,0.12-3.8-1.12c-2.58-3.82-5.06-7.7-7.36-11.67c-0.36-0.62,0.13-2.19,0.74-2.75c0.85-0.54,1.89-0.68,2.85-0.39
				C811.9,95.26,812.45,96.27,813.28,97.2z"/>
			<path id="Path_793" class="st0" d="M658.68,154.18c-1.63,3-3.09,5.74-4.64,8.44c-0.62,1.19-1.4,2.3-2.33,3.27
				c-0.55,0.52-1.9,0.91-2.42,0.6c-0.76-0.46-1.2-1.56-1.56-2.47c-0.09-0.53,0.01-1.08,0.31-1.54c1.87-3.59,3.75-7.19,5.7-10.74
				c0.73-1.32,1.77-2.77,3.47-2.16C659.15,150.27,659.66,151.95,658.68,154.18z"/>
			<path id="Path_794" class="st0" d="M339.76,158.08c-1.46,2.64-2.83,5-4.13,7.38c-0.78,1.4-1.93,1.98-3.42,1.43
				c-1.61-0.59-1.73-2.04-1.41-3.42c0.29-1.04,0.72-2.05,1.27-2.98c1.42-2.63,2.86-5.25,4.36-7.83c0.47-0.81,1.03-1.8,1.8-2.12
				c0.96-0.39,2.04-0.38,3,0.02c0.68,0.62,0.99,1.54,0.84,2.44C341.41,154.75,340.65,156.45,339.76,158.08z"/>
			<path id="Path_805" class="st0" d="M804.65,75.44c0.25-1.32,0.36-2.48,0.93-3.34c1.94-2.95,3.99-5.84,6.1-8.68
				c1.27-1.71,3.04-2.18,4.24-1.21c1.47,1.19,1.21,2.69,0.31,4.02c-2.2,3.28-4.39,6.56-6.8,9.69
				C808.03,77.75,807.08,77.59,804.65,75.44z"/>
			<path id="Path_807" class="st0" d="M666.37,176.9c-2.98,0.02-5.6,0.04-8.21,0.04c-0.82,0.04-1.65,0.02-2.47-0.07
				c-1.47-0.22-2.88-1.02-2.6-2.54c0.16-0.88,1.53-1.7,2.53-2.22c0.65-0.34,1.62-0.05,2.43-0.12c2.04-0.17,4.07-0.5,6.11-0.53
				c1.76-0.09,3.52,0.06,5.24,0.46c0.98,0.36,1.71,1.19,1.95,2.19c0.01,0.82-0.97,1.9-1.81,2.42
				C668.83,176.97,667.7,176.8,666.37,176.9z"/>
			<path id="Path_810" class="st0" d="M830.28,86.79c-4.85,0.19-9.36,0.25-13.88,0.29c-0.41,0.01-0.82-0.01-1.23-0.06
				c-1.41-0.18-2.28-0.91-2.3-2.37c-0.02-1.46,0.78-2.41,2.2-2.43c4.79-0.09,9.59-0.19,14.38,0.02
				C831.85,82.34,832.14,83.81,830.28,86.79z"/>
			<path id="Path_812" class="st0" d="M314.87,357.9c-4.91,0.26-9.54,0.37-14.16,0.4c-0.81,0-1.6-0.21-2.3-0.6
				c-1.58-0.95-1.61-2.56-0.09-3.58c0.55-0.39,1.19-0.63,1.86-0.68c4.36-0.05,8.73-0.16,13.08,0.05
				C316.11,353.61,316.69,355.19,314.87,357.9z"/>
			<path id="Path_817" class="st0" d="M341.56,358.33h-4.29c-1.1-3.94-0.67-4.79,2.51-4.89c3.97-0.12,7.94-0.05,11.91-0.05
				c1.75-0.01,2.98,0.63,2.9,2.57c-0.07,1.7-1.25,2.29-2.79,2.32C348.52,358.31,345.23,358.31,341.56,358.33z"/>
		</g>
	</g>
	<g id="broderi-2" transform="translate(1917 1579) rotate(180)">
		<g id="Group_99-2" transform="translate(-240.7 -1.05)">
			<path id="Path_442-2" class="st0" d="M1172.27,310.07c0.82,0.93,1.54,1.95,2.14,3.04c0.64,1.02,1.46,1.95,2.01,3.01
				c0.56,1.04,0.16,2.33-0.9,2.89c-0.1,0.05-0.21,0.1-0.32,0.14c-0.94,0.36-1.99,0.29-2.87-0.21c-1.62-1.45-3.13-3-4.53-4.66
				c-0.9-0.98-1.72-2.04-2.61-3.09c-3.41,3.01-5.72,6.85-9.76,8.59c-3.12-2.46-3.17-2.75-1-5.08c1.29-1.39,2.63-2.75,4.06-4.37
				C1163.04,310.07,1167.46,310.07,1172.27,310.07z"/>
			<path id="Path_443-2" class="st0" d="M656.72,624.16c0.96-1.19,2.15-1.9,2.86-2.93c2.16-3.11,4.13-6.36,6.2-9.54
				c0.51-0.8,1.1-1.54,1.75-2.24c1.16-1.24,2.58-1.7,3.98-0.53c1.24,1.05,1.01,2.38,0.17,3.66c-2.07,3.18-4.13,6.36-6.21,9.54
				c-0.96,1.47-1.91,2.96-2.91,4.41c-1.32,1.93-3.02,2.63-5.54,1.4C656.76,626.69,656.66,625.42,656.72,624.16z"/>
			<path id="Path_445-2" class="st0" d="M856.92,310.07c1.11,1.4,1.7,2.9,2.62,4.17c0.96,1.34,1.59,2.57,0.42,4
				c-0.99,1.2-2.63,1.05-4.28-0.46c-1.8-1.66-3.48-3.42-5.21-5.15c-1.19-1.19-2.35-1.18-3.55,0c-1.93,1.91-3.9,3.78-5.82,5.7
				c-1.04,1.04-2.11,1.84-3.52,0.67c-1.43-1.19-1.19-2.67-0.3-3.97c1.05-1.54,2.33-2.92,3.52-4.66
				C846.05,310.07,851.3,310.07,856.92,310.07z"/>
			<path id="Path_446-2" class="st0" d="M656.72,335.78c1.06,0.39,2.45,0.95,3.12,1.96c3.12,4.76,6.1,9.61,8.98,14.52
				c0.68,1.16,1.03,2.47,1.02,3.81c-0.06,2-2.06,2.84-3.48,1.39c-1.6-1.62-2.76-3.66-4.12-5.51c-1.64-2.25-3.29-4.5-5.23-6.75
				C656.72,342.19,656.72,339.17,656.72,335.78z"/>
			<path id="Path_448-2" class="st0" d="M656.72,699.35c2.31-0.7,3.91,0.15,5,2.25c2.06,3.96,4.24,7.85,6.35,11.78
				c0.46,0.67,0.75,1.44,0.86,2.24c-0.02,0.84-0.32,2.11-0.92,2.42c-0.94,0.44-2.03,0.43-2.95-0.03c-1.03-0.75-1.67-2.06-2.4-3.18
				c-1.81-2.8-3.58-5.62-5.65-8.46C656.76,704.03,656.66,701.69,656.72,699.35z"/>
			<path id="Path_450-2" class="st0" d="M656.72,516.34c1.49-0.46,2.53,0.08,3.37,1.41c2.66,4.24,5.5,8.36,8.17,12.6
				c0.55,0.91,0.82,1.96,0.78,3.02c-0.13,2-2.03,2.8-3.5,1.4c-1.65-1.56-2.92-3.52-4.38-5.3c-1.28-1.59-2.66-3.1-4.13-4.52
				C656.76,522.09,656.66,519.22,656.72,516.34z"/>
			<path id="Path_451-2" class="st0" d="M750.46,310.07c0.35,3.28,3.02,5.17,4.48,7.68c0.94,1.63,2.29,3.03,3.27,4.64
				c1.17,1.94,0.91,3.17-0.62,4.21c-1.72,1.18-2.87,0.15-3.77-1.11c-2.62-3.62-5.21-7.25-7.65-10.99c-0.69-1.06-0.78-2.52-1.13-4.11
				C746.83,310.11,748.65,310.01,750.46,310.07z"/>
			<path id="Path_452-2" class="st0" d="M656.72,441.97c0.82-1.13,1.86-1.77,2.41-2.7c1.3-2.21,2.31-4.58,3.55-6.83
				c1.11-2.02,2.75-2.91,5.53-1.64c-0.15,1.15-0.02,2.53-0.52,3.63c-1.69,3.67-3.54,7.29-5.48,10.84c-1.01,1.84-2.42,3.36-5.19,2.09
				C656.76,445.57,656.66,443.77,656.72,441.97z"/>
			<path id="Path_454-2" class="st0" d="M1374.53,310.07c0.18,1.04,0.02,2.12-0.45,3.07c-2.4,3.77-4.94,7.46-7.46,11.16
				c-0.38,0.55-0.88,1.26-1.44,1.39c-1.09,0.26-2.64,0.6-3.29,0.06c-0.65-0.53-0.91-2.33-0.49-3.17c1-2.05,2.52-3.84,3.78-5.77
				c1.33-2.04,2.61-4.11,3.92-6.45C1370.9,310.11,1372.72,310.01,1374.53,310.07z"/>
			<path id="Path_455-2" class="st0" d="M1067.45,310.07c2.13,3.19,3.88,6.38,5.65,9.57c0.6,1.07,1.37,2.05,1.85,3.16
				c0.53,1.22,0.42,2.7-0.94,3.13c-0.97,0.31-2.24-0.26-3.36-0.5c-0.22-0.05-0.42-0.36-0.56-0.58c-2.95-4.73-5.89-9.47-8.86-14.49
				C1063.3,310.11,1065.38,310.01,1067.45,310.07z"/>
			<path id="Path_456-2" class="st0" d="M1059.19,310.07c-0.72,1.82-1.62,3.57-2.69,5.21c-1.88,2.99-3.82,5.94-5.74,8.9
				c-0.96,1.47-2.18,2.56-4.06,1.8c-1.4-0.57-1.7-2.64-0.54-4.7c1.26-2.25,2.8-4.34,4.19-6.51c0.88-1.36,1.71-2.75,2.58-4.42
				C1055.01,310.11,1057.1,310.01,1059.19,310.07z"/>
			<path id="Path_458-2" class="st0" d="M738.12,310.07c1.66,2.78,0.82,5.09-1.02,7.38c-1.94,2.42-3.63,5.04-5.44,7.56
				c-0.3,0.45-0.65,0.87-1.03,1.25c-1.1,1.07-2.57,1.51-3.59,0.35c-0.61-0.96-0.77-2.14-0.44-3.22c0.4-1.22,1.49-2.22,2.24-3.34
				c2.11-3.12,4.2-6.26,6.3-9.68C736.11,310.11,737.11,310,738.12,310.07z"/>
			<path id="Path_460-2" class="st0" d="M1384.45,310.07c2.24,3.1,4.1,6.2,6.01,9.28c0.71,1.15,1.75,2.17,2.18,3.4
				c0.3,0.84,0.13,2.49-0.43,2.84c-0.83,0.5-2.84,0.64-3.21,0.13c-3.42-4.77-7.88-8.97-9.16-15.33
				C1381.36,310.11,1382.91,310.01,1384.45,310.07z"/>
			<path id="Path_461-2" class="st0" d="M1270.52,310.07c-1.81,2.77-3.78,5.44-5.88,8c-1.51,1.88-3.27,2.27-4.53,1.11
				c-1.15-1.06-1.03-3.08,0.31-4.76c1-1.26,2.02-2.52,3.04-4.06C1265.79,310.11,1268.16,310.01,1270.52,310.07z"/>
			<path id="Path_462-2" class="st0" d="M1277.95,310.07c1.28,1.61,2.44,3.31,3.47,5.09c1.22,2.01,1.24,3.46-0.06,4.25
				c-1.79,1.06-3.19,0.18-4.24-1.2c-1.86-2.46-3.58-5.04-5.38-7.85C1273.8,310.11,1275.87,310.01,1277.95,310.07z"/>
			<path id="Path_463-2" class="st0" d="M961.78,310.07c0.73,0.85,1.36,1.77,1.89,2.74c0.52,0.78,1.25,1.43,1.73,2.23
				c1.14,1.91,0.92,3.15-0.62,4.2c-1.71,1.18-2.81,0.13-3.78-1.08c-2.04-2.52-4.01-5.07-6.15-7.86
				C957.16,310.1,959.47,310.02,961.78,310.07z"/>
			<path id="Path_465-2" class="st0" d="M953.53,310.07c-1.81,2.58-3.79,5.04-5.92,7.37c-0.98,1.08-2.19,0.91-3.26-0.07
				c-1.17-1.07-1.46-2.22-0.36-3.54c0.91-1.1,1.73-2.26,2.47-3.47C948.81,310.11,951.17,310.01,953.53,310.07z"/>
			<path id="Path_466-2" class="st0" d="M1480.2,310.07c-0.11,3.54-3.07,5.28-5.33,7.48c-0.62,0.45-1.43,0.54-2.15,0.26
				c-0.63-0.48-1.35-1.66-1.16-2.25c0.56-1.7,1.57-3.26,2.4-5.17C1476.03,310.11,1478.11,310.01,1480.2,310.07z"/>
			<path id="Path_467-2" class="st0" d="M1490.11,310.07c0.56,1.52,1.04,3.07,1.43,4.64c0.52,1.55,0.15,2.77-1.26,3.35
				c-1.35,0.56-2.75,0.28-3.37-1.32c-0.78-2-1.49-4.03-2.22-6.36C1486.48,310.11,1488.3,310.01,1490.11,310.07z"/>
			<path id="Path_475-2" class="st0" d="M840.36,479.98c1.03-0.06,1.69-0.12,3.08-0.25c-1.25-2.14-2.26-3.97-3.37-5.72
				c-1.24-1.95-2.64-3.81-3.87-5.76c-1.48-2.36-1.3-3.88,0.56-4.87c2.05-1.1,3.03,0.43,3.95,1.8c1.89,2.83,3.7,5.71,5.58,8.54
				c0.65,0.98,1.39,1.92,2.32,3.2c2.04-3.13,3.8-5.85,5.57-8.56c0.67-1.02,1.31-2.08,2.07-3.04c0.88-1.11,1.9-2.06,3.49-1.13
				c1.59,0.93,1.99,2.32,0.92,4.17c-1.23,2.11-2.7,4.09-3.99,6.17c-0.84,1.35-1.56,2.77-2.65,4.72c3.66,0,6.64,0.01,9.62,0
				c1.75-0.01,3.41,0.15,3.55,2.41c0.11,1.74-1.24,3.08-3.52,3.18c-3,0.14-6.01,0.03-9.92,0.03c0.99,1.72,1.57,2.83,2.25,3.88
				c1.76,2.75,3.66,5.42,5.32,8.23c1.29,2.21,1.01,3.83-0.66,4.52c-1.86,0.77-3.1-0.36-4.05-1.81c-2.59-3.98-5.15-7.99-8-12.4
				c-2.33,3.55-4.38,6.71-6.46,9.86c-0.52,0.79-0.94,1.81-1.69,2.25c-0.8,0.47-2.29,0.86-2.83,0.44c-0.86-0.76-1.36-1.84-1.39-2.97
				c0.02-0.95,0.97-1.88,1.53-2.81c1.75-2.86,3.5-5.7,5.67-9.24c-2.6,0.22-4.34,0.4-6.08,0.52c-1.9,0.22-3.82,0.31-5.73,0.28
				c-2.3-0.14-3.26-1.18-3.21-2.91c0.05-1.84,0.87-2.56,3.35-2.65C834.51,479.94,837.26,480,840.36,479.98z"/>
			<path id="Path_488-2" class="st0" d="M674.53,389.4c3.37-0.04,6.39-0.04,10.16-0.04c-1.17-2.32-2.1-4.18-3.06-6.02
				c-0.95-1.8-1.99-3.56-2.9-5.38c-0.75-1.49-0.84-3.01,0.9-3.85c1.64-0.8,3.01,0.05,3.84,1.43c1.62,2.67,3.09,5.44,4.64,8.17
				c0.52,0.92,1.07,1.83,1.88,3.21c1.52-2.56,2.79-4.74,4.09-6.89c0.63-1.04,1.16-2.34,2.11-2.94c1.01-0.55,2.22-0.64,3.3-0.22
				c0.6,0.29,1.05,2.03,0.74,2.8c-0.95,2.11-2.01,4.16-3.2,6.14c-0.38,0.7-0.71,1.41-1.39,2.73c3.3,0,6.1-0.02,8.89,0.01
				c3.08,0.03,4.74,0.95,4.88,2.64c0.15,1.8-1.76,2.98-4.95,3.01c-3.29,0.03-6.57,0.01-10.52,0.01c1.12,2.23,1.99,4.02,2.92,5.78
				c1.21,2.29,2.54,4.5,3.69,6.82c0.94,1.91,0.52,3.32-1.06,4.13c-1.85,0.94-2.9-0.29-3.67-1.6c-1.93-3.28-3.7-6.64-5.65-10.18
				c-1.84,1.08-2.54,2.68-3.41,4.15c-1.1,1.87-2.14,3.8-3.36,5.6c-0.78,1.16-1.87,2.08-3.47,1.19c-1.6-0.9-2-2.31-0.97-4.17
				c1.38-2.5,2.91-4.91,4.33-7.39c0.52-0.9,0.9-1.87,1.68-3.51h-6.56c-1.1,0-2.2-0.01-3.3,0c-1.59,0.02-3.1-0.13-3.48-2.06
				C671.23,390.92,672.36,389.93,674.53,389.4z"/>
			<path id="Path_495-2" class="st0" d="M793.95,401.09c-1.28,2.26-2.44,4.27-3.59,6.27c-0.8,1.39-2.15,2.05-3.42,1.18
				c-0.86-0.78-1.34-1.89-1.31-3.04c0.05-1.12,0.85-2.24,1.42-3.32c1.12-2.12,2.29-4.22,3.84-7.07c-2.65-0.05-4.51-0.09-6.37-0.11
				c-1.93-0.02-3.85,0.05-5.77-0.06c-1.68-0.11-3.01-1.06-3.02-2.76c-0.01-1.7,1.36-2.6,3.01-2.79c1.1-0.08,2.2-0.1,3.3-0.05
				c2.57-0.01,5.14,0,8.42,0c-1.64-2.75-2.98-4.9-4.2-7.1c-0.74-1.12-1.24-2.38-1.49-3.7c0.09-1,0.64-1.91,1.49-2.46
				c0.52-0.32,1.94,0.06,2.43,0.6c1.3,1.57,2.5,3.22,3.58,4.94c1.05,1.56,2.02,3.18,3.31,5.22c1.95-3.37,3.67-6.37,5.42-9.34
				c0.89-1.52,1.68-3.39,4.01-2.49c1.98,0.77,2.18,2.32,0.73,5.14c-0.81,1.57-1.81,3.04-2.65,4.59c-0.68,1.27-1.24,2.6-2.18,4.59
				h4.67c1.65,0,3.3-0.07,4.95,0.02c2.29,0.12,3.99,1.43,3.71,2.93c-0.35,1.87-1.74,2.68-3.59,2.7c-2.98,0.02-5.97,0.01-9.84,0.01
				c2.01,3.3,3.63,5.88,5.18,8.51c0.68,1.16,1.54,2.38,1.68,3.63c0.06,1.15-0.42,2.27-1.29,3.04c-1.27,0.85-2.6,0.19-3.44-1.18
				c-1.62-2.67-3.26-5.35-4.93-7.99c-0.56-0.88-1.28-1.67-2.14-2.77C795.12,399.33,794.61,400.08,793.95,401.09z"/>
			<path id="Path_502-2" class="st0" d="M1313.66,395.04c-2.29-0.01-4.22,0-6.14-0.03c-1.36-0.02-2.44-0.55-2.69-2
				c-0.28-1.62,0.6-2.63,2.07-3.04c1.18-0.32,2.39-0.51,3.62-0.54c2.3-0.09,4.61-0.02,7.19-0.02c-0.42-3.39-2.69-5.37-3.89-7.86
				c-0.77-1.59-1.76-3.08-2.36-4.72c-0.55-1.17-0.06-2.57,1.1-3.16c1.46-0.83,2.47-0.13,3.16,0.9c2.18,3.28,4.24,6.64,6.33,9.97
				c0.43,0.68,0.85,1.37,1.61,2.62c1.79-2.97,3.36-5.56,4.92-8.17c0.56-1.08,1.19-2.13,1.88-3.15c0.77-1.22,2.4-1.61,3.65-0.86
				c1.5,0.84,1.46,2.29,0.78,3.57c-1.65,3.12-3.44,6.17-5.18,9.25c-0.27,0.46-0.54,0.92-0.88,1.5c1.29,1.31,2.87,0.73,4.27,0.79
				c2.05,0.09,4.12-0.04,6.18,0.05c2.43,0.1,3.48,0.98,3.33,2.64c-0.18,1.96-1.59,2.31-3.24,2.3c-2.61-0.01-5.21-0.01-7.83,0.02
				c-0.78,0.01-1.57,0.15-2.98,0.29c1.28,2.18,2.36,3.99,3.41,5.81c0.68,1.18,1.38,2.35,1.99,3.56c0.74,1.48,0.87,3-0.84,3.87
				c-1.64,0.84-2.98-0.01-3.86-1.36c-1.33-2.05-2.51-4.2-3.76-6.31c-0.47-0.79-0.96-1.56-1.79-2.9c-1.92,3.28-3.62,6.14-5.26,9.03
				c-1.99,3.49-3.23,3.59-6.19,0.17c2.07-3.75,4.2-7.61,6.75-12.2C1316.92,395.04,1315.48,395.04,1313.66,395.04z"/>
			<path id="Path_503-2" class="st0" d="M1000.65,387.8c-1.17-2.86-2.42-5.42-3.68-7.99c-0.42-0.85-0.81-1.72-1.28-2.56
				c-0.81-1.49-0.32-2.65,0.94-3.53c1.52-1.06,2.65-0.12,3.45,1.02c1.16,1.67,2.12,3.48,3.13,5.25c1.13,1.96,2.22,3.94,3.68,6.56
				c1.76-2.87,3.05-5.03,4.41-7.14c0.6-1.06,1.35-2.03,2.23-2.88c0.63-0.53,2.02-1.03,2.47-0.7c0.82,0.63,1.31,1.59,1.34,2.62
				c-0.25,1.32-0.74,2.58-1.45,3.72c-0.98,1.91-2.07,3.76-3.48,6.31c2.39,0,4.09-0.01,5.8,0c1.93,0.01,3.84-0.02,5.76,0.05
				c1.24-0.1,2.33,0.81,2.44,2.04c0.01,0.06,0.01,0.13,0.01,0.19c0.1,1.67-0.87,2.52-2.47,2.63c-3.93,0.26-7.86,0.47-12.53,0.75
				c1.64,4.25,3.7,7.56,5.39,11.03c0.3,0.6,0.81,1.11,1.1,1.72c0.57,1.25,0.52,2.66-0.78,3.17c-1.12,0.28-2.3,0.14-3.32-0.4
				c-0.74-0.36-1.17-1.45-1.64-2.26c-1.71-2.92-3.37-5.86-5.38-9.35c-1.74,2.87-3.25,5.35-4.74,7.85c-0.42,0.7-0.7,1.48-1.15,2.16
				c-1.02,1.58-2.92,2.26-4.17,1.4c-1.5-1.03-1.53-2.42-0.65-3.92c1.8-3.04,3.59-6.08,5.37-9.14c0.27-0.46,0.42-0.98,0.89-2.08
				c-1.99-0.02-3.66-0.05-5.34-0.06c-1.92-0.02-3.84,0.02-5.76-0.02c-1.61-0.03-2.64-0.77-2.62-2.46s1.1-2.37,2.68-2.45
				c0.69,0.02,1.37,0.01,2.06-0.04C995.82,388.94,998.25,388.45,1000.65,387.8z"/>
			<path id="Path_519-2" class="st0" d="M675.88,574.84c-1.06-0.02-1.75,0-2.44-0.04c-1.58-0.11-2.63-0.83-2.61-2.52
				c0.02-1.7,1.14-2.36,2.71-2.39c2.33-0.04,4.67-0.02,7.01-0.05c0.95-0.02,1.89-0.1,2.96-0.16c0.37-1.91-0.86-3.15-1.6-4.51
				c-0.91-1.67-1.94-3.28-3.01-4.85c-0.99-1.44-0.56-2.55,0.63-3.56c1.35-1.15,2.67-0.74,3.56,0.48c1.6,2.19,2.99,4.52,4.48,6.79
				c0.57,0.87,1.19,1.7,2.18,3.12c1.35-1.92,2.43-3.4,3.44-4.92c0.9-1.36,1.53-2.96,2.66-4.08c0.7-0.71,2.36-1.29,3.12-0.94
				c0.78,0.36,1.23,1.89,1.39,2.97c0.1,0.66-0.55,1.47-0.95,2.16c-1.36,2.32-2.77,4.62-4.54,7.58c3.71,0,6.92,0.01,10.12,0
				c1.4,0,2.82-0.02,3.54,1.48c0.99,2.06-0.28,4.05-2.81,4.14c-3.42,0.12-6.84,0.03-10.99,0.03c1.52,2.63,2.76,4.8,4.03,6.95
				c1.13,1.7,2.17,3.46,3.1,5.27c0.62,1.4,0.58,3.08-1.17,3.86c-1.45,0.65-2.65,0.09-3.48-1.29c-0.41-0.7-0.96-1.32-1.38-2.03
				c-1.19-1.98-2.32-4.01-3.53-5.97c-0.7-1.13-1.51-2.18-2.62-3.77c-1.53,2.38-2.81,4.38-4.11,6.38c-0.56,0.93-1.19,1.83-1.86,2.68
				c-2.09,2.45-3.01,2.34-5.48-0.77c2.09-3.61,4.26-7.34,6.55-11.3C681.9,574.13,679.01,575.14,675.88,574.84z"/>
			<path id="Path_530-2" class="st0" d="M1121.42,374.62c2.51,0.54,2.83,1.87,1.87,3.69c-1.46,2.77-2.95,5.52-4.42,8.28
				c-0.37,0.69-0.7,1.4-1.36,2.71h7.69c1.1,0,2.2,0,3.3,0.02c1.57,0.02,2.73,0.62,2.79,2.32c0.07,1.94-1.21,2.58-2.94,2.61
				c-1.93,0.03-3.84,0-5.77,0.04c-1.32,0.02-2.65,0.11-4.19,0.18c0.96,5.59,7.21,8.71,6.22,14.68c-3.63,0.76-3.99,0.64-5.59-1.95
				c-1.92-3.1-3.81-6.21-5.99-9.78c-1.5,2.52-2.74,4.56-3.95,6.62c-0.49,0.82-0.85,1.71-1.4,2.49c-0.96,1.33-2.27,2.15-3.88,1.32
				c-1.73-0.89-1.5-2.42-0.77-3.88c0.85-1.7,1.77-3.37,2.69-5.04c0.7-1.29,1.45-2.56,2.58-4.56c-2.4-0.03-4.23-0.06-6.05-0.08
				c-1.51-0.02-3.02,0-4.53-0.01c-3.99-0.02-5.13-0.61-5.04-2.58c0.08-1.87,1.17-2.38,5.25-2.39c2.2-0.01,4.39,0.02,6.59-0.01
				c0.8-0.01,1.6-0.12,3.13-0.25c-1.46-2.39-2.69-4.41-3.91-6.43c-0.69-1.16-1.68-2.29-1.89-3.55c-0.13-1.15,0.26-2.3,1.06-3.15
				c1.2-1,2.62-0.46,3.5,0.88c1.35,2.04,2.65,4.12,3.98,6.17c0.58,0.9,1.19,1.77,1.93,2.88c2.44-1.87,3.11-4.56,4.5-6.77
				C1117.93,377.3,1118.34,374.83,1121.42,374.62z"/>
			<path id="Path_533-2" class="st0" d="M700.5,743.83c-1.17,1.84-2.18,3.4-3.67,5.68c2.54,0.04,4.38,0.08,6.23,0.1
				c1.1,0.02,2.2-0.02,3.3,0.05c1.34,0.06,2.37,1.18,2.31,2.51c-0.05,1.19-0.98,2.16-2.17,2.28c-1.92,0.14-3.85,0-5.77,0.15
				c-1.86,0.14-3.7,0.5-6.32,0.86c2.29,3.52,4.28,6.42,6.08,9.42c0.78,1.25,1.31,2.64,1.57,4.09c0.01,0.91-0.45,1.77-1.22,2.27
				c-0.87,0.24-1.81,0.03-2.49-0.57c-1.46-1.79-2.82-3.66-4.08-5.59c-1.14-1.62-2.24-3.27-3.73-5.46c-2.39,3.45-4.3,6.37-6.39,9.15
				c-0.66,0.97-1.63,1.69-2.76,2.05c-2.41,0.49-3.72-1.27-2.56-3.43c1.22-2.27,2.77-4.37,4.18-6.53c1.03-1.57,2.06-3.15,3.59-5.47
				c-2.58,0-4.4,0.01-6.23,0c-2.47,0.08-4.95,0.03-7.41-0.17c-0.78-0.09-1.79-1.23-2.03-2.08c-0.31-1.06,0.3-2.17,1.38-2.48
				c0.19-0.05,0.38-0.08,0.58-0.08c1.64-0.17,3.3-0.04,4.94-0.18c1.87-0.15,3.73-0.46,5.72-0.71c-0.74-4.15-5.63-6.35-4.24-10.92
				c2.4-1.24,4-0.35,5.26,1.6c1.4,2.18,2.76,4.38,4.18,6.54c0.42,0.64,0.99,1.19,1.82,2.2c1.28-2.01,2.33-3.69,3.42-5.35
				c0.82-1.25,1.68-2.49,2.54-3.72c1.79-2.58,3-3.18,4.49-2.24c1.39,0.88,1.43,2.56,0.07,5.08
				C700.99,743.12,700.81,743.33,700.5,743.83z"/>
			<path id="Path_544-2" class="st0" d="M820.97,531.49c-1.01,1.48-1.69,2.93-2.82,3.83c-0.79,0.63-2.48,1.01-3.25,0.57
				c-0.77-0.43-1.04-1.98-1.22-3.08c-0.09-0.54,0.46-1.23,0.82-1.8c2.72-4.24,5.45-8.46,8.21-12.68c0.29-0.46,0.62-0.9,0.98-1.3
				c0.99-1.24,2.77-1.53,4.1-0.67c1.55,0.97,1.39,2.49,0.46,3.93C825.87,523.94,823.49,527.58,820.97,531.49z"/>
			<path id="Path_574-2" class="st0" d="M1134.16,349.65c2.18-3.49,4.24-6.69,6.21-9.95c0.9-1.5,2.02-2.24,3.73-1.55
				c1.38,0.56,1.91,2.58,0.9,4.29c-2.9,4.92-5.89,9.81-9.04,14.56c-0.49,0.73-2.22,1.2-3.16,0.97c-1.64-0.4-1.75-2.11-1.28-3.4
				C1132.27,352.86,1133.15,351.22,1134.16,349.65z"/>
			<path id="Path_578-2" class="st0" d="M821.61,353.19c-0.76,1.24-1.6,2.44-2.49,3.59c-0.8,0.91-1.86,1.77-3.2,0.85
				c-1.41-0.95-1.93-2.26-1.17-3.87c0.27-0.47,0.58-0.92,0.92-1.34c2.41-3.61,4.8-7.24,7.23-10.83c0.55-0.78,1.18-1.5,1.86-2.16
				c0.96-0.98,2.02-2.13,3.5-1.01c1.43,1.08,1.21,2.64,0.56,4.07c-0.45,0.84-0.96,1.64-1.54,2.39
				C825.46,347.57,823.62,350.27,821.61,353.19z"/>
			<path id="Path_589-2" class="st0" d="M1062.75,394.2c-3.28,0.02-6.17,0.05-9.05,0.06c-0.82,0.02-1.65,0-2.47-0.07
				c-1.25,0.01-2.28-0.99-2.28-2.23c0-0.06,0-0.11,0.01-0.17c-0.13-1.2,0.74-2.28,1.95-2.41c0.09-0.01,0.19-0.01,0.29-0.01
				c5.74-0.32,11.49-0.59,17.23-0.81c1.39-0.05,2.65,0.66,2.51,2.07c-0.09,1-0.93,2.49-1.76,2.75
				C1067.26,393.99,1065.16,393.97,1062.75,394.2z"/>
			<path id="Path_600-2" class="st0" d="M749.68,672.23c2.6,4.35,5.03,8.44,7.5,12.5c0.86,1.43,1.17,2.81-0.23,4.02
				c-1.23,1.05-3.33,0.52-4.47-1.32c-2.72-4.39-5.38-8.83-7.85-13.36c-0.57-1.05-0.29-2.56-0.41-3.91
				C746.9,669.1,748.55,669.6,749.68,672.23z"/>
			<path id="Path_605-2" class="st0" d="M739.71,672.54c-2.47,4.71-4.82,9.15-7.2,13.56c-0.32,0.6-0.81,1.09-1.16,1.67
				c-0.96,1.6-2.42,1.87-3.84,0.98c-1.32-0.81-1.42-2.16-0.64-3.57c2.54-4.65,4.94-9.37,7.6-13.94c0.72-0.91,1.78-1.49,2.94-1.62
				C739.12,669.41,739.66,670.78,739.71,672.54z"/>
			<path id="Path_614-2" class="st0" d="M737.82,575.59c-1.07-0.01-1.75,0-2.44-0.03c-1.83-0.08-2.74-1.05-2.73-2.85
				c0-1.83,0.97-2.73,2.79-2.77c1.23-0.02,2.47-0.02,3.7-0.02c3.7,0,7.4-0.07,11.09,0.02c2.3,0.05,3.13,0.94,3.11,2.86
				c-0.02,1.9-0.84,2.71-3.21,2.77C746.15,575.66,742.17,575.59,737.82,575.59z"/>
			<path id="Path_621-2" class="st0" d="M735.63,389.37c5.16-0.17,9.95-0.34,14.75-0.5c1.91-0.06,3.48,1.05,3.67,2.56
				c0.21,1.69-0.82,2.63-3.19,2.79c-4.37,0.29-8.75,0.53-13.12,0.79c-0.55,0.03-1.1,0.03-1.65,0.01c-2.36-0.11-4.08-1.12-4.06-2.62
				C732.07,390.43,733.44,389.6,735.63,389.37z"/>
			<path id="Path_628-2" class="st0" d="M977.56,348.77c-1.69-2.5-3.3-4.7-4.71-7.03c-1.21-1.99-0.99-3.56,0.31-4.35
				c1.32-0.81,2.94-0.37,4.2,1.44c2.88,4.13,5.65,8.34,8.46,12.5c0.94,1.39,1.2,2.79-0.17,4.02c-1.09,0.98-3.2,0.56-4.3-0.91
				C980.06,352.69,978.93,350.83,977.56,348.77z"/>
			<path id="Path_634-2" class="st0" d="M815.28,432.2c0.02-1.6-0.56-3.21,1.43-3.59c1.38-0.33,2.81,0.32,3.45,1.57
				c2.76,4.35,5.62,8.65,8.43,12.97c0.85,1.29,0.96,2.64-0.32,3.65c-1.24,0.98-2.61,0.7-3.68-0.43c-0.75-0.79-1.42-1.64-2.02-2.54
				C820.14,440.07,817.74,436.29,815.28,432.2z"/>
			<path id="Path_639-2" class="st0" d="M1055.18,471.39c0.88,1.9,1.88,3.59-0.16,4.96c-1.48,0.99-3.22,0.15-4.54-2.22
				c-2.18-3.91-4.28-7.86-6.41-11.81c-0.2-0.36-0.34-0.74-0.52-1.1c-0.8-1.53-0.09-2.61,1.13-3.48c1.5-1.07,2.69-0.29,3.48,0.91
				c1.42,2.15,2.67,4.41,3.91,6.66C1053.11,467.21,1054.05,469.17,1055.18,471.39z"/>
			<path id="Path_643-2" class="st0" d="M883.83,417.42c2.41-4.76,4.78-9.2,7.1-13.67c0.77-1.49,1.75-2.48,3.55-1.94
				c1.49,0.44,2.27,2.21,1.32,4.12c-2.34,4.76-4.87,9.43-7.52,14.02c-0.38,0.67-1.91,1.12-2.8,0.98
				C883.77,420.69,883.67,419.16,883.83,417.42z"/>
			<path id="Path_647-2" class="st0" d="M891.09,392.65c-0.38,1.99-1.61,2.36-3.1,2.36c-4.51-0.01-9.02,0.01-13.53-0.01
				c-0.54,0-1.25,0.05-1.57-0.25c-0.84-0.78-2.08-1.77-2.06-2.64c0.02-0.88,1.32-1.8,2.18-2.56c0.34-0.29,1.05-0.19,1.59-0.19
				c4.1-0.02,8.2,0.01,12.3-0.02C889.07,389.33,890.63,390.05,891.09,392.65z"/>
			<path id="Path_660-2" class="st0" d="M906.69,400.93c1.12,0.66,2.13,1.49,2.98,2.47c2.42,3.42,4.74,6.92,7.01,10.44
				c0.91,1.41,1.6,3.1-0.09,4.36c-1.65,1.23-3.22,0.38-4.23-1.05c-2.8-3.97-5.59-7.97-8.16-12.1
				C903.03,403.17,903.46,402.68,906.69,400.93z"/>
			<path id="Path_664-2" class="st0" d="M737.88,470.87c0.52,1.14,1.21,2.02,1.18,2.87c-0.03,0.93-0.52,2.28-1.22,2.63
				c-0.74,0.38-2.04-0.05-2.98-0.42c-0.55-0.22-0.95-0.96-1.27-1.54c-2.22-4.04-4.45-8.08-6.57-12.17c-1-1.93-0.62-3.69,0.82-4.12
				c1.6-0.64,3.42,0.12,4.07,1.7c0,0.01,0.01,0.02,0.01,0.03C733.81,463.47,735.8,467.03,737.88,470.87z"/>
			<path id="Path_694-2" class="st0" d="M905.37,378.88c2-2.93,3.81-5.63,5.64-8.3c0.45-0.67,0.91-1.53,1.57-1.8
				c0.91-0.36,2.27-0.64,2.96-0.21c0.68,0.42,0.82,1.77,1.07,2.73c0.08,0.32-0.22,0.77-0.44,1.1c-2.72,4.04-5.36,8.13-8.25,12.05
				c-1.44,1.94-2.88,2.01-4.05,0.53c-0.6-0.82-0.83-1.85-0.63-2.84C903.54,381.05,904.5,380.12,905.37,378.88z"/>
			<path id="Path_696-2" class="st0" d="M751.03,502.72c-1.95-3.12-3.72-6-5.47-8.89c-0.35-0.58-0.67-1.18-0.94-1.8
				c-0.59-1.15-0.12-2.56,1.04-3.14c0.13-0.06,0.27-0.12,0.4-0.16c0.98-0.27,2.03-0.05,2.82,0.58c1.2,1.46,2.27,3.03,3.19,4.68
				c1.37,2.17,2.76,4.34,4.02,6.58c0.64,1.02,1.07,2.16,1.24,3.35c0.01,0.89-0.42,1.73-1.15,2.25c-0.96,0.34-2.03,0.25-2.91-0.26
				C752.35,505.24,751.87,503.96,751.03,502.72z"/>
			<path id="Path_715-2" class="st0" d="M732.58,484.43c-5.3,0.55-10.32,0.94-15.35,1.26c-1.76,0.12-3.34-0.2-3.54-2.42
				c-0.17-1.9,0.83-3.06,3.37-3.15c4.79-0.17,9.59-0.22,14.38-0.06C733.97,480.14,734.38,481.65,732.58,484.43z"/>
			<path id="Path_716-2" class="st0" d="M1195.96,395.03c-1.34-0.03-2.45,0.22-3.21-0.18c-0.9-0.47-1.56-1.29-1.81-2.27
				c0.06-1,0.55-1.93,1.35-2.56c0.82-0.47,1.77-0.68,2.72-0.6c3.82-0.08,7.65-0.08,11.48-0.07c0.68-0.09,1.36,0.02,1.97,0.32
				c0.8,0.64,1.83,1.55,1.86,2.38c0.03,0.76-0.99,1.8-1.82,2.27c-0.98,0.46-2.06,0.68-3.14,0.64
				C1202.36,395.04,1199.35,395.01,1195.96,395.03z"/>
			<path id="Path_728-2" class="st0" d="M732.64,641.83c1.57,2.87,3.04,5.45,4.45,8.06c0.55,0.93,0.97,1.92,1.24,2.97
				c0.36,1.37-0.47,2.76-1.85,3.12c-0.02,0.01-0.05,0.01-0.07,0.02c-1.04,0.09-2.06-0.34-2.72-1.14c-2.52-4.32-4.83-8.75-7.2-13.15
				c-0.71-1.32-0.09-2.32,0.91-3.19c1.24-1.08,2.4-0.36,3.28,0.41C731.48,639.6,731.92,640.66,732.64,641.83z"/>
			<path id="Path_730-2" class="st0" d="M728.89,506.6c-1.64-1.57-1.39-3.15-0.59-4.66c1.91-3.58,3.9-7.12,5.89-10.66
				c0.33-0.59,0.73-1.46,1.22-1.56c1.22-0.31,2.5-0.31,3.72-0.02c0.39,0.12,0.7,2.02,0.34,2.77c-2.17,4.36-4.55,8.61-6.86,12.91
				C731.85,506.78,730.69,507.19,728.89,506.6z"/>
			<path id="Path_733-2" class="st0" d="M750.97,653.39c-0.95,1.16-1.57,2.34-2.54,2.93c-0.9,0.44-1.96,0.47-2.89,0.09
				c-1.09-0.51-1.55-1.8-1.03-2.87c0.04-0.09,0.09-0.18,0.15-0.26c0.11-0.25,0.23-0.49,0.37-0.73c2.58-3.8,5.14-7.62,7.78-11.39
				c0.52-0.59,1.12-1.11,1.77-1.56c3.79,1.52,4.09,2.18,2.19,5.11C754.93,647.54,753.03,650.34,750.97,653.39z"/>
			<path id="Path_735-2" class="st0" d="M1204.06,370.52c1.95-2.99,3.28-3.24,4.82-0.81c2.47,3.91,4.66,7.99,6.92,12.03
				c0.8,1.43,1,2.9-0.6,3.96c-1.32,0.87-3.08,0.36-4.13-1.52C1208.63,379.79,1206.39,375.29,1204.06,370.52z"/>
			<path id="Path_737-2" class="st0" d="M1205.51,410.45c1.71-2.32,3.23-4.42,4.74-6.52c2.26-3.14,3.12-3.16,5.96-0.05
				c-1.15,4.13-4.5,6.98-6.69,10.54c-0.65,1.2-1.5,2.28-2.51,3.19c-0.82,0.6-1.87,0.81-2.86,0.57c-1.3-0.53-2.21-1.77-1.39-3.32
				C1203.53,413.41,1204.47,412.07,1205.51,410.45z"/>
			<path id="Path_739-2" class="st0" d="M917.64,390.11c3.54,0.01,6.68,0.02,9.81,0.02c1.63,0,3.05,0.3,3.25,2.25
				c0.17,1.65-0.88,2.61-3.27,2.65c-5.04,0.09-10.09,0.01-15.14,0.04c-1.6,0.1-3.06-0.89-3.55-2.39c0.4-1.61,1.92-2.69,3.59-2.56
				C913.96,390.12,915.6,390.11,917.64,390.11z"/>
			<path id="Path_745-2" class="st0" d="M1031.97,484.81c-1.75-3.16-1.36-4.51,1.24-4.74c4.6-0.4,9.22-0.59,13.84-0.83
				c1.8-0.09,3.29,0.34,3.45,2.52c0.13,1.87-0.91,3.01-3.44,3.08C1042.15,484.98,1037.23,484.89,1031.97,484.81z"/>
			<path id="Path_752-2" class="st0" d="M892.32,383.26c-2.1-3.7-4.06-7.12-5.95-10.58c-0.44-0.81-0.99-1.79-0.88-2.6
				c0.13-0.92,0.78-2.2,1.53-2.49c1.01-0.24,2.08,0.05,2.83,0.77c2.65,4.28,5.11,8.67,7.56,13.07c0.74,1.34-0.07,2.36-1.12,3.15
				C894.59,385.83,893.51,384.72,892.32,383.26z"/>
			<path id="Path_771-2" class="st0" d="M980.1,443.08c-0.79,1.3-1.19,2.59-2.07,3.33c-0.84,0.6-1.9,0.81-2.91,0.57
				c-0.63-0.19-1.1-1.38-1.35-2.21c-0.12-0.67-0.01-1.35,0.32-1.94c2.05-3.97,4.1-7.93,6.34-11.8c0.6-0.84,1.54-1.39,2.58-1.51
				c1.79-0.13,2.85,1.77,2.07,3.92c-0.82,2-1.77,3.95-2.83,5.84C981.62,440.49,980.94,441.66,980.1,443.08z"/>
			<path id="Path_783-2" class="st0" d="M769.43,480.9c1.71,1.94,1.18,3.25-0.72,4.05c-1,0.42-2.08,0.65-3.16,0.67
				c-3.16,0.1-6.31,0.06-9.47,0.07c-0.55,0-1.28,0.16-1.61-0.12c-0.97-0.81-2.48-1.83-2.47-2.74c0.01-0.91,1.5-2.42,2.53-2.6
				c2.45-0.32,4.92-0.38,7.38-0.18C764.44,480.19,766.95,480.46,769.43,480.9z"/>
			<path id="Path_784-2" class="st0" d="M1229.28,405.2c2.07,3.37,3.99,6.48,5.87,9.62c1.21,2.01,1.03,3.08-0.5,4.13
				c-1.75,1.19-2.97,0.12-3.8-1.12c-2.58-3.82-5.06-7.7-7.36-11.67c-0.36-0.62,0.13-2.19,0.74-2.75c0.85-0.54,1.89-0.68,2.85-0.39
				C1227.9,403.26,1228.45,404.27,1229.28,405.2z"/>
			<path id="Path_793-2" class="st0" d="M1074.68,462.18c-1.63,3-3.09,5.74-4.64,8.44c-0.62,1.19-1.4,2.3-2.33,3.27
				c-0.55,0.52-1.9,0.91-2.42,0.6c-0.76-0.46-1.2-1.56-1.56-2.47c-0.09-0.53,0.01-1.08,0.31-1.54c1.87-3.59,3.75-7.19,5.7-10.74
				c0.73-1.32,1.77-2.77,3.47-2.16C1075.15,458.27,1075.66,459.95,1074.68,462.18z"/>
			<path id="Path_794-2" class="st0" d="M755.76,466.08c-1.46,2.64-2.83,5-4.13,7.38c-0.78,1.4-1.93,1.98-3.42,1.43
				c-1.61-0.59-1.73-2.04-1.41-3.42c0.29-1.04,0.72-2.05,1.27-2.98c1.42-2.63,2.86-5.25,4.36-7.83c0.47-0.81,1.03-1.8,1.8-2.12
				c0.96-0.39,2.04-0.38,3,0.02c0.68,0.62,0.99,1.54,0.84,2.44C757.41,462.75,756.65,464.45,755.76,466.08z"/>
			<path id="Path_805-2" class="st0" d="M1220.65,383.44c0.25-1.32,0.36-2.48,0.93-3.34c1.94-2.95,3.99-5.84,6.1-8.68
				c1.27-1.71,3.04-2.18,4.24-1.21c1.47,1.19,1.21,2.69,0.31,4.02c-2.2,3.28-4.39,6.56-6.8,9.69
				C1224.03,385.75,1223.08,385.59,1220.65,383.44z"/>
			<path id="Path_807-2" class="st0" d="M1082.37,484.9c-2.98,0.02-5.6,0.04-8.21,0.04c-0.82,0.04-1.65,0.02-2.47-0.07
				c-1.47-0.22-2.88-1.02-2.6-2.54c0.16-0.88,1.53-1.7,2.53-2.22c0.65-0.34,1.62-0.05,2.44-0.12c2.04-0.17,4.07-0.5,6.11-0.53
				c1.76-0.09,3.52,0.06,5.24,0.46c0.98,0.36,1.71,1.19,1.95,2.19c0.01,0.82-0.97,1.9-1.81,2.42
				C1084.83,484.97,1083.7,484.8,1082.37,484.9z"/>
			<path id="Path_810-2" class="st0" d="M1246.28,394.79c-4.85,0.19-9.36,0.25-13.88,0.29c-0.41,0.01-0.82-0.01-1.23-0.06
				c-1.41-0.18-2.28-0.91-2.3-2.37c-0.02-1.46,0.78-2.41,2.2-2.43c4.79-0.09,9.59-0.19,14.38,0.02
				C1247.85,390.34,1248.14,391.81,1246.28,394.79z"/>
			<path id="Path_812-2" class="st0" d="M730.87,665.9c-4.91,0.26-9.54,0.37-14.16,0.4c-0.81,0-1.6-0.21-2.3-0.6
				c-1.58-0.95-1.61-2.56-0.09-3.58c0.55-0.39,1.19-0.63,1.86-0.68c4.36-0.05,8.73-0.16,13.08,0.05
				C732.11,661.61,732.69,663.19,730.87,665.9z"/>
			<path id="Path_817-2" class="st0" d="M757.56,666.33h-4.29c-1.1-3.94-0.67-4.79,2.51-4.89c3.97-0.12,7.94-0.05,11.91-0.05
				c1.75-0.01,2.98,0.63,2.9,2.57c-0.07,1.7-1.25,2.29-2.79,2.32C764.52,666.31,761.23,666.31,757.56,666.33z"/>
		</g>
	</g>
</g>
</svg>
