<?xml version="1.0" encoding="utf-8"?>
<!-- Generator: Adobe Illustrator 27.0.1, SVG Export Plug-In . SVG Version: 6.00 Build 0)  -->
<svg version="1.1" id="Layer_1" xmlns="http://www.w3.org/2000/svg" xmlns:xlink="http://www.w3.org/1999/xlink" x="0px" y="0px"
	 viewBox="0 0 1500 1068" style="enable-background:new 0 0 1500 1068;" xml:space="preserve">
<style type="text/css">
	.st0{fill:#D9D9D1;}
</style>
<path id="Path_443" class="st0" d="M1492,795.1c-2.4,2.9-5.3,4.6-7,7.1c-5.3,7.5-10.1,15.4-15.2,23.1c-1.3,1.9-2.7,3.7-4.3,5.4
	c-2.8,3-6.3,4.1-9.7,1.3c-3-2.5-2.5-5.8-0.4-8.9c5.1-7.7,10.1-15.4,15.2-23.1c2.4-3.6,4.7-7.2,7.1-10.7c3.2-4.7,7.4-6.4,13.5-3.4
	C1491.9,789,1492.1,792,1492,795.1z"/>
<path id="Path_448" class="st0" d="M1492,536.1c-5.7,1.7-9.5-0.4-12.2-5.4c-5-9.6-10.4-19-15.5-28.5c-1.1-1.6-1.8-3.5-2.1-5.4
	c0-2,0.8-5.1,2.2-5.8c2.3-1.1,5-1,7.2,0.1c2.5,1.8,4.1,5,5.9,7.7c4.4,6.8,8.8,13.6,13.8,20.5C1491.9,524.8,1492.1,530.4,1492,536.1z
	"/>
<path id="Path_457" class="st0" d="M1492,212.8c-2.1,2.2-4.6,3.2-6.1,5c-4.8,5.4-9.2,11.1-13.7,16.8c-2.7,3.4-5.8,5.6-10.1,2.7
	c-3.1-2.1-3.4-6.3-0.4-10.4c5.6-7.7,11.3-15.3,17.3-22.7c3-3.7,7.1-4.5,12.3-2.4C1491.9,205.3,1492.1,209.1,1492,212.8z"/>
<path id="Path_474" class="st0" d="M1133.1,980.9c1.3-3,2.2-5.3,3.7-9c-4.9-0.5-8.7-1.1-12.6-1.3c-4-0.2-8.1-0.1-12.1-0.1
	c-4.1,0-7.5-0.9-7.8-5.7c-0.3-4,2.2-6.1,8.2-6.3c5.7-0.2,11.4,0.1,17.1-0.1c3.3-0.4,6.5-0.9,9.7-1.7c-2.9-5.3-5-9.3-7.2-13.3
	c-3-5.5-6-11-8.9-16.6c-1.9-3.7,0-6.3,2.9-8.4c3.1-2.2,5.9-0.9,8,1.5c2.1,2.5,4,5.2,5.7,8.1c3.8,6.5,7.5,13.1,12.1,21.1
	c3.3-5.4,6-9.8,8.7-14.1c2.5-4.6,5.5-9,8.8-13.1c2.1-1.9,5.1-2.6,7.9-1.8c1.9,0.9,3.5,4.8,3.2,7.2c-0.3,3-2.4,6-4,8.8
	c-3.7,6.5-7.5,12.9-12.1,20.7c10.3,0,18.6-0.2,26.9,0.1c3.3,0.1,6.6,0.8,9.7,1.9c2.8,0.6,4.6,3.4,3.9,6.2c-0.1,0.3-0.2,0.6-0.3,0.9
	c-1.1,2.2-3.2,3.8-5.7,4.4c-6.3,0.6-12.7,0.3-19.1,0.3c-4,0-8,0-13.9,0c2.2,5.2,3.6,9,5.4,12.6c1.8,3.5,4,6.8,6,10.2
	c2.4,3.9,1.2,7-2.3,9.3c-4,2.7-7.5,0.7-9.6-2.3c-3.6-5.1-6.5-10.7-9.6-16.1c-1-1.6-2-3.3-3.9-6.3c-3.7,5.7-6.8,10.5-9.8,15.3
	c-2.3,3.6-4.4,7.4-6.9,10.8c-2.3,3.2-5.5,4.9-9.6,3.1c-3.3-1.5-4.4-6.2-2-10.4C1126.3,991.5,1129.6,986.6,1133.1,980.9z"/>
<path id="Path_494" class="st0" d="M1038.2,701.4c-5.4-7.9-10.3-15.2-16.1-23.6c-5.3,8.4-9.8,15.6-14.3,22.9
	c-4.1,6.7-7.5,8.8-11.5,6.8c-4-1.9-4.2-5.9-0.2-13c2.9-5.2,6.2-10.1,9.3-15.2c1.8-3,3.4-6.2,5.8-10.6c-9.2,0-16.8,0.2-24.4-0.1
	c-2.9,0-5.9-0.7-8.5-2c-1.8-1.3-2.7-3.5-2.6-5.7c0.4-1.6,2.9-3.2,4.9-3.9c1.8-0.7,4-0.1,6-0.3c5.9-0.6,11.8-1.3,19.7-2.2
	c-4.6-6.8-8.3-12.1-11.8-17.5s-3.3-9.1,0.3-11.2c3.4-1.9,8.3-0.5,11.3,3.7c2.5,3.5,4.6,7.3,6.9,10.9c2.3,3.5,4.8,7,8.2,11.9
	c4-6.1,7.2-10.8,10.4-15.7c1.3-2.3,2.7-4.6,4.2-6.7c5-6.2,7.2-6,13.8,1.1c-3.8,7.1-7.8,14.5-12.6,23.5c6.8,0.1,12,0.2,17.2,0.2
	c3.4,0,6.8-0.2,10.1,0.1c4.1,0.4,7.3,2.7,7.2,6.8c-0.1,4.1-3.4,6.3-7.5,6.6c-3,0.2-6.1,0.1-9.1,0.1h-22.1
	c7.7,12.2,14.5,22.8,21,33.1C1046.7,709.9,1046.5,709.9,1038.2,701.4z"/>
<path id="Path_505" class="st0" d="M1035.8,56.4c-1.4,2.5-2.4,4.5-3.8,7.4h20c2.4,0,4.7,0,7.1,0.1c3.9,0.1,6.5,1.7,6.5,5.8
	c0,4.1-2.5,5.8-6.4,6.1c-7.6,0.5-15.2,1.1-24.5,1.8c2.8,5.8,4.8,10.2,6.9,14.5c2,4.1,4.1,8.3,6.4,12.3c2.2,3.9,1.2,7.1-2.4,9.3
	c-3.8,2.2-6.5-0.1-8.3-3c-3.5-5.6-6.5-11.4-9.9-17.1c-1.9-3.3-4.2-6.4-7-10.6c-4.2,6.8-7.6,12.4-11.1,17.9c-1.3,2.3-3,4.4-5,6.1
	c-1.6,1.1-4.7,2-6.2,1.2c-1.8-1.3-2.9-3.3-2.9-5.5c0.5-3.2,1.6-6.3,3.2-9.1c2.5-4.9,5.4-9.6,8.9-15.8c-8.8,0-15.8,0-22.7,0
	c-2.4,0-5.1,0.5-6.9-0.4c-2-1-4.4-3.6-4.4-5.5c0.4-2.4,2-4.5,4.3-5.5c2.6-1,6-0.4,9-0.6c7.2-0.6,14.5-1.3,23.5-2.1
	c-4.9-9.5-9.1-17.6-13.2-25.7c-0.6-1.2-1.5-2.2-2.2-3.3c-2.2-3.5-2.5-7.1,1.5-9.4c3.9-2.2,7.3-0.4,9.5,2.9
	c3.4,5.3,6.4,10.7,9.5,16.2c1.8,3,3.4,6.1,6,10.6c4.6-7.7,8.4-14.1,12.2-20.5c1.2-2,1.8-5,3.6-5.8c2.8-1.4,6-1.8,9.1-1.1
	c2.8,1,3.8,4.4,1.9,7.6C1044.1,42,1040.2,48.9,1035.8,56.4z"/>
<path id="Path_510" class="st0" d="M502.5,649.5c-3.1-5.1-6-9.6-8.5-14.2c-1.7-3.1-2.1-6.6,1.3-8.8c3.7-2.4,7.3-1.1,9.6,2.2
	c4.3,6.2,8.2,12.7,12.3,19.1c1,1.6,2.1,3.1,3.9,5.7l10.2-16.6c1.2-2,2-4.8,3.8-5.6c2.6-1.1,5.5-1.3,8.2-0.4c2.5,0.8,3.9,3.5,3.1,5.9
	c-0.2,0.5-0.4,1-0.7,1.4c-1.9,3.1-3.8,6.2-5.5,9.4c-1.7,3.1-3.2,6.3-5.6,10.9c7.7,0.1,13.9,0.3,20.1,0.4c3,0,6.1,0,9.1,0.1
	c4.1,0,7.6,1.1,7.6,5.9c0.1,4.8-3.2,6-7.4,6c-7.1,0-14.1,0-21.2,0c-2.9,0-5.7,0.4-10,0.7c4.4,7.2,8.2,13.2,11.9,19.3
	c1.9,3.1,3.7,6.2,5.5,9.4c2.1,3.7,0.4,6.3-2.6,8.5c-3.6,2.6-6.6,0.8-8.6-2.1c-4.5-6.5-8.5-13.3-12.8-20c-1.2-1.9-2.6-3.7-4.9-7
	c-3.5,5.4-6.3,10-9.3,14.4c-2.7,4.5-5.8,8.8-9.1,12.9c-1.4,1.6-5.8,3.1-6.7,2.3c-2-1.9-3.2-4.6-3.2-7.4c0.1-2.7,2-5.5,3.5-8
	c4.3-7.3,8.8-14.5,14.1-23.3c-9.1,0-16.6,0.1-24.2,0c-7.2-0.1-11.6-2.8-11.6-6.8s4.5-6.8,11.5-6.9c6.3,0,12.5,0,20,0
	C504.9,654,503.9,652,502.5,649.5z"/>
<path id="Path_511" class="st0" d="M341.9,347c1.1,1.7,1.8,2.8,3.4,5.1c3-4.1,5.7-7.6,8.2-11.2c2.9-4,5.4-8.4,8.5-12.2
	c5.1-6.2,7.2-5.9,13.8,1.5c-5.8,9.4-11.8,19.2-18.4,29.9c2.2,0.7,4.4,1.2,6.7,1.5c7.1,0.1,14.1,0,21.2,0c4.2,0,7.4,2,8.1,6.1
	c0.7,4.8-3.5,6.2-7,6.9c-4,0.6-8,0.8-12,0.7c-3.7,0.1-7.3,0-12.8,0c2.9,5,5.1,8.9,7.4,12.8c1.7,2.4,3.2,5,4.4,7.7
	c1,3.2,0.9,6.8-3,8.5c-3.6,1.6-6.5,0.3-8.6-2.9c-3-4.7-6.2-9.4-9.3-14.1c-2-3-4-6-6.7-10.1c-4,6-7.3,11.2-10.8,16.3
	c-2.5,3.9-5.4,7.5-8.5,10.9c-1.7,1.3-4,1.6-6.1,0.9c-1.9-1.1-3-3.1-3.2-5.3c0.6-3.2,1.7-6.3,3.4-9c2.3-4.2,5.1-8.2,8.7-13.6
	c-8.1,0-14.4,0-20.7,0c-4.1,0-7.3-1.1-7.7-5.8c-0.4-4.3,1.8-7,7.3-7.6c4.7-0.3,9.4-0.4,14.1-0.3c3.9,0,7.8,0,13.8,0
	c-5.2-8.3-9.3-14.9-13.4-21.4c-1.8-2.8-3.7-5.5-5.5-8.3c-2.1-3.2-2-6.6,1.1-8.8c2.8-2.3,7-1.9,9.3,0.8c0.2,0.2,0.3,0.4,0.5,0.7
	C332.9,333.1,337.1,339.8,341.9,347z"/>
<path id="Path_519" class="st0" d="M1445.1,954.8c2.6,0,4.3,0,6,0.1c3.9,0.3,6.4,2,6.4,6.1s-2.8,5.7-6.6,5.8
	c-5.7,0.1-11.4,0-17.2,0.1c-2.3,0-4.6,0.2-7.2,0.4c-0.9,4.6,2.1,7.6,3.9,10.9c2.2,4,4.8,7.9,7.4,11.7c2.4,3.5,1.4,6.2-1.5,8.6
	c-3.3,2.8-6.5,1.8-8.7-1.2c-3.9-5.3-7.3-10.9-11-16.4c-1.4-2.1-2.9-4.1-5.3-7.6c-3.3,4.6-5.9,8.2-8.4,11.9c-2.2,3.3-3.8,7.2-6.5,9.9
	c-1.7,1.7-5.8,3.1-7.7,2.3c-1.9-0.9-3-4.6-3.4-7.2c-0.2-1.6,1.3-3.6,2.3-5.2c3.3-5.6,6.8-11.2,11.1-18.3c-9.1,0-16.9,0-24.8,0
	c-3.4,0-6.9,0-8.7-3.6c-2.4-5,0.7-9.8,6.9-10c8.4-0.3,16.8-0.1,26.9-0.1c-3.7-6.4-6.8-11.6-9.9-16.8c-2.8-4.1-5.3-8.4-7.6-12.7
	c-1.5-3.4-1.4-7.4,2.9-9.3c3.5-1.6,6.5-0.2,8.5,3.1c1,1.7,2.3,3.2,3.4,4.9c2.9,4.8,5.7,9.7,8.7,14.4c1.7,2.7,3.7,5.3,6.4,9.1
	c3.7-5.8,6.9-10.6,10-15.4c1.4-2.2,2.9-4.4,4.6-6.5c5.1-5.9,7.4-5.7,13.4,1.9c-5.1,8.7-10.4,17.8-16,27.4
	C1430.3,956.5,1437.4,954,1445.1,954.8z"/>
<path id="Path_523" class="st0" d="M326.4,982.2c2.3-4,4.3-7.5,7-12.2c-3.3-1.2-6.7-2.1-10.1-2.7c-5-0.4-10.1,0.1-15.1-0.2
	c-5.2-0.2-9-3.3-8.4-6.6c0.8-4.4,4-5.5,8.2-5.4c8.4,0.1,16.8,0,27,0c-2.8-5.4-5-10-7.5-14.3c-2.6-4.6-5.8-8.9-8.3-13.5
	c-3.1-5.8-2.4-9.5,1.3-11.1c3.7-1.6,7.3,0.1,10.5,5.3c4.5,7.3,8.9,14.7,13.4,22c0.6,1.1,1.5,2.1,3,4.1c4.8-7.4,9-14.4,13.7-20.9
	c1.6-2.3,4-4.1,6.7-4.9c5.9-1.1,9,3.1,6.2,8.4c-2.6,5-5.9,9.6-8.7,14.4c-1.8,3-3.4,6.2-5.9,10.7h13.3c4.4,0,8.8-0.2,13.1,0.1
	c4.8,0.4,8.1,3.8,7.7,7.5c-0.4,4.7-4.2,5.6-8,5.9c-4,0.3-8.1,0.1-12.1,0.1c-3.6,0-7.2,0-12.9,0c3.5,6,6.2,10.4,8.7,14.8
	c1.5,2.6,3,5.1,4.5,7.7c1.8,3.2,2.5,6.5-1.5,8.4c-3.5,1.6-7.4,1.6-9.9-2c-2.8-4.1-5.1-8.5-7.8-12.7c-2-3.3-4.3-6.5-7.2-11
	c-2.9,4.2-5,7.4-7.1,10.6c-2.4,3.6-4.5,7.3-7.1,10.8c-2.5,3.3-6,4.6-9.7,2.1c-3.4-2.2-2.9-5.7-1.2-8.9
	C323.4,986.7,324.8,984.8,326.4,982.2z"/>
<path id="Path_529" class="st0" d="M504.2,76.1c-7.9,0-14.9,0-22,0c-4,0-7.5-0.8-8-5.5c-0.4-4,2.2-6.3,8.1-6.4
	c7.6-0.2,15.3,0,23.4,0c-2.2-14-17.4-21.5-15.2-35.9c8.8-2,9.8-1.7,13.7,4.5c4.7,7.5,9.3,15.1,14.7,23.8c3.8-6.4,6.9-11.6,10.1-16.8
	c1.2-2.3,2.7-4.5,4.3-6.6c2.4-2.8,6.2-3.9,8.9-1.3c1.7,2.2,2.3,5.1,1.5,7.8c-2.1,4.8-4.6,9.5-7.4,14c-1.7,3.1-3.3,6.2-5.6,10.5
	c9.6,0,17.6,0,25.6,0c2.3,0,4.7,0,7.1,0.2c3.3,0.3,5.7,3.1,5.4,6.4c-0.3,2.9-2.7,5.1-5.6,5.3c-5.4,0.3-10.7,0.2-16.1,0.2
	c-4.3,0-8.7,0-13.9,0c1.7,6.7,5.4,11.2,8.5,16.1c1.8,2.4,3.3,4.9,4.6,7.6c1.1,3.1,1.3,6.8-2.3,8.8c-3.9,2.2-7,0.8-9.3-2.9
	c-3-4.8-6.1-9.4-9.2-14.1c-1.6-2.4-3.3-4.7-5.8-8.1c-3.6,6.3-6.5,11.4-9.5,16.4c-1.9,3.5-4,6.8-6.5,9.9c-2,2.5-5.8,2.9-8.4,0.9
	c-0.2-0.2-0.4-0.3-0.6-0.5c-1.5-2-1.8-4.5-1-6.8c3.5-7.4,7.8-14.5,11.7-21.8C506.3,79.9,509,77.6,504.2,76.1z"/>
<path id="Path_533" class="st0" d="M1384.8,389.2c2.9-4.4,5.3-8.2,9-13.7c-6.2-0.1-10.7-0.2-15.3-0.2c-2.7,0-5.4,0-8.1-0.1
	c-3.3-0.1-5.8-2.9-5.7-6.1c0.1-2.9,2.4-5.2,5.3-5.5c4.7-0.3,9.4,0,14.1-0.3c4.5-0.3,9.1-1.2,15.5-2.1c-5.6-8.5-10.5-15.5-14.9-22.8
	c-1.9-3-3.2-6.4-3.8-9.9c0-2.2,1.1-4.3,3-5.5c2.1-0.6,4.4-0.1,6.1,1.4c3.6,4.3,6.9,8.9,10,13.5c2.8,3.9,5.5,7.9,9.2,13.2
	c5.8-8.3,10.5-15.4,15.6-22.1c1.6-2.3,4-4.1,6.8-4.9c5.9-1.2,9.1,3.1,6.3,8.3c-3,5.5-6.8,10.6-10.2,15.8c-2.5,3.8-5,7.6-8.8,13.2
	c6.3,0,10.8,0,15.3,0c6.1-0.2,12.1-0.1,18.2,0.4c1.9,0.2,4.4,3,5,5c0.8,2.6-0.7,5.3-3.4,6c-0.4,0.1-0.9,0.2-1.4,0.2
	c-4,0.4-8.1,0.1-12.1,0.4c-4.6,0.4-9.2,1.1-14,1.7c1.8,10,13.8,15.4,10.4,26.4c-5.9,3-9.8,0.8-12.9-3.9c-3.4-5.3-6.8-10.6-10.2-15.8
	c-1-1.5-2.4-2.9-4.5-5.3c-3.1,4.9-5.7,8.9-8.4,12.9c-2,3-4.1,6-6.2,9c-4.4,6.2-7.3,7.7-11,5.4c-3.4-2.1-3.5-6.2-0.2-12.3
	C1383.6,390.9,1384.1,390.4,1384.8,389.2z"/>
<path id="Path_536" class="st0" d="M1173,328.1c3,4.2,1.2,7.6-0.7,10.7c-3.3,5.7-6.9,11.3-10.3,16.9c-1,2-1.9,4.1-2.7,6.2h16
	c3.7,0,7.4-0.1,11.1,0c6.3,0.2,10.5,3.1,10.3,7c-0.2,3.8-4.4,6.5-10.8,6.6s-12.7,0-20.2,0c0.6,2.2,1.5,4.3,2.5,6.4
	c3,5.1,6.6,9.9,9.2,15.2c0.8,2.3,0.3,4.8-1.3,6.7c-2.3,1.1-5,1.1-7.3,0c-2.5-1.7-4.5-3.9-6.1-6.4c-4.4-6.2-8.6-12.5-13.7-19.9
	c-4,6.6-7.4,12.4-11,18.1c-1.5,2.5-3,5.4-5.3,7c-2.2,1.2-4.8,1.4-7.1,0.5c-2.7-1.1-4-4.2-2.9-6.8c0.1-0.2,0.2-0.5,0.4-0.7
	c1.5-2.9,3.1-5.8,4.8-8.7c2.1-3.7,4.2-7.4,7.2-12.7c-6.3-0.2-11.1-0.4-15.9-0.5c-3-0.1-6.1,0.1-9.1-0.1c-3.9-0.3-6.3-2.4-6-6.5
	c0-3,2.5-5.4,5.6-5.4c0.2,0,0.3,0,0.5,0c6.4-0.1,12.8,0,19.2-0.2c1.9,0,3.9-0.3,7.5-0.7c-3-5-5.3-9.1-7.9-13.2c-2.2-2.9-4.2-6-6-9.1
	c-1.4-3.1-1.7-6.4,1.9-8.7c3.6-2.3,6.7-0.9,8.8,1.8c3.8,5,7.2,10.3,10.8,15.4c0.9,1.3,2,2.6,3.9,5c4.2-6.9,8.1-13.2,11.9-19.5
	C1163.2,328.3,1166.2,324.5,1173,328.1z"/>
<path id="Path_540" class="st0" d="M1103,835c-4.4,1.2-7.1-0.1-9.1-3.4c-7.2-11.8-14.7-23.4-21.9-35.2c-1.2-1.9-1.8-4.2-1.6-6.4
	c1.1-5.5,7.6-7,11.5-2.4c4.5,5.7,8.6,11.7,12.2,17.9c3.9,6.1,7.2,12.6,11.4,18.5C1108.8,828.6,1108,831.8,1103,835z"/>
<path id="Path_549" class="st0" d="M423.7,802.6c2.9-4.5,5.5-8.3,8.2-12.1c0.9-1.3,2.3-3.1,3.5-3.2c2.8-0.2,6.2-0.1,8.3,1.3
	c1.2,0.8,1.2,5,0.2,6.9c-3.1,5.8-6.8,11.3-10.4,16.8c-4.3,6.6-8.7,13.3-13.3,19.7c-2,2.8-4.6,5.1-8.5,2.9c-3.9-2.2-5-5.7-2.4-10
	C413.8,817.5,418.7,810.4,423.7,802.6z"/>
<path id="Path_567" class="st0" d="M1097.8,490.3c5.7,3.1,5.3,7.5,3,11.3c-6.9,11.6-14.2,23-21.5,34.4c-2.1,3.3-5.6,4.6-8.5,2.2
	c-1.9-1.5-2.3-4.9-2.9-7.6c-0.2-1,0.8-2.4,1.4-3.5c6.6-10.6,13.3-21.2,19.8-31.9C1091.1,492.2,1093,489.7,1097.8,490.3z"/>
<path id="Path_582" class="st0" d="M1214,77.7c-1.6-2.9-3.9-6.1-3.1-7.8c1.7-2.3,4.3-3.8,7.3-4c11.8-0.4,23.5-0.2,35.3,0
	c2.4,0,4.7,0.7,6.5,2.1c1.7,1.5,3.5,4.5,3.1,6.4c-0.8,2.3-2.8,4.1-5.3,4.6C1243.4,79,1229.1,78.4,1214,77.7z"/>
<path id="Path_587" class="st0" d="M677.4,68.4c9.7,0,18.4-0.1,27.2-0.1c2.3-0.1,4.7,0,7.1,0.2c3.5,0.4,5.8,2.7,5,6.1
	c-0.5,2.1-2.9,5.1-4.7,5.2c-14.4,1.1-28.7,1.8-43.2,2.1c-1.9,0-4.8-2.4-5.7-4.3c-1.4-3,0.4-6,3.6-7.1
	C670.2,69.4,673.8,68.7,677.4,68.4z"/>
<path id="Path_594" class="st0" d="M144.5,628.7c-7.3-12.5-14.2-24.5-20.8-36c6.1-7.9,9.3-8.4,13.9-1.4
	c6.9,10.4,12.8,21.4,19.1,32.2c0.9,1.4,1.3,3,1.1,4.6c-0.4,2.4-1.6,4.7-3.3,6.4c-1.1,0.8-4.2-0.6-6.1-1.6
	C146.8,631.7,145.6,630.3,144.5,628.7z"/>
<path id="Path_595" class="st0" d="M435.2,503.8c3.6,6.4,6.9,12,10,17.8c1.7,2.8,3,5.8,3.9,9c0.9,3.3,0.4,6.8-3.5,8.2
	c-3.7,1.3-6.4-0.2-8.3-3.5c-2.7-4.9-5.7-9.6-8.3-14.5c-3.6-6.7-6.9-13.5-10.5-20.1c-2.2-4-0.9-7,2.5-9.3c4.3-2.7,7,0.1,9.1,3.2
	C432.1,497.5,433.8,500.6,435.2,503.8z"/>
<path id="Path_600" class="st0" d="M1264.5,626.7c-6.4-10.5-12.3-20.4-18.4-30.2c-2.1-3.4-2.9-6.8,0.6-9.7c3-2.5,8.2-1.2,10.9,3.2
	c6.7,10.6,13.2,21.4,19.2,32.3c1.4,2.5,0.7,6.2,1,9.5C1271.3,634.3,1267.2,633,1264.5,626.7z"/>
<path id="Path_602" class="st0" d="M187.2,634c-3.4-2.7-3.5-5.2-1.8-8.3c6.4-11.6,12.5-23.2,19-34.7c1.8-3.2,4.5-6.1,9-3.8
	c3.9,2,4.9,5.4,2.5,10c-5.5,10.5-11.1,21-17.1,31.2C196.5,632.2,193.9,636.9,187.2,634z"/>
<path id="Path_603" class="st0" d="M699.7,664.9c-8.7,0-16.4,0-24.2,0c-3.6,0-6.9-0.6-7.7-4.8c-0.9-4.5,2-6.7,5.9-7.9
	c1.9-0.6,3.9-0.9,5.9-1c10.8-0.1,21.5-0.1,32.3-0.1c4,0,7.5,0.7,8.1,5.4c0.3,4.1-2.9,7.7-7.1,8c0,0,0,0-0.1,0
	C708.4,664.9,704,665,699.7,664.9z"/>
<path id="Path_605" class="st0" d="M1288.9,626c6-11.4,11.8-22.1,17.6-32.8c0.8-1.4,2-2.6,2.8-4c2.4-3.9,5.9-4.5,9.4-2.4
	c3.2,2,3.5,5.2,1.6,8.6c-6.2,11.2-12.1,22.7-18.6,33.7c-1.8,2.2-4.4,3.6-7.2,3.9C1290.3,633.5,1289,630.2,1288.9,626z"/>
<path id="Path_614" class="st0" d="M1293.5,949.2c2.6,0,4.3,0,6,0.1c4.5,0.2,6.7,2.5,6.7,6.9s-2.4,6.6-6.8,6.7c-3,0-6,0-9.1,0
	c-9.1,0-18.1,0.2-27.2,0c-5.6-0.1-7.7-2.3-7.6-6.9c0-4.6,2-6.6,7.9-6.7C1273.1,949,1282.8,949.2,1293.5,949.2z"/>
<path id="Path_617" class="st0" d="M182,363.8c3.3,0,6.6,0.3,9.9,0.9c3.1,0.6,5.3,3.5,4.8,6.6c-0.3,4-2.4,6.1-6.3,6.2
	c-8.1,0.1-16.1,0.1-24.2,0.1c-4.4,0-8.7,0-13.1,0c-4.1,0-7.7-1.7-8-5.9c-0.3-4.1,3-6.7,6.9-7.2c5-0.5,10-0.6,15-0.6
	C171.6,363.8,176.3,363.8,182,363.8z"/>
<path id="Path_624" class="st0" d="M732.5,961.5c-2.3-7.9-1.9-9,3.7-11.1c1.5-0.6,3.2-1,4.8-1c11.4-0.2,22.8-0.4,34.1-0.2
	c5.6,0.1,8.6,3.1,7.1,6.9c-1,2.3-2.9,4-5.4,4.7c-6.9,1.2-13.9,1.8-20.8,2C748.2,962.8,740.3,962.4,732.5,961.5z"/>
<path id="Path_655" class="st0" d="M1354,75.9c-13.8,1.5-27.1,2.5-40.4,3.4c-1.7,0-3.3-0.2-4.9-0.8c-3.1-0.7-5.1-3.6-4.6-6.7
	c0.3-3.4,2-5.8,5.5-5.9c13.1-0.2,26.2-0.4,39.3,0C1354.6,66,1355.8,68.8,1354,75.9z"/>
<path id="Path_656" class="st0" d="M427.6,239c-3.3,0.1-7.7,0.5-8.5-0.9c-1.4-2.8-1.5-6.1-0.2-9c6.4-10.4,13.4-20.3,20.5-30.3
	c2-2.8,4.9-4.8,8.6-2.3c3.5,2.4,4.8,5.5,2.3,9.3C443,216.7,435.6,227.6,427.6,239z"/>
<path id="Path_661" class="st0" d="M1073.3,209.3c-1.9-4.9,1.1-7.2,4.3-7.9c2.6-0.1,5.1,0.9,6.8,2.9c7.7,9.9,15.2,19.9,22.5,30.2
	c2.3,3,1.7,7.3-1.4,9.5c-0.3,0.2-0.7,0.5-1.1,0.6c-3.9,2-6.4-0.3-8.4-3.1C1088.3,230.9,1081,220.4,1073.3,209.3z"/>
<path id="Path_667" class="st0" d="M674,911.9c1.1,1.7,2.1,2.7,2.6,3.9c1.9,3.8,2.8,8-1.5,10.4s-7.5-0.5-9.9-4
	c-6.4-9.2-12.9-18.4-19-27.7c-3.3-5-2.8-9,1.3-11c4.6-2.2,7.6,0.7,9.9,4C662.9,895.4,668.3,903.3,674,911.9z"/>
<path id="Path_687" class="st0" d="M731,413.7c3.5,5.2,6.8,9.8,9.7,14.5c1.3,1.8,2.1,4,2.3,6.2c0,2.2-1.1,4.2-2.8,5.6
	c-1.6,0.8-4.5,0.2-6.4-0.7c-1.7-1-3.1-2.5-4-4.2c-6-8.6-12.1-17.2-17.9-26c-2.1-3.2-5-6.9-0.4-10.3c3.4-2.6,8.4-0.9,11.7,3.7
	C725.8,405.9,728.2,409.5,731,413.7z"/>
<path id="Path_689" class="st0" d="M1263.6,14.4c2.9,4.1,5.7,7.4,8,11c1.2,1.9,1.9,4.1,2,6.4c0,5.4-5.3,8.4-8.8,4.5
	c-10-10.9-19.7-22.2-25.3-36.1c-0.4-1.1,0.2-2.5,0.4-4c5.5-3.2,9.5-1.5,12.9,3.1C1256.3,4.1,1259.8,8.9,1263.6,14.4z"/>
<path id="Path_693" class="st0" d="M145.6,20.2c2.6,3.9,4.9,7.1,7.2,10.4c2.1,3.2,2.3,7-0.9,8.7c-2.4,1.2-7.9,1.1-9-0.4
	c-7.7-10.7-14.7-21.9-21.3-33.3c-0.8-1.3,1.6-5.4,3.6-7.1c2.8-2.5,5.9-0.6,7.7,2C137.1,6.8,141.1,13.3,145.6,20.2z"/>
<path id="Path_697" class="st0" d="M719.3,893.7c2.1-4.6,3.5-8.6,5.6-12.3c2.6-4.4,6.7-5.9,10-3.9c4,2.4,3.5,5.9,1.8,9.5
	c-4.7,9.8-9.3,19.6-14,29.3c-0.4,0.9-0.8,1.8-1.4,2.6c-1.9,3.3-6.1,4.4-9.4,2.6c-0.1,0-0.1-0.1-0.2-0.1c-3.2-1.7-4-4.9-2.1-8.5
	C712.8,906.7,715.9,900.6,719.3,893.7z"/>
<path id="Path_699" class="st0" d="M207.4,23c-2.7,4.6-4.9,8.6-7.4,12.5c-1.2,1.9-2.2,4.6-4,5.4c-2.5,1.2-5.4,1.5-8.1,0.7
	c-1.5-0.7-1.9-4.3-2.2-6.7c-0.1-1.1,0.9-2.4,1.5-3.6c4.9-8.9,9.6-17.9,14.7-26.7c3.5-6.1,7.7-8.1,10.9-6.1c3.3,2,3.6,6.3,0.7,12.4
	C211.8,14.8,209.7,18.6,207.4,23z"/>
<path id="Path_704" class="st0" d="M126.1,65.7c4.8,1.5,6.3,4.5,4.7,7.9c-1.4,2.1-3.7,3.4-6.2,3.7c-9.6,1-19.3,1.4-29,2
	c-1.3,0.1-2.7,0.1-4,0c-6.3-0.2-10.5-3.2-10.3-7.1c0.1-3,4.7-7.1,10.8-6.8C103,66.1,114.1,65.6,126.1,65.7z"/>
<path id="Path_710" class="st0" d="M706.9,995.8c-1.9-4.5-1.8-8,2.6-9.7c4.1-1.6,7.1,0.8,9.3,4c6,9,11.9,18.2,17.8,27.3
	c0.8,1,1.3,2.3,1.2,3.6c-0.7,2.6-1.4,6.1-3.4,7.3c-3.1,2-6.3,0.4-8.4-2.9C719.8,1015.7,713.5,1006.1,706.9,995.8z"/>
<path id="Path_711" class="st0" d="M256.4,77.4c-3.3,1.1-6.8,1.8-10.3,2.1c-9.4,0.2-18.8,0-28.2,0c-3.8,0-6.4-1.5-7-5.5
	c-0.6-4.5,1.9-7.5,5.9-7.6c11.7-0.5,23.4-0.4,35.1,0.3C258.4,67.2,259.4,70.4,256.4,77.4z"/>
<path id="Path_718" class="st0" d="M650.7,363.8c4.9,0.4,8.6,2.1,8.4,6.4c-0.2,4.5-4.1,7-8.4,7.1c-11.7,0.3-23.5,0.3-35.2,0.2
	c-3,0.2-5.6-1.9-5.8-4.8c0-0.2,0-0.4,0-0.7c-0.2-4.1,2.3-6,6.2-6.3C627.2,365,638.5,364.4,650.7,363.8z"/>
<path id="Path_719" class="st0" d="M740.6,375.3c-2.1-0.3-3.8-0.3-4.6-1.1c-1.5-1.5-4-3.9-3.6-5.2c0.7-2.1,3.2-3.8,5.2-5.3
	c0.9-0.6,2.6-0.4,3.9-0.4c12.4,0,24.8,0.1,37.2,0c4.2,0,7.4,0.9,8.3,5.3c0.6,3.3-3.1,6.5-8.3,6.6
	C766.3,375.4,753.9,375.3,740.6,375.3z"/>
<path id="Path_728" class="st0" d="M1306.2,727.8c-3.8-6.9-7.4-13.2-10.9-19.5c-1.3-2.2-2.4-4.7-3-7.2c-0.9-3.3,1.1-6.7,4.5-7.6
	c0,0,0.1,0,0.2,0c2.5-0.2,5.1,0.8,6.7,2.7c6.2,10.4,11.8,21.2,17.6,31.8c1.7,3.2,0.2,5.6-2.2,7.7c-3,2.6-5.9,0.9-8-1
	C1309,733.1,1307.9,730.6,1306.2,727.8z"/>
<path id="Path_733" class="st0" d="M1261.3,698.7c2.3-2.8,3.8-5.7,6.2-7.1c2.2-1.1,4.8-1.1,7.1-0.2c2.7,1.2,3.8,4.3,2.5,7
	c-0.1,0.2-0.2,0.4-0.4,0.6c-0.2,0.6-0.6,1.2-0.9,1.8c-6.3,9.2-12.6,18.5-19,27.6c-1.3,1.4-2.7,2.7-4.3,3.8c-9.3-3.7-10-5.3-5.4-12.4
	C1251.6,712.9,1256.3,706.1,1261.3,698.7z"/>
<path id="Path_734" class="st0" d="M258.6,662.9c-3.3,2-6.1,4.3-9,4.5c-9,0.5-18,0.2-27,0c-2,0.1-4-0.3-5.7-1.3
	c-2-1.8-4.8-4.6-4.5-6.6c0.9-2.6,3.2-4.6,6-5.2c11.3-0.5,22.7-0.5,34-0.1C256.7,654.3,259.6,657.3,258.6,662.9z"/>
<path id="Path_743" class="st0" d="M659.3,406.6c2.9-3.7,4.9-7.3,8-9.6c1.9-1.3,6.3-1.6,7.9-0.3c1.8,2.1,2.3,5.1,1.3,7.7
	c-5.9,9.9-12.4,19.4-18.9,28.9c-2.6,3.8-6.5,4.1-10.6,2.6c-2.9-4.1-1.4-7.8,0.6-11.2C651.3,418.7,655.1,413,659.3,406.6z"/>
<path id="Path_746" class="st0" d="M217.8,142.2c-4.4,6.8-7.1,7.6-11.4,3.1c-2.6-3-4.8-6.2-6.7-9.6c-4-6.4-8-12.8-11.9-19.3
	c-1.9-3.3-3.3-6.8,1.2-9.2c3.7-1.8,8.3-0.5,10.4,3c4.6,7.2,9,14.5,13.3,21.8C214.7,135.3,216.4,138.7,217.8,142.2z"/>
<path id="Path_750" class="st0" d="M647.4,1022.8c-0.1-3-0.6-5.9,0.6-7.9c5.7-9.3,11.7-18.3,17.8-27.2c2.1-3.1,4.9-5.7,9.1-2.8
	c3.6,2.5,4.3,6,1.5,10.3c-5.6,8.9-11.3,17.8-17.3,26.4C655.5,1026.8,654.2,1026.8,647.4,1022.8z"/>
<path id="Path_751" class="st0" d="M188.8,697.4c7.2-3.5,9.2-3.5,12.1,1.4c5.7,9.6,10.9,19.6,16.3,29.5c1.6,2.6,0.7,6.1-1.9,7.7
	c-0.3,0.2-0.7,0.4-1.1,0.5c-1.9,0.8-6,0.3-6.9-1C199.1,723.9,190.6,712.5,188.8,697.4z"/>
<path id="Path_756" class="st0" d="M1245.3,143.2c-0.6-3-1.5-6-0.5-8c5.1-10,10.3-19.9,16.2-29.4c3.3-5.5,9.4-5.2,11.7,0.3
	c0.6,2.1,0.4,4.4-0.6,6.4c-4.9,9.3-9.9,18.6-15.2,27.7C1254.4,144.3,1250.8,146.4,1245.3,143.2z"/>
<path id="Path_761" class="st0" d="M148.1,713.4c-3.9,5.4-7.1,10.4-11,14.8c-5.6,6.3-7,6-13.8-2.1c7.3-10.4,14.7-21.1,22.4-31.7
	c2.4-3.2,6.2-4.5,9.7-1.9c3.6,2.7,2.8,6.2,0.4,9.6C153.3,705.7,151,709.3,148.1,713.4z"/>
<path id="Path_763" class="st0" d="M127.8,665c-5.7,1.2-11.5,2-17.3,2.5c-6.7,0.5-13.3,0.4-20-0.3c-3-0.8-5.4-3-6.6-5.9
	c-0.5-1.5,3-4.3,5-6.3c1.1-0.7,2.4-1.1,3.8-1c10-0.1,20-0.5,30-0.1C129.6,654.2,131.1,657.6,127.8,665z"/>
<path id="Path_780" class="st0" d="M141.4,101.2c3.8-3.3,6.6-2.3,9.3,0.4c2.5,2.6,2.1,5.3,0.4,8.1c-5.2,8.8-10.3,17.5-15.6,26.2
	c-0.8,1.5-1.9,2.7-3.4,3.5c-1.9,0.8-4.6,1.7-6.1,0.9c-1.9-1.1-3.1-3.1-3.2-5.2c0.6-3.5,1.8-6.9,3.7-10
	C131,117.3,136,109.5,141.4,101.2z"/>
<path id="Path_781" class="st0" d="M1281.9,363.3c7,0,13.1,0,19.1,0c4.3,0,7.2,1.8,7,6.5c-0.2,4.1-3.2,5.4-7,5.5
	c-12.4,0-24.9,0-37.3,0.1c-4,0-6.9-1.6-7.2-5.3c-0.3-4.4,3.2-6.3,7.2-6.5C1269.5,363.2,1275.2,363.4,1281.9,363.3z"/>
<path id="Path_782" class="st0" d="M167.6,963.2c-6.4,0-11.7-0.1-17.1,0c-4.2,0.1-7.8-0.9-8.2-5.3c-0.3-4.3,3.1-6.5,7.2-6.6
	c12.8-0.2,25.5-0.1,38.3,0c3.1-0.2,5.8,2,6,5c0,0.5,0,1-0.1,1.4c0,2.9-2.4,5.4-5.4,5.4c-0.2,0-0.4,0-0.6,0
	C181.3,963.3,175,963.2,167.6,963.2z"/>
<path id="Path_791" class="st0" d="M738.1,295.9c-0.1,2.8-0.6,5.6-1.6,8.3c-4.2,8.6-8.5,17.2-13.1,25.5c-1.8,3.2-4.5,6.2-9,3.8
	c-3.9-2.1-4.5-5.4-2.5-9.2c4.6-9.1,8.7-18.5,13.9-27.3C729.6,290.5,732.5,290.5,738.1,295.9z"/>
<path id="Path_795" class="st0" d="M1322.2,135.7c2.4,4.6,1.3,7.9-2.8,9.4c-3.3,1.3-7,0.1-8.8-2.9c-5.8-8.8-11.7-17.5-17.3-26.5
	c-2.8-4.5-1.9-6,5-11.6C1308.8,112.4,1313.9,124.8,1322.2,135.7z"/>
<path id="Path_801" class="st0" d="M621.4,960.6c-3.6,0-6.3,0-9-0.2c-2.9,0-5.4-2.2-5.4-5.1c0-0.2,0-0.5,0-0.7
	c-0.2-3,2.1-5.6,5.2-5.8c0.1,0,0.2,0,0.4,0c1.3-0.1,2.7-0.2,4-0.1c9.7,0,19.5,0,29.2,0c2,0,4.5-0.3,5.9,0.6c2.2,1.6,4.8,4.1,5.2,6.4
	c0.4,3.4-2.9,4.8-6.3,4.8C641.2,960.6,631.8,960.6,621.4,960.6z"/>
<path id="Path_812" class="st0" d="M1310.5,654.4c12-0.6,23.3-0.9,34.6-0.9c2,0,3.9,0.5,5.6,1.5c3.9,2.3,3.9,6.2,0.2,8.7
	c-1.3,0.9-2.9,1.5-4.6,1.6c-10.7,0.1-21.4,0.4-32-0.1C1307.5,664.7,1306.1,660.9,1310.5,654.4z"/>
<path id="Path_814" class="st0" d="M645.2,296.5c3.7-4.5,7.3-3.3,9.5,0c6.1,8.9,11.9,18.1,17.1,27.5c1,1.8-0.2,6.1-1.9,7.6
	c-2.8,2.5-6.5,1.4-8.6-1.8c-5.5-8.6-11-17.2-16.1-25.9C644.3,302.1,645,299.4,645.2,296.5z"/>
<path id="Path_817" class="st0" d="M1245.2,653.3h10.5c2.7,9.5,1.6,11.6-6.2,11.8c-9.7,0.3-19.4,0.1-29.1,0.1
	c-4.3,0-7.3-1.5-7.1-6.2c0.2-4.1,3.1-5.5,6.8-5.6C1228.2,653.4,1236.2,653.4,1245.2,653.3z"/>
</svg>
