<?xml version="1.0" encoding="UTF-8"?>
<svg id="Layer_1" data-name="Layer 1" xmlns="http://www.w3.org/2000/svg" viewBox="0 0 1490.75 1099.62">
  <defs>
    <style>
      .cls-1 {
        fill: #d8d8d0;
      }

      .cls-2 {
        fill: #d8d8d1;
      }

      .cls-3 {
        fill: #d6d6ce;
      }

      .cls-4 {
        fill: #d6d6cf;
      }

      .cls-5 {
        fill: #d9d9d3;
      }

      .cls-6 {
        fill: #d9d9d2;
      }

      .cls-7 {
        fill: #d7d7d0;
      }
    </style>
  </defs>
  <g id="Group_157" data-name="Group 157">
    <g id="broderi">
      <g id="Group_99" data-name="Group 99">
        <path id="Path_443" data-name="Path 443" class="cls-2" d="M.02,417.79c1.1-1.37,2.44-2.2,3.25-3.37,2.46-3.58,4.71-7.31,7.05-10.96,.59-.91,1.25-1.78,1.99-2.57,.91-1.39,2.78-1.78,4.18-.87,.12,.08,.24,.17,.35,.27,1.42,1.2,1.15,2.73,.19,4.2-2.36,3.65-4.71,7.31-7.06,10.96-1.1,1.69-2.17,3.4-3.31,5.07-1.12,2.14-3.77,2.97-5.91,1.84-.13-.07-.26-.15-.39-.23-.3-1.43-.41-2.88-.34-4.34Z"/>
        <path id="Path_444" data-name="Path 444" class="cls-2" d="M.02,901.18c1.18-1.54,2.61-2.49,3.51-3.79,2.01-2.96,3.67-6.15,5.68-9.12,.71-1.13,1.79-1.99,3.05-2.43,2.69-.63,4.19,1.33,3.05,3.86-1.03,2.1-2.18,4.13-3.45,6.09-2.35,3.86-4.78,7.67-7.14,11.52-.77,1.71-2.46,2.81-4.34,2.83-.3-2.98-.42-5.97-.36-8.96Z"/>
        <path id="Path_446" data-name="Path 446" class="cls-2" d="M.02,29.58c1.38,.38,2.62,1.16,3.55,2.25,3.54,5.47,6.94,11.05,10.22,16.69,.77,1.34,1.17,2.85,1.16,4.4,.11,1.23-.79,2.31-2.02,2.43-.75,.07-1.48-.24-1.94-.82-1.71-1.99-3.28-4.11-4.68-6.33-1.88-2.58-3.74-5.17-5.96-7.76C.02,36.95,.02,33.49,.02,29.58Z"/>
        <path id="Path_447" data-name="Path 447" class="cls-2" d="M.02,1015.53c.86-.09,1.72,.21,2.33,.82,3.8,5.47,7.6,10.96,11.18,16.58,1.88,2.93,1.69,4.36,.1,5.27-1.78,1.01-3.77,.31-5.4-2.04-1.78-2.55-3.45-5.17-5.26-7.68-.73-.86-1.62-1.58-2.62-2.12-.33-3.46-.33-6.93-.33-10.84Z"/>
        <path id="Path_448" data-name="Path 448" class="cls-1" d="M.02,521.42c2.25-.87,4.78,.25,5.65,2.51,0,.03,.02,.05,.03,.08,2.34,4.55,4.83,9.02,7.22,13.54,.52,.77,.86,1.65,.98,2.57-.02,.97-.36,2.43-1.04,2.78-1.07,.51-2.3,.49-3.36-.03-1.12-1.05-2.04-2.29-2.72-3.66-2.06-3.21-4.08-6.47-6.43-9.73-.28-2.67-.39-5.36-.33-8.05Z"/>
        <path id="Path_449" data-name="Path 449" class="cls-2" d="M.02,761.12c2.42-.82,3.8,.73,5,2.4,2.89,4.08,5.79,8.14,8.48,12.35,.91,1.43,1.41,3.08,1.46,4.77,0,2.32-2.15,3.17-3.96,1.68-1.01-.97-1.91-2.04-2.68-3.21-2.56-3.3-5.09-6.62-7.95-9.95-.28-2.68-.39-5.37-.34-8.06Z"/>
        <path id="Path_450" data-name="Path 450" class="cls-2" d="M.02,276.3c1.5-.55,3.18,.16,3.83,1.62,3.03,4.87,6.26,9.61,9.29,14.48,.62,1.05,.93,2.25,.88,3.47,.1,1.24-.83,2.32-2.07,2.42-.73,.06-1.45-.24-1.92-.81-1.78-1.93-3.45-3.96-4.99-6.09-1.47-1.83-3.04-3.56-4.71-5.2-.28-3.29-.39-6.59-.32-9.89Z"/>
        <path id="Path_451" data-name="Path 451" class="cls-2" d="M106.66,.02c.4,3.77,3.45,5.94,5.1,8.82,1.07,1.88,2.6,3.48,3.71,5.34,1.34,2.23,1.03,3.64-.7,4.84-1.96,1.35-3.26,.18-4.29-1.27-2.98-4.16-5.93-8.34-8.7-12.64-.68-1.49-1.11-3.08-1.28-4.71,2.04-.33,4.11-.45,6.17-.38Z"/>
        <path id="Path_452" data-name="Path 452" class="cls-1" d="M.02,151.67c.94-1.3,2.12-2.04,2.74-3.11,1.48-2.54,2.63-5.26,4.03-7.85,.88-2.15,3.34-3.19,5.49-2.31,.28,.11,.54,.25,.79,.42,0,1.41-.2,2.82-.6,4.17-1.92,4.22-4.02,8.38-6.23,12.46-1.15,2.12-2.75,3.86-5.91,2.4-.28-2.05-.39-4.12-.32-6.19Z"/>
        <path id="Path_457" data-name="Path 457" class="cls-2" d="M.02,655.83c.96-1.05,2.12-1.54,2.85-2.39,2.22-2.58,4.29-5.29,6.38-7.97,1.26-1.63,2.69-2.67,4.71-1.26,1.45,1.01,1.57,3.01,.17,4.96-2.62,3.64-5.27,7.25-8.04,10.78-1.35,1.76-3.79,2.25-5.73,1.17-.29-1.75-.41-3.52-.34-5.29Z"/>
        <path id="Path_458" data-name="Path 458" class="cls-2" d="M92.61,.02c1.65,2.75,1.17,6.27-1.16,8.48-2.2,2.78-4.13,5.79-6.19,8.69-.34,.52-.74,1-1.17,1.44-1.26,1.23-2.92,1.74-4.08,.4-.7-1.1-.88-2.46-.5-3.7,.68-1.39,1.53-2.68,2.55-3.84,2.4-3.59,4.78-7.2,7.17-11.13,1.1-.3,2.24-.42,3.38-.34Z"/>
        <path id="Path_469" data-name="Path 469" class="cls-6" d="M1490.72,233.3c-.9,.33-1.86,.44-2.81,.31-1.91-.17-3.45-1.15-3.56-3.07-.12-1.99,1.39-3.02,3.27-3.32,.9-.07,1.81-.1,2.72-.06,.33,2.03,.46,4.09,.39,6.14Z"/>
        <path id="Path_470" data-name="Path 470" class="cls-2" d="M1490.73,475.71c-.86,.36-1.81,.44-2.72,.22-1.51-.38-2.85-1-2.93-2.95s1.12-2.72,2.64-3.2c.87-.16,1.75-.24,2.64-.22,.32,2.03,.45,4.09,.37,6.15Z"/>
        <path id="Path_471" data-name="Path 471" class="cls-2" d="M1490.73,978.98c-.15,.4-.31,.37-.46,.37-2.13-.04-3.88-1.03-3.96-3.14s1.57-3.24,4.08-3.36c.29,2.03,.4,4.08,.34,6.12Z"/>
        <path id="Path_472" data-name="Path 472" class="cls-6" d="M1490.73,714.88c-1.8,.46-3.43,.12-3.64-2.05-.19-2.01,.87-3.09,3.28-3.17,.31,1.72,.43,3.47,.36,5.22Z"/>
        <path id="Path_474" data-name="Path 474" class="cls-1" d="M166.82,340.11c-.6,1.42-1.02,2.53-1.7,4.29,2.3,.25,4.06,.52,5.84,.63,1.88,.1,3.75,.03,5.62,.03s3.47,.44,3.64,2.7c.14,1.91-1.04,2.89-3.83,2.99-2.65,.09-5.32-.06-7.96,.04-1.52,.18-3.04,.45-4.52,.83,1.34,2.54,2.34,4.43,3.34,6.31,1.38,2.62,2.78,5.24,4.13,7.87,.9,1.76,.02,3-1.35,3.99-1.1,.84-2.68,.63-3.52-.47-.06-.08-.12-.17-.17-.26-.98-1.2-1.86-2.48-2.64-3.83-1.79-3.09-3.5-6.23-5.62-10.02-1.54,2.56-2.78,4.65-4.06,6.72-1.18,2.19-2.55,4.27-4.08,6.23-.99,.89-2.36,1.22-3.65,.87-1.02-.83-1.58-2.1-1.5-3.42,.35-1.5,.98-2.93,1.86-4.19,1.7-3.08,3.49-6.11,5.65-9.86-4.77,0-8.64,.08-12.49-.04-1.54-.07-3.06-.37-4.51-.89-1.31-.31-2.12-1.63-1.81-2.94,.03-.14,.08-.28,.14-.42,.53-1.05,1.5-1.81,2.65-2.08,2.94-.29,5.92-.13,8.9-.14h6.47c-1.02-2.48-1.66-4.28-2.51-5.98s-1.84-3.25-2.8-4.85c-.98-1.31-.7-3.17,.61-4.15,.14-.11,.3-.2,.46-.28,1.37-.98,3.27-.66,4.25,.71,.08,.12,.16,.24,.23,.37,1.69,2.41,3,5.1,4.48,7.67,.46,.78,.94,1.57,1.83,2.99,1.71-2.72,3.14-4.99,4.56-7.27,1.07-1.72,2.05-3.51,3.21-5.16,.85-1.61,2.82-2.26,4.45-1.46,1.62,1.06,2.07,3.24,1.01,4.86-.02,.03-.05,.07-.07,.1-1.32,2.46-2.88,4.8-4.51,7.51Z"/>
        <path id="Path_475" data-name="Path 475" class="cls-2" d="M208.91,225.1c1.17-.07,1.92-.14,3.51-.29-1.43-2.46-2.56-4.56-3.84-6.59-1.41-2.24-3-4.4-4.4-6.63-1.68-2.71-1.48-4.46,.63-5.6,2.33-1.26,3.45,.49,4.49,2.07,2.16,3.25,4.21,6.56,6.35,9.82,.74,1.13,1.57,2.2,2.64,3.68,2.32-3.6,4.32-6.72,6.33-9.84,.77-1.17,1.49-2.4,2.35-3.49,1-1.27,2.16-2.37,3.97-1.3,1.55,.74,2.2,2.6,1.46,4.15-.11,.23-.25,.45-.41,.64-1.4,2.43-3.07,4.71-4.54,7.09-.94,1.55-1.77,3.18-3.01,5.42h10.95c1.99,0,3.88,.18,4.04,2.77,.13,1.99-1.42,3.53-4.01,3.66-3.41,.16-6.84,.03-11.28,.03,1.12,1.98,1.79,3.25,2.56,4.46,2,3.16,4.17,6.23,6.05,9.46,1.47,2.54,1.15,4.4-.75,5.2-2.12,.89-3.53-.42-4.61-2.08-2.95-4.58-5.86-9.18-9.1-14.26-2.65,4.08-4.99,7.71-7.35,11.34-.6,.91-1.07,2.08-1.92,2.59-.91,.54-2.6,.99-3.22,.51-.98-.87-1.54-2.11-1.57-3.42,.03-1.1,1.11-2.16,1.75-3.23,1.99-3.29,3.98-6.56,6.45-10.63-2.96,.26-4.94,.46-6.91,.6-2.16,.25-4.34,.35-6.52,.31-2.62-.16-3.7-1.35-3.65-3.35,.05-2.11,.99-2.95,3.81-3.05,3.12-.1,6.24-.03,9.77-.05Z"/>
        <path id="Path_477" data-name="Path 477" class="cls-2" d="M1339.34,846.77c1.09,1.47,2.09,3.01,2.99,4.61,.6,1.08,.9,2.3,.88,3.53-.15,1.03-.74,1.94-1.6,2.51-.88,.19-1.79-.04-2.47-.63-1.02-.96-1.9-2.05-2.64-3.24-2.57-3.86-5.1-7.77-7.8-11.93-2.65,2.52-4.88,5.45-6.59,8.68-1.14,1.67-2.41,3.24-3.81,4.71-.68,.59-1.61,.79-2.48,.54-.87-.57-1.44-1.51-1.52-2.55,.24-1.67,.81-3.28,1.67-4.73,1.79-3.06,3.82-5.98,5.99-9.33-2.14-.83-4.48-1-6.72-.49-2.3,.31-4.62,.38-6.94,.21-1.52-.06-2.69-1.35-2.63-2.86,0-.15,.02-.29,.05-.43-.03-1.54,1.19-2.81,2.73-2.84,.11,0,.22,0,.32,.01,4.34-.04,8.68-.02,13.71-.02-.89-1.67-1.39-2.73-2-3.74-1.96-3.19-3.97-6.35-5.96-9.53-.49-.6-.87-1.28-1.13-2.01-.34-1.57-.4-3.24,1.34-4.08,1.39-.77,3.14-.27,3.9,1.12,.03,.06,.07,.12,.1,.19,2.17,3.43,4.36,6.84,6.56,10.25,.76,1.18,1.57,2.32,2.73,4.06,1.57-2.28,2.96-4.25,4.29-6.24,1.47-2.2,2.83-4.49,4.35-6.66,1.03-1.49,2.42-2.56,4.35-1.68,1.57,1.12,1.94,3.3,.83,4.88-.03,.04-.06,.08-.09,.12-1.97,3.37-4.13,6.61-6.21,9.92-.39,.63-.72,1.27-1.39,2.47h8.89c1.08-.18,2.18-.14,3.24,.13,1.37,.53,2.52,1.53,3.25,2.81,.63,1.88-1.26,2.73-2.73,3.1-1.68,.33-3.39,.48-5.1,.46-2.31,.07-4.62,.02-7.53,.02,1.85,3.12,3.41,5.77,5.17,8.68Z"/>
        <path id="Path_479" data-name="Path 479" class="cls-1" d="M1106.39,212.86c-2.51,4.11-4.84,7.89-7.62,12.35h12c1.79,0,3.61,.08,3.84,2.42,.15,1.57-1.63,3.12-3.93,3.2-3.68,.13-7.37,.03-11.96,.03,2.49,4.06,4.49,7.34,6.52,10.6,.92,1.26,1.77,2.57,2.55,3.92,1,1.51,.71,3.52-.68,4.68-1.37,1.11-3.14,.5-4.6-1.64-2.2-3.23-4.22-6.56-6.36-9.82-.84-1.27-1.75-2.49-3.06-4.34-2.6,4.02-5.02,7.59-7.24,11.27-1.43,2.39-3.03,3.97-6.47,2.61-1.02-6.56,5.18-10.08,7.04-16.11-1.75-.09-3.36-.22-4.97-.25-2.81,.11-5.62,.05-8.43-.18-1.29-.35-2.32-1.32-2.74-2.58-.11-.88,1.26-2.4,2.32-2.87,1.61-.57,3.31-.85,5.02-.82,2.96-.12,5.92-.03,9.82-.03-1.09-1.77-1.83-3-2.59-4.22-1.99-3.17-4.02-6.31-5.96-9.52-1.17-1.32-1.04-3.34,.28-4.51,.04-.04,.09-.08,.14-.11,1.38-1.1,3.43-.56,4.79,1.44,1.93,2.83,3.63,5.82,5.49,8.71,.92,1.43,1.95,2.78,3.41,4.83,1.8-2.59,3.37-4.78,4.86-7.03,1.11-1.69,2.08-3.48,3.17-5.18s2.57-3.04,4.66-2.02c2.25,1.11,1.78,3.03,.68,5.16Z"/>
        <path id="Path_481" data-name="Path 481" class="cls-2" d="M1033.76,345.24c2.76,0,5.1-.07,7.45,.03,2.42,.11,4.27,1.47,4.04,2.98-.26,1.96-1.94,3.41-3.91,3.4-2.17,.19-4.37,.08-6.56,.1h-6.38c2.33,4.23,4.29,7.68,6.14,11.2,.8,1.31,1.34,2.77,1.57,4.29,.07,.99-.79,2.78-1.52,2.94-1.3,.23-2.62-.18-3.57-1.09-1.88-2.66-3.31-5.65-4.94-8.48-.81-1.42-1.67-2.8-2.73-4.56-4.52,4.54-5.46,10.88-10.22,14.29-3.57-1.7-4.05-2.53-2.51-5.65,1.51-3.06,3.45-5.93,5.13-8.92,.59-1.03,1.02-2.14,1.91-4.02h-10.77c-1.72,0-3.45,0-5.16-.03-1.48,.16-2.81-.91-2.98-2.4-.32-1.46,.6-2.91,2.06-3.25,1.48-.45,3.01-.71,4.55-.78,3.73-.11,7.46-.03,11.82-.03-1.91-3.59-3.56-6.72-5.25-9.81-1.3-2.4-1.21-3.98,.35-4.89,1.84-.97,4.12-.26,5.09,1.58,.02,.03,.03,.06,.05,.1,1.02,1.75,1.83,3.63,2.81,5.41,.8,1.47,1.72,2.89,3.04,5.08,2.49-4.17,4.6-7.69,6.71-11.22,.48-.8,.83-2.04,1.51-2.28,1.37-.56,2.88-.69,4.32-.37,1.6,.55,1.44,2.2,.67,3.58-1.88,3.4-3.82,6.8-5.73,10.2-.3,.52-.57,1.06-1.12,2.09,1.46,.19,2.59,.35,4.14,.51Z"/>
        <path id="Path_482" data-name="Path 482" class="cls-2" d="M614.18,350.63h-7.73c2.17,4.04,4,7.38,5.76,10.76,.87,1.28,1.5,2.7,1.85,4.2,.06,1.32-.47,2.61-1.46,3.49-1.43,.96-2.99,.23-3.9-1.38-1.6-2.86-3.18-5.73-4.8-8.57-.73-1.29-1.54-2.54-2.55-4.17-4.58,4.43-5.39,10.85-10.2,14.21-3.57-1.57-4.08-2.46-2.59-5.54s3.42-5.94,5.12-8.92c.59-1.03,1.05-2.14,1.93-3.96-3.04-.04-5.45-.09-7.87-.12-2.81,.09-5.62,.03-8.42-.17-1.13-.28-2.05-1.11-2.45-2.2-.03-1.18,.52-2.3,1.47-3,1.38-.7,2.9-1.06,4.45-1.06,3.89-.13,7.79-.04,12.35-.04-1.88-3.56-3.53-6.67-5.19-9.75-1.32-2.42-1.26-3.99,.23-4.92,1.84-1.01,4.16-.34,5.17,1.51,.08,.15,.16,.31,.22,.47,1.73,3.1,3.36,6.26,5.51,10.3,2.51-4.17,4.57-7.53,6.59-10.9,.41-.84,.88-1.65,1.39-2.44,1.08-1.46,3.12-1.82,4.64-.82,1.85,.97,1.39,2.57,.56,4.04-1.91,3.39-3.86,6.77-5.78,10.16-.22,.4-.39,.84-.65,1.4,1.57,1.55,3.53,.76,5.27,.87,2.18-.09,4.36-.03,6.54,.16,1.45,.28,2.71,1.19,3.42,2.49,.55,1.86-1.08,3.22-2.88,3.58-2,.24-4.01,.34-6.02,.3Z"/>
        <path id="Path_483" data-name="Path 483" class="cls-1" d="M1280.98,961.12c-2.23,3.72-4.27,7.16-6.83,11.47,2.95,.08,4.89,.15,6.84,.18,2.2,.03,4.37,.03,6.56,.04,1.35-.13,2.55,.86,2.68,2.21,.01,.13,.01,.26,0,.39-.27,1.16-1.04,2.14-2.1,2.69-1.18,.38-2.43,.52-3.67,.38-3.37,.03-6.76,.02-11.03,.02,1.57,3.1,2.73,5.42,3.94,7.69,1.01,1.93,2.2,3.77,3.12,5.75,.54,1.11,.8,2.34,.78,3.57,.13,1.25-.77,2.36-2.02,2.49-.72,.08-1.43-.2-1.92-.74-1.23-1.19-2.27-2.55-3.08-4.05-1.91-3.21-3.66-6.5-5.85-10.42-1.53,2.31-2.81,4.13-3.98,6.03-1.31,2.12-2.56,4.29-3.77,6.47-.6,1.53-2.32,2.29-3.86,1.69-.01,0-.02,0-.04-.01-1.5-.58-2.25-2.28-1.66-3.78,.02-.05,.04-.09,.06-.14,.45-1.33,1.05-2.59,1.81-3.77,1.84-3.23,3.72-6.43,5.8-9.99-3.39-.94-6.94-1.11-10.4-.49-1.98,.2-3.97,.16-5.94-.11-1.58-.14-2.74-1.53-2.6-3.1,0-.09,.02-.17,.03-.25,.24-1.96,1.65-2.48,3.37-2.49,4.22-.02,8.44-.02,12.65-.05,.61,0,1.21-.12,2.43-.24-1.16-2.31-2.15-4.36-3.21-6.38-.72-1.38-1.64-2.66-2.3-4.08-1.03-2.2-.58-3.84,1.21-4.74,2.09-1.06,3.27,.36,4.18,1.84,1.57,2.51,2.93,5.15,4.4,7.72,.37,.66,.83,1.27,1.5,2.31,.78-.77,1.5-1.6,2.16-2.48,1.83-2.9,3.55-5.87,5.35-8.79,.98-1.59,1.94-3.45,4.32-2.6,2.01,.7,2.32,2.32,1.04,5.75Z"/>
        <path id="Path_485" data-name="Path 485" class="cls-1" d="M1455.67,350.75c-1.14,.05-1.88,.11-3.24,.21,1.22,2.4,2.22,4.46,3.29,6.48,1.39,2.63,2.92,5.17,4.21,7.85,.99,1.42,.65,3.38-.77,4.37-.19,.14-.4,.25-.62,.34-1.94,.89-2.86-.37-3.7-1.82-1.96-3.37-3.95-6.73-5.92-10.1-.46-.78-.96-1.53-1.88-2.98-1.57,2.56-2.83,4.61-4.11,6.66-1.31,2.12-2.51,4.33-3.97,6.34-.83,1.38-2.62,1.83-4,1-.05-.03-.1-.06-.15-.1-1.34-.81-1.76-2.54-.96-3.88,.05-.09,.11-.17,.17-.25,2.14-3.81,4.4-7.55,6.62-11.32,.36-.63,.69-1.28,1.27-2.38-3.47-.57-7.02-.57-10.49,0-1.83,.32-3.71,.38-5.56,.17-1.82-.03-3.28-1.54-3.24-3.36v-.04c.14-1.98,1.8-2.8,3.71-2.83,3.91-.03,7.82-.02,11.74-.05,.77,0,1.53-.15,3.05-.31-1.02-2.07-1.85-3.82-2.73-5.54-1.05-1.74-1.99-3.53-2.83-5.38-.82-1.45-.35-3.29,1.07-4.17,1.88-1.01,3.37,.07,4.34,1.6,1.57,2.51,2.96,5.14,4.44,7.71l1.88,3.31c1.88-3.2,3.49-5.99,5.14-8.77,.83-1.5,1.75-2.96,2.75-4.35,1.11-1.43,2.64-2.54,4.4-1.26,1.41,1.16,1.67,3.22,.58,4.68-1.01,1.93-2.27,3.73-3.38,5.62-1.16,1.98-2.26,3.98-3.87,6.82h9.42c1.26,0,2.51-.02,3.77,.04,1.83,.08,2.99,.96,2.95,2.89s-1.35,2.72-3.12,2.74c-3.26,.04-6.56,0-10.24,.02Z"/>
        <path id="Path_486" data-name="Path 486" class="cls-2" d="M1258.5,733.01c-3.77-1.33-4.17-2.25-2.51-5.38s3.48-6.28,5.2-9.42c.28-.51,.5-1.04,.99-2.07-4.48,0-8.5,.12-12.51-.07-1.34-.02-2.63-.57-3.58-1.51-1.43-1.85-.04-4.34,2.6-4.73,2.18-.21,4.37-.27,6.56-.19,1.66-.03,3.31,0,5.9,0-2.03-3.35-3.52-5.82-5.02-8.3-.31-.53-.68-1.05-1-1.57-1.5-2.56-1.33-4.87,.4-5.77s3.48-.11,4.97,2.3c2.12,3.42,4.16,6.88,6.69,11.1,2.08-3.56,3.77-6.46,5.44-9.34,.57-1.28,1.29-2.49,2.15-3.6,1.04-1.07,2.44-2.16,4.08-.8,1.37,.87,1.78,2.68,.91,4.05-.02,.03-.03,.05-.05,.08-1.35,2.46-2.64,4.97-3.94,7.46-.63,1.18-1.24,2.38-2.32,4.45h7.61c1.88,0,3.75-.02,5.63,.03,1.54-.15,2.91,.97,3.06,2.51,0,.1,.01,.21,.01,.31,.26,1.58-.81,3.06-2.39,3.32-.06,0-.11,.02-.17,.02-1.22,.23-2.47,.34-3.71,.31-3.26,.03-6.53,0-10.61,0,2.31,3.86,4.27,7.14,6.23,10.42,.48,.8,1.03,1.57,1.48,2.39,.89,1.63,1.27,3.29-.48,4.6-1.43,1.06-3.32,.48-4.79-1.53-1.11-1.5-1.98-3.18-2.98-4.76-1.5-2.32-3.02-4.62-4.8-7.35-2.04,3.54-3.73,6.68-5.63,9.68-.96,1.29-2.1,2.43-3.4,3.38Z"/>
        <path id="Path_488" data-name="Path 488" class="cls-2" d="M20.28,91.24c3.84-.04,7.27-.04,11.55-.04-1.34-2.66-2.39-4.81-3.48-6.91s-2.26-4.1-3.31-6.19c-.85-1.71-.94-3.45,1.02-4.43,1.6-.77,3.53-.1,4.31,1.5,.02,.05,.05,.1,.07,.15,1.84,3.07,3.52,6.25,5.27,9.39,.6,1.06,1.22,2.1,2.14,3.69,1.73-2.94,3.17-5.45,4.66-7.93,.55-1.28,1.37-2.43,2.4-3.37,1.15-.64,2.52-.73,3.75-.26,.82,.86,1.14,2.08,.85,3.22-1.08,2.42-2.29,4.78-3.64,7.06-.43,.8-.81,1.62-1.57,3.14,3.75,0,6.94-.03,10.12,0,3.5,.03,5.39,1.1,5.55,3.04,.17,2.07-2,3.43-5.63,3.45-3.74,.03-7.47,0-11.96,0,1.27,2.56,2.26,4.62,3.32,6.64,1.38,2.63,2.89,5.17,4.19,7.85,1.07,2.2,.59,3.82-1.2,4.75-2.1,1.08-3.31-.34-4.18-1.83-2.2-3.77-4.21-7.63-6.43-11.7-1.71,1.2-3.05,2.85-3.87,4.78-1.26,2.16-2.43,4.36-3.82,6.44-.89,1.34-2.13,2.4-3.95,1.36-1.57-.75-2.23-2.62-1.48-4.18,.1-.22,.23-.42,.38-.61,1.57-2.88,3.31-5.65,4.93-8.5,.59-1.03,1.02-2.15,1.91-4.03h-11.21c-1.81,.02-3.53-.15-3.96-2.37-.46-2.35,.83-3.49,3.29-4.1Z"/>
        <path id="Path_494" data-name="Path 494" class="cls-2" d="M210.94,453.12c2.49,3.75,4.81,7.22,7.48,11.23,2.45-4,4.56-7.42,6.63-10.87,1.91-3.18,3.48-4.17,5.37-3.24s1.94,2.8,.1,6.16c-1.34,2.46-2.89,4.81-4.3,7.24-.84,1.44-1.57,2.94-2.68,5.04,4.27,0,7.81-.08,11.35,.04,1.37-.01,2.73,.31,3.95,.94,.82,.65,1.27,1.66,1.19,2.7-.17,.78-1.37,1.51-2.28,1.88-.92,.16-1.86,.21-2.79,.13-2.74,.29-5.49,.63-9.15,1.05,2.14,3.22,3.85,5.74,5.49,8.3s1.57,4.34-.13,5.34c-1.95,.85-4.23,.08-5.26-1.78-1.15-1.67-2.12-3.45-3.21-5.16s-2.2-3.31-3.8-5.68c-1.88,2.89-3.37,5.16-4.83,7.44-.59,1.1-1.24,2.16-1.94,3.2-2.32,2.93-3.34,2.87-6.4-.51,1.77-3.37,3.63-6.91,5.88-11.18-3.14-.04-5.56-.09-7.98-.12-1.57-.02-3.14,.09-4.68-.07-1.88-.19-3.41-1.29-3.36-3.25,.11-1.82,1.66-3.21,3.48-3.14,1.4-.12,2.83-.04,4.22-.04h10.27c-3.59-5.79-6.73-10.84-9.77-15.74,3.23-3.97,3.33-3.97,7.17,.08Z"/>
        <path id="Path_495" data-name="Path 495" class="cls-2" d="M156.12,104.68c-1.46,2.6-2.78,4.91-4.08,7.22-.91,1.6-2.45,2.35-3.89,1.35-.98-.9-1.52-2.17-1.49-3.5,.27-1.37,.82-2.66,1.61-3.81,1.27-2.44,2.61-4.85,4.37-8.12-3.02-.05-5.13-.1-7.24-.13-2.2-.03-4.4,.06-6.56-.07-1.8,.11-3.34-1.26-3.45-3.06,0-.04,0-.08,0-.11,0-1.96,1.55-2.98,3.43-3.21,1.25-.09,2.5-.11,3.75-.06h9.58c-1.86-3.16-3.39-5.63-4.78-8.16-.84-1.29-1.42-2.73-1.69-4.25,.1-1.15,.72-2.19,1.69-2.83,.98-.25,2.02,0,2.76,.69,1.48,1.8,2.85,3.7,4.08,5.68,1.19,1.8,2.3,3.66,3.77,6,2.22-3.87,4.18-7.32,6.16-10.74,1.01-1.75,1.91-3.9,4.56-2.86,2.25,.88,2.48,2.66,.83,5.91-.92,1.81-2.06,3.49-3.01,5.28-.78,1.46-1.42,2.99-2.49,5.28h5.31c1.88,0,3.77-.08,5.63,.02,2.61,.13,4.54,1.64,4.22,3.37-.32,1.95-2.11,3.31-4.08,3.1-3.39,.03-6.8,0-11.2,0,2.29,3.8,4.13,6.76,5.89,9.79,.91,1.25,1.56,2.67,1.91,4.18,.06,1.33-.48,2.61-1.47,3.49-1.44,.98-2.96,.22-3.91-1.35-1.84-3.07-3.7-6.15-5.61-9.18-.63-1.01-1.46-1.92-2.43-3.19-.82,1.23-1.41,2.09-2.16,3.26Z"/>
        <path id="Path_498" data-name="Path 498" class="cls-2" d="M1279.23,483.16c.63,.94,1.01,1.61,1.41,2.28,.93,1.34,.61,3.18-.73,4.11-.16,.11-.33,.21-.51,.29-1.75,1.15-3.03,.09-3.96-1.26-1.69-2.43-3.22-4.97-4.82-7.46-.91-1.42-1.82-2.83-2.96-4.6-1.26,2.09-2.29,3.82-3.33,5.54-.89,1.46-1.73,2.97-2.72,4.36-.94,1.33-2.13,2.4-3.92,1.36-1.61-.91-2.17-2.95-1.26-4.55,.06-.11,.14-.22,.21-.33,1.42-2.56,2.99-5.06,4.96-8.35-3.96-.06-7.29-.05-10.6-.19-1.55-.04-3.08-.24-4.59-.61-1.39-.37-2.9-1.29-2.32-2.92,.53-1.25,1.54-2.23,2.8-2.73,1.53-.31,3.1-.37,4.65-.19,3.21-.02,6.42,0,10.67,0-2.47-4.12-4.37-7.24-6.23-10.41-.85-1.09-1.45-2.36-1.75-3.7-.05-1.31,.54-2.56,1.57-3.37,1.29-.24,2.62,.18,3.53,1.12,1.68,2.25,3.22,4.6,4.61,7.04,1.08,1.68,2.14,3.37,3.59,5.65,2.2-3.58,4.06-6.73,6.04-9.81,.7-1.38,1.7-2.59,2.92-3.54,1.19-.55,2.55-.55,3.74,0,.54,.28,.77,2.35,.31,3.21-1.82,3.62-3.94,7.08-5.93,10.61-.45,.79-.85,1.61-1.5,2.84,3.95,.45,7.55,.86,11.16,1.26,.63,.07,1.26,0,1.88,.06,1.41-.02,2.58,1.1,2.6,2.52,0,.07,0,.14,0,.22,.16,1.38-.83,2.62-2.21,2.78-.1,.01-.2,.02-.3,.02-2.49,.14-5,.07-7.49,.08h-4.81c1.93,3.18,3.5,5.8,5.28,8.7Z"/>
        <path id="Path_503" data-name="Path 503" class="cls-1" d="M454.27,89.39c-1.33-3.29-2.75-6.23-4.18-9.18-.48-.98-.94-1.98-1.45-2.94-.85-1.32-.47-3.09,.86-3.94,.07-.04,.14-.09,.21-.12,1.73-1.22,3.02-.14,3.93,1.17,1.32,1.92,2.41,4,3.56,6.04,1.28,2.25,2.51,4.53,4.18,7.53,2-3.3,3.45-5.78,5.02-8.21,.68-1.22,1.54-2.34,2.54-3.31,.71-.61,2.3-1.18,2.83-.81,.93,.73,1.49,1.83,1.52,3.01-.29,1.51-.84,2.96-1.65,4.28-1.11,2.2-2.35,4.32-3.96,7.25h6.59c2.2,0,4.37-.02,6.56,.05,1.41-.12,2.65,.93,2.77,2.34,0,.07,0,.15,0,.22,.21,1.44-.79,2.79-2.23,3-.2,.03-.4,.04-.6,.02-4.47,.31-8.94,.54-14.25,.86,1.88,4.88,4.2,8.69,6.14,12.68,.34,.69,.94,1.27,1.26,1.98,.65,1.43,.59,3.06-.89,3.64-1.27,.32-2.61,.16-3.77-.46-.84-.42-1.33-1.67-1.88-2.6-1.94-3.36-3.84-6.73-6.12-10.75-1.98,3.3-3.7,6.15-5.39,9.02-.47,.8-.8,1.7-1.31,2.49-.86,1.75-2.98,2.47-4.74,1.61-1.42-.88-1.86-2.75-.98-4.17,.07-.12,.15-.23,.24-.34,2.05-3.49,4.09-6.99,6.11-10.51,.31-.52,.48-1.12,1.01-2.4-2.26-.03-4.17-.06-6.07-.07-2.18-.02-4.37,.02-6.56-.03-1.83-.03-3-.89-2.98-2.83s1.26-2.72,3.05-2.83c.78,.03,1.56,.01,2.34-.04,2.79-.38,5.56-.94,8.28-1.68Z"/>
        <path id="Path_505" data-name="Path 505" class="cls-1" d="M212.04,719.8c.65-1.21,1.11-2.14,1.77-3.53h-9.29c-1.1,0-2.2,0-3.28-.03-1.81-.04-3.03-.83-3.04-2.78s1.18-2.74,2.98-2.88c3.53-.26,7.06-.53,11.36-.86-1.29-2.77-2.24-4.83-3.22-6.88-.94-1.97-1.91-3.94-2.97-5.85-.96-1.32-.67-3.18,.65-4.14,.15-.11,.3-.2,.46-.28,1.75-1.07,3.03,.04,3.87,1.43,1.62,2.65,3.04,5.44,4.61,8.13,.91,1.57,1.94,3.04,3.23,5.04,1.96-3.25,3.52-5.91,5.16-8.52,.59-1.09,1.39-2.07,2.33-2.88,.82-.62,1.87-.83,2.87-.59,.85,.61,1.36,1.59,1.36,2.64-.25,1.52-.76,2.98-1.5,4.32-1.16,2.32-2.49,4.55-4.13,7.49h10.55c1.08-.17,2.18-.1,3.22,.2,1.03,.52,1.77,1.47,2.03,2.59-.2,1.14-.94,2.12-1.99,2.62-1.37,.29-2.77,.39-4.16,.3-3.37,.29-6.72,.63-10.93,1.01,2.27,4.5,4.2,8.35,6.15,12.19,.29,.55,.69,1.04,1.01,1.57,1.03,1.68,1.17,3.37-.69,4.46-1.47,.87-3.36,.39-4.23-1.07-.06-.1-.11-.2-.16-.31-1.59-2.51-2.98-5.11-4.45-7.69-.82-1.44-1.6-2.91-2.77-5.02-2.14,3.66-3.92,6.69-5.69,9.73-.55,.94-.85,2.36-1.66,2.74-1.29,.68-2.79,.87-4.21,.54-1.2-.57-1.71-2-1.14-3.2,.07-.14,.15-.28,.24-.4,1.8-3.27,3.61-6.55,5.63-10.09Z"/>
        <path id="Path_507" data-name="Path 507" class="cls-1" d="M692.8,472.22c-1.11,2.31-2.93,2.03-4.63,2.04-2.92,.02-5.85,0-9.57,0,1.15,2.05,1.82,3.37,2.61,4.62,1,1.57,2.18,3.05,3.14,4.67,1.5,2.54,1.33,4.54-.37,5.34-2.14,1.01-3.58-.17-4.73-1.83-.8-1.16-1.52-2.36-2.31-3.53-1.55-2.32-3.14-4.62-5.17-7.63-1.39,2.2-2.53,3.92-3.62,5.69-1.15,1.86-2.17,3.8-3.39,5.61-.91,1.35-2.16,2.46-3.9,1.31-1.56-.81-2.17-2.72-1.37-4.29,.03-.07,.07-.13,.11-.19,1.33-2.48,2.81-4.87,4.19-7.31,.29-.5,.48-1.05,1.08-2.38h-5.94c-2.2,0-4.4-.04-6.57-.02-1.64,.18-3.12-1.01-3.3-2.65-.02-.17-.02-.34-.01-.51-.07-2.03,1.55-2.51,3.24-2.51,3.14-.03,6.26,.02,9.39-.03,1.5-.02,2.99-.15,5.25-.28-2.49-3.85-4.58-7.07-6.68-10.29-.77-1.17-1.6-2.32-2.34-3.51-1.02-1.18-.89-2.97,.3-3.98,.08-.07,.16-.13,.24-.18,1.34-.97,3.21-.68,4.18,.66,0,.01,.02,.02,.02,.03,.82,.94,1.58,1.93,2.28,2.96,2.03,2.93,4.03,5.89,6.52,9.53,1.84-2.89,3.37-5.3,4.9-7.71,.97-1.78,2.07-3.49,3.29-5.11,.79-.89,1.92-1.4,3.12-1.41,1.68,.22,1.96,1.88,1.74,3.35-.19,1.21-.58,2.38-1.17,3.45-1.98,3.53-4.08,7-6.39,10.93,1.02,.33,2.07,.56,3.14,.69,2.98,.08,5.96-.09,8.92,.04,2.43,.13,4.3,1.06,3.82,4.42Z"/>
        <path id="Path_510" data-name="Path 510" class="cls-1" d="M400.4,477.87c1.46,2.42,2.78,4.55,3.96,6.74,.99,1.26,.78,3.08-.48,4.07-.05,.04-.1,.07-.15,.11-1.37,.98-3.28,.67-4.26-.7-.08-.12-.16-.24-.23-.37-2-2.97-3.83-6.06-5.74-9.09-.47-.76-1-1.48-1.83-2.73l-4.73,7.9c-.56,.94-.94,2.3-1.75,2.68-1.19,.53-2.54,.61-3.79,.21-1.18-.38-1.83-1.64-1.45-2.82,.08-.24,.19-.46,.34-.66,.86-1.48,1.75-2.94,2.56-4.45s1.5-2.99,2.59-5.2c-3.56-.07-6.45-.14-9.33-.19-1.41-.03-2.83-.03-4.21-.04-1.88-.03-3.51-.53-3.54-2.8s1.5-2.86,3.45-2.86c3.28,0,6.56,.02,9.84-.03,1.34-.02,2.66-.19,4.67-.34-2.07-3.42-3.81-6.28-5.54-9.18-.87-1.47-1.72-2.97-2.55-4.46-.96-1.74-.17-2.99,1.2-4.02,1.69-1.26,3.05-.39,3.98,.99,2.08,3.11,3.96,6.34,5.94,9.51,.56,.91,1.19,1.76,2.26,3.32,1.62-2.57,2.94-4.74,4.33-6.87,1.27-2.14,2.69-4.19,4.23-6.14,.66-.77,2.67-1.45,3.11-1.08,.95,.92,1.48,2.18,1.49,3.5-.26,1.37-.82,2.67-1.64,3.8-1.99,3.47-4.08,6.91-6.55,11.05,4.2,0,7.73-.03,11.25,0,3.32,.04,5.39,1.32,5.4,3.22s-2.11,3.22-5.37,3.26c-2.91,.03-5.83,0-9.29,0,.69,1.51,1.15,2.45,1.8,3.65Z"/>
        <path id="Path_511" data-name="Path 511" class="cls-2" d="M463.63,601.42c-.5-.8-.85-1.32-1.59-2.43-1.4,1.94-2.63,3.62-3.8,5.32-1.34,1.92-2.49,3.98-3.96,5.8-2.35,2.94-3.35,2.83-6.41-.73,2.7-4.49,5.49-9.14,8.55-14.22-1.02-.33-2.07-.56-3.14-.69-3.29-.07-6.57,.02-9.85-.02-1.81,.18-3.45-1.08-3.75-2.88-.35-2.26,1.62-2.94,3.24-3.29,1.85-.27,3.72-.38,5.59-.31,1.71-.04,3.41,0,5.96,0-1.35-2.4-2.39-4.24-3.43-6.07-.81-1.14-1.5-2.36-2.05-3.64-.74-1.49-.12-3.3,1.37-4.04,0,0,0,0,0,0,1.43-.73,3.19-.16,3.92,1.27,.02,.04,.04,.08,.06,.12,1.41,2.25,2.86,4.47,4.3,6.7,.92,1.42,1.84,2.83,3.14,4.81,1.84-2.86,3.38-5.34,5.02-7.74,1.17-1.84,2.49-3.58,3.95-5.2,.81-.61,1.87-.77,2.83-.43,.87,.55,1.42,1.48,1.47,2.51-.27,1.52-.81,2.97-1.6,4.29-1.09,2-2.39,3.87-4.02,6.48h9.62c1.92,0,3.39,.54,3.6,2.78,.18,2.05-.83,3.3-3.38,3.59-2.18,.16-4.38,.2-6.56,.14-1.83,.02-3.64,0-6.42,0,2.42,3.95,4.33,7.07,6.25,10.18,.82,1.33,1.7,2.62,2.55,3.93,1.02,1.18,.89,2.97-.29,3.99-.07,.06-.15,.12-.22,.17-1.31,1.09-3.25,.9-4.34-.41-.08-.1-.16-.2-.23-.31-2.19-3.06-4.17-6.23-6.39-9.65Z"/>
        <path id="Path_512" data-name="Path 512" class="cls-1" d="M1247.05,230.73c-1.46-3.45-.69-5.11,2.37-5.4,2.48-.23,4.99-.07,7.5-.08h5.92c-.99-2.15-1.57-3.68-2.38-5.1-1.43-2.59-3.02-5.1-4.48-7.68-1.32-2.33-1.08-4.29,.8-5.27,2.24-1.17,3.45,.46,4.44,2.09,1.86,3.06,3.64,6.18,5.48,9.26,.36,.63,.85,1.17,1.62,2.23,1.74-2.95,3.2-5.47,4.71-7.95,.77-1.35,1.63-2.65,2.57-3.88,1.05-1.3,2.39-2.13,4.03-.85,1.41,.81,1.89,2.6,1.08,4.01-.09,.15-.19,.3-.3,.43-2.53,4.11-4.85,8.34-7.5,12.94,1.03,.3,2.08,.51,3.14,.63,3.14,.08,6.25,0,9.38,.04,1.98,.02,3.41,.82,3.3,3.04-.09,1.95-1.44,2.62-3.21,2.63-1.88,.02-3.75,.03-5.63,.03h-5.45c2.08,3.65,3.72,6.57,5.41,9.47s1.83,4.8,.31,5.91c-1.69,1.26-3.62,.43-5.54-2.58-2.08-3.24-4.01-6.57-6.41-10.55-1.44,2.27-2.51,3.91-3.54,5.58-1.06,1.73-2.08,3.47-3.09,5.24-.53,1.49-2.17,2.27-3.67,1.74-.22-.08-.43-.18-.62-.31-1.5-.95-1.95-2.93-1-4.43,.03-.05,.06-.1,.1-.14,1.53-3.05,3.34-5.96,5.46-9.67-2.1-.13-3.7-.19-5.3-.31-3.06-.26-6.13-.52-9.49-1.04Z"/>
        <path id="Path_516" data-name="Path 516" class="cls-2" d="M370.51,227.18c1.09-2.33,2.91-2.05,4.61-2.06,3.86-.02,7.73,0,12.56,0-1.91-3.39-3.38-6.04-4.87-8.68-.92-1.63-1.92-3.22-2.75-4.9-1.15-2.32-.85-4.13,.63-4.91,1.65-.86,3.63,0,4.94,2.22,1.43,2.42,2.77,4.89,4.19,7.32,.7,1.2,1.5,2.36,2.47,3.87,3.93-4.13,5.13-10.06,9.5-13.47,3.62,1.69,4.15,2.69,2.63,5.67-1.57,3.05-3.45,5.96-5.12,8.93-.58,1.03-1.01,2.15-1.88,4.02,3.27,0,5.86-.03,8.45,0,1.4-.05,2.81,.04,4.19,.27,1.59,.14,2.77,1.55,2.63,3.14,0,.06-.01,.11-.02,.17,.05,1.55-1.17,2.84-2.72,2.89-.1,0-.2,0-.3,0-1.72,.06-3.45,0-5.16,.04-1.5,.03-3.01,.13-5.28,.23,1.22,2.34,2.14,4.08,3.04,5.82,1.03,1.74,1.94,3.56,2.72,5.42,.52,1.49,.49,3.47-1.32,3.98-1.32,.14-2.62-.36-3.51-1.34-1.81-2.54-3.48-5.17-5-7.89-.79-1.3-1.5-2.65-2.61-4.61-1.77,2.87-3.22,5.18-4.63,7.52-1.34,2.22-1.88,5.15-5.19,5.55-3.3-2.23-3.39-2.3-1.88-5.34,1.44-2.9,3.08-5.71,4.94-9.13-1.21-.48-2.46-.84-3.74-1.06-2.65-.13-5.32-.03-7.98-.04-2.21,0-3.72-.75-3.54-3.64Z"/>
        <path id="Path_517" data-name="Path 517" class="cls-1" d="M1321.03,365.49c-.26,.53-.55,1.03-.87,1.52-1.27,1.63-2.88,2.69-4.82,1.3-1.75-1.26-1.26-3.04-.34-4.63,1.62-2.83,3.32-5.65,4.97-8.48,.46-.78,.82-1.61,1.57-3.12h-9.67c-1.25,.07-2.5,.02-3.74-.13-1.64-.3-3.09-1.22-2.9-3.07,.18-1.77,1.49-2.56,3.35-2.51,3.74,.07,7.49,.02,12.15,.02-1.75-3.18-3.18-5.82-4.64-8.44-.64-.88-1.2-1.83-1.65-2.83-.46-1.51-.61-3.23,1.07-4.18,1.35-.88,3.16-.5,4.04,.86,.11,.17,.2,.35,.28,.54,1.76,2.95,3.57,5.87,5.36,8.79,.39,.65,.8,1.29,1.62,2.6,1.77-2.83,3.25-5.25,4.8-7.62,.83-1.31,1.75-2.56,2.78-3.72,.82-1.05,2.33-1.24,3.38-.43,.13,.1,.25,.21,.35,.34,1.25,.79,1.62,2.44,.82,3.69,0,0,0,.01-.01,.02-1.91,3.17-3.77,6.36-6.17,10.4,4.12,0,7.32-.03,10.53,0,3.39,.03,5.4,1.17,5.54,3.08,.15,2.07-1.99,3.38-5.65,3.42-3.22,.03-6.45,0-10.48,0,1,1.96,1.53,3.19,2.23,4.32,1.78,2.93,3.7,5.79,5.43,8.75,1.42,2.41,1.07,4.14-.89,5.21-2.08,1.13-3.27-.28-4.23-1.74-2.15-3.25-4.16-6.59-6.28-9.89-.57-.77-1.18-1.5-1.83-2.2-3.37,1.78-3.95,5.33-6.08,8.1Z"/>
        <path id="Path_519" data-name="Path 519" class="cls-2" d="M21.82,352.09c-1.21-.02-2,0-2.78-.04-1.8-.13-2.99-.94-2.97-2.89s1.29-2.72,3.08-2.75c2.65-.04,5.31-.02,7.97-.05,1.08-.02,2.16-.12,3.37-.19,.42-2.2-.98-3.63-1.82-5.18-1.03-1.91-2.2-3.77-3.43-5.58-.95-1.18-.77-2.92,.41-3.87,.09-.08,.19-.15,.3-.21,.95-1.01,2.54-1.06,3.55-.11,.2,.19,.37,.41,.5,.66,1.82,2.51,3.4,5.2,5.1,7.81,.65,1,1.35,1.96,2.48,3.59,1.53-2.2,2.76-3.91,3.91-5.65,.85-1.66,1.87-3.24,3.03-4.71,.94-.91,2.27-1.31,3.55-1.08,.89,.41,1.4,2.17,1.57,3.41,.12,.76-.63,1.69-1.08,2.49-1.55,2.67-3.14,5.32-5.16,8.71h11.52c1.59,0,3.21-.03,4.02,1.7,.85,1.58,.25,3.55-1.33,4.4-.57,.31-1.22,.43-1.86,.37-3.89,.14-7.78,.03-12.5,.03,1.73,3.02,3.14,5.51,4.59,7.99,1.29,1.95,2.46,3.97,3.53,6.06,.9,1.45,.46,3.35-.99,4.25-.11,.07-.22,.13-.34,.18-1.44,.71-3.18,.12-3.88-1.32-.03-.05-.05-.1-.07-.16-.47-.8-1.09-1.52-1.57-2.33-1.35-2.28-2.64-4.61-4.02-6.87-.79-1.3-1.72-2.51-2.98-4.34-1.74,2.73-3.2,5.04-4.67,7.33-.64,1.07-1.35,2.1-2.12,3.08-2.38,2.83-3.42,2.69-6.23-.89,2.38-4.15,4.84-8.44,7.46-12.99-3.27-1.67-6.55-.5-10.11-.85Z"/>
        <path id="Path_521" data-name="Path 521" class="cls-1" d="M1452.58,822.17c1.19-2.05,2.22-3.8,3.26-5.55,.31-.53,.63-1.39,1.05-1.48,1.4-.46,2.9-.56,4.35-.29,1.59,.58,1.37,2.24,.59,3.61-2,3.53-4.02,7.05-6.01,10.58-.45,.78-.81,1.61-1.57,3.14,3.77,0,6.97-.03,10.16,0,3.37,.03,5.39,1.2,5.53,3.1,.15,2.07-1.97,3.35-5.67,3.39-2.49,.03-4.97,0-8.3,0,1.57,2.83,2.85,5.08,4.08,7.35,.67,1.24,1.24,2.53,1.91,3.77,.87,1.39,.45,3.22-.94,4.09-.15,.1-.32,.18-.49,.25-1.78,1.1-3.07-.07-3.91-1.42-1.82-2.91-3.43-5.96-5.12-8.94-.53-.94-1.08-1.88-1.99-3.45-1.88,3.14-3.52,5.85-5.2,8.54-.72,1.2-1.52,2.35-2.4,3.45-.85,1.05-2.11,1.75-3.21,.63-.86-.79-1.35-1.91-1.34-3.07,.6-1.93,1.41-3.78,2.42-5.52,.94-1.88,2.02-3.73,3.53-6.48-4.28,0-7.64,.02-11.01,0-3.55-.03-4.99-.83-5.09-2.75-.09-2.01,1.35-2.92,4.86-2.95,3.9-.03,7.8,0,12.5,0-1.92-3.51-3.59-6.56-5.27-9.6-.83-1.5-1.73-2.98-2.5-4.51-.95-1.28-.68-3.08,.6-4.03,.06-.04,.11-.08,.17-.12,1.4-.94,3.3-.57,4.24,.83,.08,.12,.15,.24,.21,.37,1.62,2.49,3.02,5.1,4.52,7.66,.76,1.28,1.55,2.55,2.83,4.64,1.31-2.16,2.16-3.55,3.19-5.24Z"/>
        <path id="Path_523" data-name="Path 523" class="cls-1" d="M470.8,339.13c-1.09,1.92-1.99,3.55-3.25,5.82,1.53,.57,3.1,1.01,4.71,1.3,2.32,.21,4.71-.03,7.04,.08,2.4,.12,4.18,1.57,3.9,3.12-.37,2.08-1.86,2.62-3.82,2.58-3.9-.07-7.8-.02-12.56-.02,1.31,2.58,2.32,4.74,3.47,6.8,1.22,2.17,2.72,4.2,3.87,6.4,1.43,2.73,1.13,4.52-.59,5.29s-3.41-.04-4.91-2.51c-2.11-3.45-4.15-6.97-6.23-10.46-.31-.52-.7-.98-1.42-1.96-2.23,3.53-4.17,6.82-6.35,9.95-.74,1.12-1.85,1.95-3.14,2.33-2.74,.54-4.16-1.46-2.89-3.98,1.19-2.36,2.72-4.55,4.05-6.84,.84-1.44,1.57-2.95,2.72-5.11h-6.19c-2.03,0-4.08,.12-6.1-.07-1.98,0-3.59-1.6-3.6-3.58,.19-2.25,1.96-2.65,3.7-2.8,1.86-.15,3.75-.05,5.63-.06h5.98c-1.65-2.85-2.86-4.94-4.05-7.03-.69-1.22-1.39-2.44-2.08-3.67-.84-1.51-1.17-3.1,.7-3.99,1.54-.98,3.59-.55,4.61,.97,1.3,1.94,2.39,4.02,3.61,6.03,.94,1.57,1.98,3.09,3.37,5.26,1.33-2,2.33-3.5,3.31-5.02,1.11-1.7,2.09-3.48,3.29-5.12,.82-1.49,2.69-2.04,4.18-1.22,.11,.06,.22,.13,.32,.2,1.57,1.07,1.34,2.7,.56,4.2-.48,.98-1.12,1.86-1.88,3.1Z"/>
        <path id="Path_525" data-name="Path 525" class="cls-1" d="M26.42,833.26h6.76l-5.85-9.79c-.48-.8-1.01-1.59-1.42-2.42-.76-1.54-.88-3.14,.73-4.17,1.43-.95,3.35-.57,4.31,.86,.06,.09,.12,.19,.17,.29,1.1,1.51,2.02,3.14,3.02,4.74,1.15,1.83,2.3,3.65,3.8,6.05,1.95-2.83,3.59-5.2,5.21-7.58,.73-1.38,1.63-2.66,2.68-3.8,.97-.67,2.19-.89,3.34-.59,.87,.57,1.41,1.53,1.45,2.56-.11,1.22-.52,2.38-1.2,3.39-1.94,3.18-4.02,6.28-6.56,10.18,3.06,.1,5.46,.19,7.85,.24,1.88,.04,3.77-.02,5.63,.1,1.45-.1,2.71,1,2.81,2.46,.01,.2,0,.39-.03,.59,0,1.4-1.13,2.54-2.54,2.54-.09,0-.18,0-.27-.01-3.14,.05-6.25,.03-9.39,.04-.63,0-1.24,.08-2.1,.14,.49,3.84,3.36,6.31,4.81,9.49,.52,1.13,1.53,2.14,1.7,3.29,.16,1.07-.19,2.9-.88,3.23-1.25,.37-2.6,.28-3.79-.27-.73-.28-1.19-1.37-1.69-2.16-1.74-2.78-3.41-5.59-5.15-8.37-.54-.87-1.24-1.65-2.2-2.91-1.75,2.51-3.24,4.65-4.71,6.79-.97,1.42-1.83,2.92-2.89,4.26-.83,1.45-2.68,1.95-4.14,1.12-.13-.08-.26-.16-.38-.26-1.28-1-1.51-2.86-.5-4.14,.02-.03,.05-.06,.08-.09,1.85-3.05,3.8-6.06,5.96-9.48-1.07-.29-2.16-.5-3.26-.63-3.45-.09-6.88-.04-10.32-.08-1.73-.02-3.1-.6-3.31-2.56-.23-1.6,.88-3.08,2.48-3.3,.05,0,.11-.01,.16-.02,1.83-.33,3.68-.47,5.54-.42,1.22,.06,2.44,.46,4.07,.7Z"/>
        <path id="Path_526" data-name="Path 526" class="cls-2" d="M26.27,1067.56c-1.08-2.16-1.44-3.98,.72-5.18,1.63-.9,3.38,.03,4.87,2.51,1.76,2.94,3.45,5.92,5.41,9.33,2.47-4.01,4.63-7.75,7.06-11.32,.54-.8,2.51-1.66,2.94-1.34,1.1,.96,1.91,2.21,2.34,3.61,.2,.63-.67,1.65-1.13,2.44-1.85,3.23-3.72,6.45-6.02,10.42,4.04,0,7.53-.07,11.02,.03,1.38-.05,2.76,.23,4.02,.8,1.28,.51,1.9,1.96,1.39,3.23-.29,.72-.89,1.27-1.64,1.48-1.44,.58-2.97,.88-4.51,.91-2.63,.14-5.27,.03-8,.03-.55,2.64,1.08,4.12,1.93,5.83,.77,1.53,1.74,2.96,2.51,4.49,.86,1.7,1.01,3.45-.94,4.45-1.6,.8-3.55,.14-4.34-1.46-.02-.04-.04-.07-.05-.11-1.44-2.23-2.66-4.59-4.08-6.84-.63-.99-1.44-1.85-2.7-3.45-1.83,2.88-3.24,5.21-4.74,7.48-.8,1.33-1.75,2.56-2.83,3.68-.67,.6-1.59,.83-2.47,.63-.89-.54-1.48-1.46-1.59-2.5,.22-1.68,.73-3.31,1.51-4.81,1.08-2.22,2.41-4.3,4.13-7.29-2.97-.02-5.2-.04-7.44-.05-1.57,0-3.14,.05-4.71,0-2.79-.11-4.61-1.34-4.54-3.02,.07-1.75,1.83-3.23,4.45-3.4s5.32-.08,7.97-.09h4.46c-.51-4.14-3.34-6.85-5.01-10.49Z"/>
        <path id="Path_528" data-name="Path 528" class="cls-2" d="M170.11,832.22c2.14,0,3.86-.06,5.58,.04,1.42-.07,2.63,1.02,2.7,2.44,0,.07,0,.15,0,.22,.05,1.92-1.03,2.81-2.88,2.95-3.22,.26-6.46,.56-10.63,.94,1.88,3.32,3.34,5.94,4.81,8.57,.84,1.12,1.49,2.36,1.92,3.69,.14,1.17-.28,2.33-1.13,3.14-1.1,.43-2.34,.34-3.37-.25-.98-.58-1.54-1.88-2.24-2.9-1.79-3.33-4-6.42-6.57-9.19-1.42,2.35-2.68,4.49-4,6.59-.64,1.07-1.37,2.08-2.17,3.03-.89,1.42-2.77,1.85-4.19,.96-.12-.08-.24-.16-.35-.26-1.46-1.18-1.17-2.71-.27-4.21,1.64-2.74,3.22-5.53,5.35-9.2-4.53,0-8.06,.03-11.59,0-3.69-.03-5.82-1.34-5.65-3.41,.14-1.88,2.16-3.05,5.53-3.09,3.74-.03,7.48,0,11.84,0-1.79-3.06-3.31-5.71-4.86-8.34-.4-.67-.94-1.26-1.31-1.94-1.43-2.6-1.3-4.55,.43-5.34,2.15-.99,3.59,.18,4.71,1.86,1.03,1.57,1.96,3.19,2.96,4.77,.75,1.18,1.5,2.38,2.32,3.51,.25,.35,.74,.52,1.62,1.1,.82-1.05,1.71-2.02,2.4-3.12,1.5-2.36,2.75-4.92,4.4-7.16,2.22-2.99,3.33-2.85,6.39,.61-2.38,4.29-4.84,8.72-7.68,13.83,2.23,.04,3.87,.09,5.92,.15Z"/>
        <path id="Path_529" data-name="Path 529" class="cls-7" d="M399.46,710.48c3.65,.02,6.93,.03,10.21,0,1.88,0,3.49,.36,3.71,2.62,.19,1.91-1.02,2.98-3.77,3.05-3.54,.11-7.09,.03-10.88,.03,1.01,6.64,8.11,10.23,7.08,17.06-4.08,.94-4.57,.79-6.37-2.15-2.2-3.56-4.33-7.15-6.84-11.32-1.77,3.03-3.21,5.52-4.68,8-.58,1.1-1.25,2.15-2,3.14-.79,1.28-2.46,1.67-3.74,.89-.13-.08-.26-.18-.38-.28-.8-1.05-1.07-2.42-.72-3.7,.98-2.29,2.13-4.51,3.42-6.64,.78-1.46,1.53-2.94,2.6-5h-11.88c-1.09,.03-2.19,0-3.28-.09-1.52-.14-2.64-1.49-2.5-3.02,.13-1.37,1.24-2.44,2.61-2.51,2.49-.13,4.99-.08,7.5-.1h6.44c-.88-2.75-2.21-5.33-3.95-7.63-.84-1.12-1.56-2.33-2.14-3.61-.8-1.45-.34-3.28,1.05-4.18,1.35-.88,3.15-.51,4.04,.84,.11,.17,.21,.35,.28,.54,1.39,2.26,2.83,4.48,4.29,6.7,.74,1.13,1.54,2.22,2.69,3.86,1.68-2.99,3.02-5.42,4.42-7.81,.87-1.65,1.88-3.23,3.01-4.71,.95-1.19,2.69-1.39,3.88-.43,.1,.08,.2,.17,.29,.26,.68,.94,.86,2.15,.49,3.24-1.65,3.53-3.64,6.91-5.42,10.36-.41,.79-1.67,1.84,.55,2.58Z"/>
        <path id="Path_531" data-name="Path 531" class="cls-1" d="M1318.47,574.95c2.45,2.97,4.53,5.87,6.65,8.75,.7,.94,1.51,1.81,2.74,3.27,2.45-3.53,4.55-6.55,6.63-9.58,2.25-3.3,4.1-4.21,5.84-2.86,1.53,1.18,1.32,3.11-.73,6.28-1.41,2.2-2.83,4.37-4.63,7.17h10.41c1.69,0,3.54,.44,3.25,2.38-.44,1.41-1.51,2.54-2.89,3.06-1.84,.3-3.71,.39-5.58,.28-2.28,.19-4.55,.56-7.63,.96,1.55,2.64,2.67,4.61,3.85,6.54,1.38,2.26,2.93,4.44,4.18,6.76,1.18,2.22,.75,3.97-.99,4.78-1.81,.84-2.97-.25-3.89-1.6-2.2-3.21-4.35-6.47-6.55-9.7-.41-.6-.9-1.14-1.57-1.97-2.28,3.37-4.35,6.47-6.46,9.54-.69,1.04-1.45,2.03-2.25,2.98-.92,1.04-2.2,1.6-3.24,.48-.8-.85-1.25-1.97-1.26-3.14,.31-1.19,.87-2.31,1.65-3.27,2.16-3.53,4.35-7.05,7.02-11.35h-16.29c-1.4-4.71-.85-5.5,3.21-5.81,3.18-.24,6.59,.94,9.94-1.64-1.5-2.32-3.01-4.61-4.45-6.96-2.15-3.5-1.55-4.67,3.03-5.35Z"/>
        <path id="Path_533" data-name="Path 533" class="cls-1" d="M49.83,581.29c-1.33,2.11-2.48,3.91-4.18,6.53,2.89,.04,4.99,.09,7.09,.12,1.26,.02,2.51-.02,3.75,.06,1.52,.06,2.71,1.35,2.65,2.87-.06,1.37-1.12,2.5-2.49,2.63-2.2,.16-4.4,0-6.56,.17-2.11,.16-4.2,.57-7.19,.99,2.61,4.05,4.86,7.38,6.91,10.83,.89,1.44,1.49,3.04,1.79,4.71,0,1.05-.52,2.03-1.39,2.61-.99,.28-2.05,.03-2.83-.65-1.66-2.06-3.2-4.2-4.64-6.42-1.29-1.86-2.55-3.77-4.25-6.28-2.72,3.96-4.89,7.32-7.27,10.52-.75,1.11-1.86,1.94-3.14,2.35-2.74,.56-4.23-1.46-2.91-3.95,1.39-2.61,3.14-5.02,4.76-7.51,1.17-1.81,2.34-3.62,4.08-6.28h-7.09c-2.81,.1-5.63,.03-8.44-.19-1.1-.39-1.96-1.27-2.31-2.39-.36-1.22,.35-2.5,1.57-2.86,.21-.06,.43-.09,.66-.09,1.86-.19,3.75-.04,5.62-.2,2.13-.18,4.25-.52,6.51-.82-.84-4.77-6.4-7.3-4.82-12.56,1.89-1.23,4.42-.69,5.64,1.2,.13,.2,.24,.42,.34,.64,1.59,2.51,3.14,5.02,4.76,7.52,.48,.74,1.12,1.37,2.08,2.53,1.45-2.31,2.65-4.24,3.89-6.15,.94-1.44,1.91-2.86,2.89-4.28,2.04-2.97,3.41-3.65,5.11-2.57,1.57,1.01,1.62,2.94,.08,5.84-.12,.28-.32,.52-.67,1.08Z"/>
        <path id="Path_534" data-name="Path 534" class="cls-1" d="M623.41,592.87c-1.82,.69-3.72,1.16-5.65,1.38-2.75,.19-5.53,.04-9.33,.04,1.88,2.99,3.25,5.16,4.61,7.32,.8,1.15,1.51,2.36,2.13,3.62,.63,1.4,.49,3.09-1.04,3.6-1.27,.37-2.64,.15-3.73-.61-1.43-1.64-2.7-3.41-3.8-5.29-.89-1.26-1.83-2.48-2.9-3.95-4.3,3.27-4.81,9.33-9.48,11.93-3.57-2.16-3.89-3.22-1.91-6.63,1.76-3.05,3.61-6.05,5.83-9.77-4.02-.44-7.22-.81-10.4-1.1-1.24-.12-2.49,0-3.75-.03-1.79-.03-3.05-.77-3.14-2.72s1.12-2.85,2.92-2.91c2.2-.08,4.37-.03,6.56-.03h5.85c-1.81-2.89-3.09-4.95-4.37-7-.66-1.06-1.35-2.09-1.99-3.16-.87-1.31-.52-3.08,.79-3.95,.07-.05,.15-.09,.22-.13,1.06-.94,2.68-.85,3.62,.21,.16,.18,.29,.38,.4,.6,1.91,2.65,3.65,5.43,5.49,8.16,.68,1.01,1.43,1.99,2.58,3.61,1.35-2.13,2.48-3.88,3.59-5.65,1.08-1.71,2.07-3.5,3.25-5.13,.79-1.49,2.63-2.06,4.12-1.27,.12,.07,.24,.14,.36,.22,1.32,.9,1.65,2.7,.75,4.02-.04,.06-.08,.11-.12,.16-1.27,2.31-2.68,4.57-4.01,6.86-.3,.51-.52,1.05-1.13,2.32,3.51,.07,6.54,.07,9.56,.21,3.82,.18,4.46,.95,4.14,5.07Z"/>
        <path id="Path_535" data-name="Path 535" class="cls-1" d="M1457.26,584.41c-.69,1.41-1.18,2.51-2,4.32,3.22,0,5.96-.03,8.67,.02,1.23-.13,2.48,0,3.65,.41,1.05,.57,1.79,1.57,2.03,2.74,.03,1.37-1.06,2.5-2.42,2.53-.11,0-.23,0-.34-.02-3.14,0-6.24,0-9.37,.05-.91,0-1.82,.14-2.99,.23,.43,2,1.4,3.86,2.8,5.35,1.18,1.83,2.37,3.67,3.6,5.48,1.15,1.7,.4,2.93-.92,4.03-.96,.93-2.49,.9-3.41-.05-.11-.11-.21-.23-.29-.36-1.11-1.31-2.15-2.67-3.12-4.08-1.33-1.88-2.59-3.8-4.19-6.18-1.74,2.83-3.18,5.19-4.62,7.53-.52,.96-1.1,1.88-1.75,2.75-2.34,2.8-3.42,2.66-6.22-.94,2.32-4.18,4.74-8.5,7.37-13.22-1.03-.29-2.08-.49-3.14-.61-3.59-.08-7.19,0-10.78-.09-2.13-.04-3.02-1.34-2.96-3.39-.14-1.52,.99-2.87,2.51-3.01,.12-.01,.24-.01,.37,0,1.88-.1,3.75-.03,5.62-.03h5.29c-.27-5.32-6.59-7.9-4.98-13.47,1.89-1.23,4.42-.69,5.65,1.2,.11,.17,.21,.35,.29,.54,2.15,3.22,4.3,6.44,6.64,9.94,4.35-3.36,4.71-9.48,9.37-12.06,3.14,1.52,3.71,2.35,2.75,4.77-.9,1.94-1.94,3.82-3.1,5.62Z"/>
        <path id="Path_536" data-name="Path 536" class="cls-1" d="M148.29,610.48c-1.04-1.58-.91-3.65,.31-5.09,1.54-2.71,3.21-5.35,4.78-8.05,.48-.95,.89-1.94,1.26-2.94h-7.42c-1.72,0-3.45,.04-5.16-.02-2.95-.1-4.88-1.48-4.79-3.34,.08-1.81,2.05-3.1,5-3.14s5.92,0,9.4,0c-.3-1.04-.69-2.06-1.15-3.04-1.4-2.43-3.07-4.71-4.28-7.24-.37-1.09-.14-2.3,.59-3.19,1.06-.53,2.31-.53,3.37,0,1.15,.8,2.12,1.84,2.83,3.05,2.06,2.93,4.01,5.93,6.36,9.44,1.85-3.12,3.45-5.89,5.11-8.61,.59-1.26,1.43-2.38,2.46-3.31,1.01-.57,2.23-.66,3.31-.25,1.26,.52,1.86,1.97,1.33,3.23-.05,.12-.11,.23-.18,.35-.71,1.39-1.46,2.76-2.2,4.13-.96,1.75-1.94,3.49-3.36,6.05,2.95,.1,5.17,.19,7.41,.24,1.41,.03,2.83-.03,4.22,.07,1.47-.08,2.72,1.04,2.81,2.5,.01,.19,0,.37-.03,.56,0,1.42-1.17,2.56-2.58,2.55-.08,0-.16,0-.24-.01-2.97,.07-5.94,.03-8.92,.08-.9,.02-1.8,.17-3.45,.34,1.38,2.38,2.48,4.34,3.65,6.25,1.01,1.39,1.94,2.83,2.78,4.32,.9,1.37,.52,3.2-.85,4.1-.02,.01-.04,.02-.06,.04-1.26,.92-3.03,.64-3.95-.63-.06-.08-.11-.16-.16-.25-1.79-2.36-3.36-4.89-5.02-7.34-.44-.63-.94-1.23-1.83-2.38-1.95,3.27-3.74,6.26-5.51,9.26-1.32,2.15-2.72,3.98-5.86,2.23Z"/>
        <path id="Path_538" data-name="Path 538" class="cls-2" d="M1384.67,836.46c-2.49,0-4.51,.03-6.53,.03-1.84,0-3.54-.36-3.71-2.61-.16-2.2,1.19-3.01,3.2-3.09,7.28-.28,14.55-.69,21.84-.74,1.47,.21,2.75,1.13,3.4,2.47,.55,1.85-1.09,3.1-2.85,3.61-1.06,.24-2.14,.34-3.22,.3-3.88,.04-7.77,.02-12.12,.04Z"/>
        <path id="Path_540" data-name="Path 540" class="cls-2" d="M180.83,398.9c1.61-.66,3.45,.05,4.21,1.61,3.37,5.59,6.83,11.12,10.17,16.73,.58,.91,.84,1.98,.75,3.05-.27,1.6-1.79,2.67-3.39,2.4-.8-.14-1.5-.59-1.95-1.27-2.07-2.71-3.97-5.55-5.69-8.5-1.81-2.89-3.34-5.98-5.28-8.79-1.54-2.2-1.16-3.7,1.18-5.23Z"/>
        <path id="Path_541" data-name="Path 541" class="cls-2" d="M330.69,226.08c4.03,.31,5.82,1.36,5.86,3.19,.03,1.93-2.05,3.29-5.34,3.31-6.09,.05-12.19,.04-18.29,.07h-.94c-1.94-.03-3.45-.65-3.45-2.89,0-1.96,1.26-2.66,3.05-2.79,3.56-.25,7.13-.63,10.67-.82,2.7-.15,5.36-.05,8.44-.07Z"/>
        <path id="Path_544" data-name="Path 544" class="cls-2" d="M186.85,293.69c-.86,1.61-1.94,3.09-3.21,4.4-1.06,.8-2.43,1.04-3.7,.66-.87-.5-1.18-2.27-1.39-3.54-.1-.63,.52-1.42,.94-2.07,3.09-4.87,6.2-9.73,9.33-14.58,.33-.53,.7-1.03,1.11-1.5,1.12-1.43,3.15-1.76,4.67-.77,1.76,1.11,1.59,2.87,.52,4.51-2.71,4.2-5.42,8.39-8.29,12.88Z"/>
        <path id="Path_547" data-name="Path 547" class="cls-7" d="M1159.11,227.14c5.13-.02,9.81,.03,14.48-.06,1.95-.03,3.44,.49,3.81,2.56,.28,1.54-1.5,3.01-3.88,3.14-6.36,.34-12.72,.59-19.08,.86-.63,.05-1.26,.05-1.88,0-2.22-.28-3.97-1.86-3.67-3.45,.29-1.78,1.86-3.06,3.66-2.98,2.04-.09,4.07-.04,6.56-.06Z"/>
        <path id="Path_549" data-name="Path 549" class="cls-2" d="M429.94,414.4c-1.37,2.12-2.56,3.96-3.83,5.74-.44,.63-1.05,1.5-1.63,1.53-1.32,.19-2.67-.03-3.86-.63-.56-.39-.58-2.37-.12-3.26,1.43-2.76,3.16-5.37,4.84-8,2.02-3.14,4.06-6.31,6.2-9.38,.92-1.32,2.13-2.4,3.96-1.37,1.55,.71,2.23,2.54,1.53,4.09-.11,.25-.26,.48-.43,.69-2.06,3.48-4.33,6.86-6.65,10.59Z"/>
        <path id="Path_551" data-name="Path 551" class="cls-2" d="M1304.48,407.62c-2.83,4.35-5.45,8.41-8.09,12.47-.09,.13-.13,.29-.21,.42-1.57,2.36-3.33,3.14-4.99,2.2s-1.85-3.21-.29-5.78c.81-1.34,1.74-2.59,2.58-3.91,2.2-3.41,4.35-6.85,6.56-10.25,.51-.78,.97-1.88,1.7-2.16,1.19-.55,2.53-.66,3.79-.3,.69,.31,1.09,2.17,.92,3.22-.46,1.45-1.12,2.82-1.97,4.08Z"/>
        <path id="Path_558" data-name="Path 558" class="cls-1" d="M1468.22,293.86c3.26-5.13,6.37-9.97,9.5-14.78,.59-.91,1.11-2.17,1.97-2.51,1.23-.51,2.61-.54,3.86-.07,1.18,.64,1.62,2.12,.98,3.3-.07,.12-.14,.24-.23,.35-3.77,5.88-7.5,11.78-11.34,17.61-.57,1.26-2.06,1.82-3.32,1.25-.09-.04-.19-.09-.27-.14-1.62-.7-2.36-2.58-1.66-4.2,.13-.29,.3-.57,.51-.81Z"/>
        <path id="Path_559" data-name="Path 559" class="cls-2" d="M640.59,274.95c3.53,1.24,3.95,1.88,2.93,4.51-.47,1.16-1.04,2.27-1.71,3.32-2.4,3.81-4.86,7.6-7.3,11.39-.51,.78-.97,1.6-1.53,2.34-1.14,1.49-2.63,2.4-4.45,1.37-1.88-1.09-1.66-2.83-.76-4.49,.74-1.36,1.57-2.67,2.4-3.99,2.54-4.1,5.05-8.22,7.68-12.27,.76-.91,1.69-1.65,2.74-2.19Z"/>
        <path id="Path_561" data-name="Path 561" class="cls-2" d="M1483.51,416.17c.31,.59,.46,.86,.6,1.14,.83,1.61,1.53,3.24-.6,4.4-1.75,.87-3.87,.22-4.83-1.47-3.29-5.28-6.49-10.62-9.71-15.94-.31-.52-.77-1.2-.65-1.69,.12-1.3,.63-2.53,1.45-3.54,.58-.46,2.42,.08,3.29,.73,1.03,.95,1.88,2.07,2.51,3.32,2.63,4.23,5.2,8.5,7.94,13.06Z"/>
        <path id="Path_562" data-name="Path 562" class="cls-2" d="M1061.91,275.98c2.78,.65,3.12,2.31,2.32,4.34-.53,1.3-1.17,2.55-1.92,3.73-2.31,3.7-4.68,7.34-7.04,11.01-.51,.78-.96,1.61-1.53,2.34-1.52,1.94-3.39,2.54-4.8,1.45-1.72-1.33-1.36-2.98-.45-4.6,1-1.76,2.01-3.51,3.08-5.22,2.22-3.56,4.4-7.17,6.79-10.62,.99-1.06,2.2-1.9,3.55-2.45Z"/>
        <path id="Path_564" data-name="Path 564" class="cls-2" d="M1299.5,883.27c.96-.83,1.61-1.67,2.43-1.91,2.54-.74,4.8,1.41,3.52,3.64-3.64,6.31-7.69,12.38-11.78,18.41-.88,.79-2.12,1.06-3.25,.72-.88-.97-1.39-2.22-1.43-3.53-.08-.77,.69-1.67,1.17-2.45,3.01-4.89,6.07-9.77,9.34-14.89Z"/>
        <path id="Path_565" data-name="Path 565" class="cls-1" d="M1147.08,854.96c1.78-2.96,3.4-5.61,5.02-8.28,.28-.55,.6-1.09,.94-1.61,1.01-1.32,2.2-2.24,3.98-1.35,1.48,.61,2.18,2.31,1.56,3.79-.09,.22-.2,.42-.34,.61-3.29,5.82-6.62,11.63-10.29,17.21-1.99,3.02-3.36,2.7-6.18-.91,1.65-2.96,3.39-6.06,5.3-9.45Z"/>
        <path id="Path_567" data-name="Path 567" class="cls-2" d="M183.23,543.28c-1.78-.74-2.63-2.78-1.89-4.57,.12-.29,.28-.57,.48-.82,3.2-5.52,6.62-10.92,9.98-16.34,.96-1.55,2.59-2.2,3.97-1.06,.86,.7,1.07,2.35,1.34,3.62,.11,.49-.36,1.16-.68,1.68-3.06,5.06-6.18,10.09-9.23,15.16-.83,1.42-1.71,2.64-3.97,2.33Z"/>
        <path id="Path_568" data-name="Path 568" class="cls-1" d="M628.3,399.34c1.51-1.27,3.77-1.07,5.03,.45,.25,.3,.45,.63,.59,.99,2.98,5.1,6.13,10.1,9.17,15.16,.39,.65,.98,1.47,.86,2.08-.1,1.31-.63,2.54-1.5,3.52-1.43,1-2.97,.25-3.91-1.31-1.2-1.99-2.42-3.98-3.64-5.96-1.97-3.17-4.02-6.28-5.9-9.5-.9-1.55-2.35-3.13-.71-5.42Z"/>
        <path id="Path_569" data-name="Path 569" class="cls-2" d="M1471.76,542.76c-1.44-.84-1.93-2.7-1.08-4.14,.04-.07,.09-.15,.14-.22,3.45-5.55,6.86-11.1,10.31-16.64,.31-.51,.86-1.16,1.35-1.21,1.14-.26,2.33-.16,3.41,.27,.73,.75,1.04,1.82,.82,2.84-.55,1.44-1.29,2.81-2.2,4.06-2.65,4.4-5.31,8.77-8.03,13.11-.98,1.6-2.1,3.27-4.73,1.92Z"/>
        <path id="Path_572" data-name="Path 572" class="cls-2" d="M89.14,832.31c6.31-.17,12.24-.22,18.19-.29h.94c1.93,.03,3.45,.63,3.45,2.89,0,1.95-1.26,2.65-3.05,2.8-2.94,.23-5.87,.68-8.81,.82-3.12,.15-6.25,0-9.37,.08-2.05,.05-4.02-.38-4.53-2.47-.5-1.93,1.07-3.07,3.19-3.84Z"/>
        <path id="Path_577" data-name="Path 577" class="cls-2" d="M419.51,283.78c-.7-1.06-1.26-1.81-1.73-2.61-1.98-3.33-1.59-4.26,2.7-6.16,.94,.73,1.8,1.56,2.56,2.48,2.96,4.35,5.91,8.73,8.66,13.22,2,3.28,1.93,5.17,.26,6.2-1.76,1.08-3.39,.25-5.49-2.83-2.26-3.33-4.52-6.67-6.96-10.3Z"/>
        <path id="Path_579" data-name="Path 579" class="cls-2" d="M638.16,537.15c-1.65,3.01-2.74,6.26-7.02,4.96-1.19-1.52-1.15-3.67,.09-5.15,3.07-5.2,6.15-10.39,9.42-15.48,.84-1.31,1.98-3.02,4.16-1.81s1.88,3.21,.96,4.84c-2.33,4.19-4.93,8.24-7.61,12.64Z"/>
        <path id="Path_581" data-name="Path 581" class="cls-6" d="M942.33,346.2c5.1,0,9.76-.03,14.44,0,1.24-.01,2.48,.13,3.68,.43,1.63,.49,2.55,2.22,2.06,3.85-.38,1.25-1.51,2.13-2.82,2.19-3.27,.07-6.54,.03-9.8,.04-2.65,0-5.3,.12-7.93-.06-1.92-.13-3.74-.78-3.73-3.28s1.49-3.2,4.09-3.17Z"/>
        <path id="Path_582" data-name="Path 582" class="cls-6" d="M129.25,710.63c.75,1.38,1.82,2.9,1.43,3.72-.78,1.11-2.02,1.8-3.37,1.88-5.47,.18-10.94,.1-16.42-.02-1.1,0-2.16-.35-3.03-1.02-.89-.77-1.42-1.88-1.45-3.05,.38-1.11,1.31-1.94,2.45-2.2,6.69,.03,13.37,.32,20.4,.69Z"/>
        <path id="Path_583" data-name="Path 583" class="cls-5" d="M1196.02,837.52c-4.95,0-9.48,.03-14-.02-1.07,.12-2.16-.05-3.14-.5-.98-.67-1.67-1.7-1.91-2.87-.08-.7,1.07-1.83,1.91-2.27,1.12-.53,2.34-.8,3.58-.8,4.84-.09,9.67-.05,14.51-.06,.47-.02,.93,0,1.4,.04,1.91,.26,3.56,1.34,3.32,3.2-.15,1.17-1.78,2.25-2.94,3.12-.53,.39-1.53,.13-2.73,.16Z"/>
        <path id="Path_587" data-name="Path 587" class="cls-2" d="M329.08,715.22c-4.5,.03-8.57,.05-12.64,.07-1.09,.03-2.19,0-3.28-.11-1.65-.2-2.71-1.31-2.34-2.88,.23-.99,1.36-2.43,2.2-2.49,6.68-.52,13.37-.84,20.07-.98,1.15,.24,2.13,1.01,2.65,2.07,.54,1.24-.03,2.68-1.26,3.22-.14,.06-.28,.11-.42,.14-1.62,.47-3.29,.79-4.97,.96Z"/>
        <path id="Path_588" data-name="Path 588" class="cls-2" d="M1403.28,503.77c-2.55,2.15-3.71,.07-4.71-1.31-1.91-2.65-3.54-5.49-5.24-8.29-1.36-2.27-2.66-4.58-3.94-6.91-.94-1.69-1.73-3.49,.12-5.09,1.43-1.23,3.6-.6,5.06,1.71,2.33,3.68,4.45,7.5,6.65,11.26,1,1.39,1.84,2.88,2.51,4.45,.18,1.41,.03,2.84-.46,4.18Z"/>
        <path id="Path_590" data-name="Path 590" class="cls-2" d="M1398.99,730.7c1.84,2.91,3.51,5.51,5.18,8.12,.42,.65,.83,1.31,1.24,1.97,1.02,1.31,.78,3.19-.52,4.21-.11,.09-.23,.17-.36,.24-1.66,1.26-3.01,.5-4.01-.82-1.49-1.97-2.81-4.08-4.14-6.15-2.09-3.26-4.12-6.56-6.2-9.82-.94-1.46-1.28-2.96,.11-4.21,1.13-1.13,2.96-1.14,4.09,0,.15,.15,.29,.32,.41,.51,1.46,1.8,2.71,3.78,4.21,5.97Z"/>
        <path id="Path_593" data-name="Path 593" class="cls-2" d="M1288.61,282.48c-1.2-2.2-2.76-4.18-.39-6.12,1.62-1.32,3.43-.39,5.51,2.68,2.8,4.13,5.58,8.28,8.34,12.44,.52,.78,.98,1.59,1.37,2.44,.68,1.31,.18,2.92-1.13,3.6-.16,.08-.33,.15-.51,.2-1.12,.31-2.32,.05-3.21-.69-1.81-2.34-3.5-4.77-5.07-7.29-1.59-2.31-3.14-4.66-4.91-7.26Z"/>
        <path id="Path_594" data-name="Path 594" class="cls-2" d="M541.52,483.81c3.38,5.96,6.59,11.62,9.69,17.13-2.83,3.74-4.32,3.99-6.45,.68-3.19-4.96-5.96-10.19-8.87-15.33-.42-.65-.6-1.43-.52-2.2,.18-1.15,.73-2.22,1.55-3.05,.51-.36,1.95,.31,2.83,.78,.7,.56,1.3,1.22,1.78,1.97Z"/>
        <path id="Path_595" data-name="Path 595" class="cls-2" d="M424.97,536.87c-1.66-3.03-3.21-5.73-4.66-8.48-.77-1.34-1.39-2.77-1.83-4.26-.64-1.47,.02-3.17,1.49-3.82,.05-.02,.11-.04,.16-.06,1.51-.61,3.22,.12,3.83,1.62,0,.02,.02,.04,.02,.06,1.26,2.32,2.65,4.57,3.87,6.91,1.67,3.16,3.19,6.4,4.86,9.57,.93,1.38,.57,3.25-.8,4.18-.12,.08-.25,.16-.38,.22-1.99,1.31-3.23-.05-4.22-1.51-.87-1.42-1.65-2.9-2.34-4.42Z"/>
        <path id="Path_600" data-name="Path 600" class="cls-1" d="M105.76,484.67c2.96,5,5.73,9.7,8.53,14.38,.98,1.64,1.34,3.23-.27,4.62-1.62,1.04-3.78,.58-4.83-1.05-.1-.15-.18-.31-.26-.48-3.09-5.05-6.12-10.15-8.93-15.36-.43-1.46-.58-2.98-.46-4.5,3.05-1.21,4.93-.63,6.21,2.39Z"/>
        <path id="Path_601" data-name="Path 601" class="cls-2" d="M1368.77,500.57c2.96-5.89,5.82-11.44,8.77-16.93,1.34-2.49,2.88-3.28,4.33-2.34,1.67,.87,2.32,2.93,1.45,4.6-.05,.1-.1,.19-.16,.28-2.83,5.38-5.65,10.79-8.71,16.03-.87,1.04-2.15,1.65-3.5,1.68-1.65,.07-2.3-1.36-2.18-3.32Z"/>
        <path id="Path_602" data-name="Path 602" class="cls-2" d="M525.49,481.29c1.3,.75,1.74,2.41,.98,3.71-.04,.07-.09,.14-.14,.21-2.96,5.49-5.81,11.04-8.83,16.51-.84,1.51-2.08,2.89-4.18,1.81-1.8-.94-2.3-2.56-1.18-4.76,2.56-5,5.15-9.99,7.96-14.85,1.02-1.76,2.24-4.03,5.37-2.64Z"/>
        <path id="Path_603" data-name="Path 603" class="cls-2" d="M318.97,469.57c4.04,0,7.64-.02,11.24-.02,1.66,0,3.21,.31,3.58,2.26,.4,2.14-.94,3.17-2.72,3.73-.89,.29-1.81,.45-2.74,.47-5,.06-10,.04-15.01,.07-1.86,0-3.5-.31-3.77-2.57-.13-1.96,1.35-3.66,3.32-3.79,.01,0,.03,0,.04,0,2.02-.16,4.04-.21,6.07-.15Z"/>
        <path id="Path_605" data-name="Path 605" class="cls-2" d="M94.42,485.02c-2.81,5.42-5.49,10.52-8.19,15.6-.36,.69-.94,1.26-1.32,1.92-.66,1.46-2.37,2.11-3.83,1.45-.19-.09-.38-.19-.55-.32-1.32-.83-1.71-2.58-.88-3.9,.05-.07,.09-.14,.15-.21,2.89-5.34,5.62-10.77,8.65-16.03,.82-1.04,2.03-1.71,3.35-1.86,1.95-.24,2.56,1.33,2.62,3.35Z"/>
        <path id="Path_606" data-name="Path 606" class="cls-6" d="M1157.98,708.69c4.18,0,7.92-.03,11.65,.03,1.08-.04,2.15,.17,3.14,.6,1.37,.43,2.13,1.88,1.7,3.24-.26,.83-.92,1.47-1.75,1.72-1.27,.57-2.64,.87-4.02,.88-4.67,.11-9.33,.09-14,.04-3.25-.03-4.23-.75-4.36-2.92s.99-3.2,3.96-3.53c1.06-.11,2.17-.04,3.7-.06Z"/>
        <path id="Path_609" data-name="Path 609" class="cls-5" d="M1379.55,353.8c-1.13-.25-2.13-.29-2.53-.78-.71-.88-1.61-2.2-1.42-3.07,.21-.97,1.53-1.76,2.51-2.45,.44-.31,1.2-.19,1.83-.19,5.29-.02,10.58,0,15.87-.02,1.86,0,3.47,.34,3.75,2.57,.16,1.98-1.31,3.72-3.29,3.88-.14,.01-.29,.01-.43,0-5.28,.16-10.59,.06-16.29,.05Z"/>
        <path id="Path_610" data-name="Path 610" class="cls-1" d="M1483.54,896.68c.51,1,1.11,1.7,1.12,2.4,0,.97-.15,2.32-.78,2.81-.9,.54-2.01,.63-2.98,.24-1.19-.72-2.2-1.71-2.96-2.89-2.89-4.23-5.65-8.54-8.48-12.82-.39-.48-.72-1.01-.98-1.57-.59-1.52,0-3.25,1.42-4.08,1.53-1.11,2.72-.13,3.66,.87,.88,1.08,1.68,2.24,2.37,3.45,2.46,3.76,4.95,7.51,7.61,11.57Z"/>
        <path id="Path_612" data-name="Path 612" class="cls-2" d="M1382.14,730.2c-2.28,3.94-4.4,7.57-6.52,11.18-.51,.96-1.11,1.86-1.8,2.71-1.02,1.16-2.4,2.69-3.86,1.26-.98-1.12-1.35-2.64-1-4.08,1.79-3.95,4.03-7.7,6.19-11.48,1.07-1.89,2.25-3.71,3.53-5.46,.86-1.16,1.93-1.98,3.59-1.04,1.29,.7,1.84,2.26,1.3,3.62-.37,1.15-.84,2.26-1.43,3.31Z"/>
        <path id="Path_613" data-name="Path 613" class="cls-2" d="M93.82,986.01c.25,1.44,.76,2.87,.28,3.71-2.99,5.26-6.15,10.43-9.38,15.55-1.44,2.29-3.05,2.83-4.52,1.78-1.77-1.26-1.5-2.95-.59-4.56,2.83-5,5.63-10.02,8.65-14.89,1.14-1.82,2.78-3.54,5.56-1.59Z"/>
        <path id="Path_614" data-name="Path 614" class="cls-5" d="M92.27,353.8c-1.22,0-1.99,0-2.78-.03-1.59,.13-2.99-1.06-3.12-2.65-.02-.21-.01-.42,.02-.63-.19-1.57,.92-2.99,2.48-3.19,.23-.03,.46-.03,.69,0,1.4-.03,2.81-.03,4.2-.03,4.2,0,8.42-.08,12.62,.03,2.62,.06,3.56,1.08,3.53,3.29s-.94,3.12-3.65,3.18c-4.51,.12-9.04,.03-13.99,.03Z"/>
        <path id="Path_617" data-name="Path 617" class="cls-6" d="M526.17,594.02c-1.54-.01-3.08-.15-4.6-.41-1.47-.27-2.44-1.67-2.2-3.14-.09-1.53,1.07-2.85,2.6-2.94,.12,0,.23,0,.35,0,3.74-.07,7.49-.04,11.23-.05h6.08c1.92,.02,3.56,.83,3.72,2.8,.08,1.82-1.34,3.35-3.15,3.43-.01,0-.03,0-.04,0-2.32,.22-4.66,.31-6.99,.27-2.19,.06-4.38,.04-7,.05Z"/>
        <path id="Path_618" data-name="Path 618" class="cls-2" d="M1365.03,973.8c3.71-.02,6.97-.03,10.24-.03,1.66,0,3.2,.31,3.55,2.25,.39,2.11-.94,3.14-2.71,3.73-.88,.29-1.8,.46-2.73,.48-4.97,.08-9.95,.09-14.92,.13-1.83,0-3.54-.25-3.82-2.48-.27-2.17,1.12-3.1,3.02-3.35,2.3-.3,4.61-.49,7.36-.73Z"/>
        <path id="Path_621" data-name="Path 621" class="cls-7" d="M89.78,91.19c5.87-.19,11.32-.39,16.78-.57,1.94-.24,3.75,1.03,4.18,2.94,.24,1.94-.94,3.03-3.63,3.21-4.97,.34-9.95,.63-14.93,.91-.63,.03-1.26,.03-1.88,0-2.69-.13-4.64-1.29-4.61-3.01,.04-2.25,1.61-3.2,4.09-3.47Z"/>
        <path id="Path_624" data-name="Path 624" class="cls-2" d="M307.72,347.96c1.08,3.74,.88,4.29-1.73,5.26-.72,.29-1.48,.46-2.25,.5-5.29,.08-10.58,.18-15.87,.1-2.58-.03-3.97-1.45-3.31-3.3,.46-1.08,1.37-1.89,2.49-2.23,3.2-.55,6.44-.86,9.69-.94,3.67-.03,7.34,.18,10.98,.6Z"/>
        <path id="Path_629" data-name="Path 629" class="cls-1" d="M1298.84,543.2c-3.63-6.14-6.93-12.12-10.23-18.1-.77-1.39-.88-2.81,.63-3.66,1.32-.98,3.18-.74,4.21,.54,.78,.98,1.47,2.02,2.07,3.11,2.18,3.96,4.31,7.93,6.44,11.93,.38,.68,.68,1.4,.87,2.16,.61,2.77-.25,3.73-3.98,4.02Z"/>
        <path id="Path_630" data-name="Path 630" class="cls-7" d="M84.81,980.25c-6.44-.25-12.49-.54-18.52-.83-1.74-.08-3.12-.69-3.21-2.65-.1-2.2,1.26-3.03,3.27-3.02,5.76,0,11.52,.06,17.29,.03,2.08,0,3.85,.65,4.36,2.72s-1.12,3.01-3.19,3.74Z"/>
        <path id="Path_631" data-name="Path 631" class="cls-2" d="M84.25,959.99c-1.66-3.02-3.2-5.72-4.66-8.45-.87-1.64-1.15-3.31,.63-4.54,1.47-1.01,3.48-.45,4.71,1.65,2.98,5.09,5.85,10.24,8.6,15.45,1.01,1.43,.66,3.41-.77,4.42-.06,.04-.13,.09-.19,.12-1.35,.86-3.13,.47-3.99-.88-.12-.18-.21-.37-.28-.57-1.27-2.29-2.58-4.59-4.04-7.2Z"/>
        <path id="Path_634" data-name="Path 634" class="cls-2" d="M180.38,140.43c.03-1.83-.63-3.69,1.63-4.13,1.57-.38,3.2,.37,3.93,1.81,3.14,5,6.39,9.94,9.59,14.91,1.05,1.23,.91,3.09-.33,4.14-1.23,1.05-3.09,.91-4.14-.33-.03-.04-.06-.07-.09-.11-.85-.9-1.62-1.88-2.3-2.92-2.77-4.32-5.49-8.67-8.3-13.37Z"/>
        <path id="Path_638" data-name="Path 638" class="cls-6" d="M129.73,975.5c.68,3.92,.38,4.67-2.36,4.75-5.74,.15-11.48,.06-17.23,.02-1.55,.16-2.94-.96-3.1-2.52-.03-.25-.02-.5,.02-.74,0-1.81,.83-3.14,2.69-3.14,5.74-.03,11.47,.04,17.21,.2,1.02,.26,1.97,.75,2.77,1.43Z"/>
        <path id="Path_639" data-name="Path 639" class="cls-2" d="M525.03,213.43c1,2.2,2.14,4.13-.19,5.7-1.68,1.14-3.66,.17-5.16-2.55-2.49-4.5-4.87-9.04-7.3-13.57-.22-.41-.38-.85-.6-1.26-.77-1.4-.26-3.15,1.14-3.92,.05-.03,.1-.05,.15-.08,1.7-1.23,3.06-.31,3.96,1.05,1.61,2.48,3.04,5.07,4.45,7.66,1.19,2.15,2.25,4.42,3.54,6.96Z"/>
        <path id="Path_641" data-name="Path 641" class="cls-1" d="M104.56,960.93c1.91-3.45,3.61-6.59,5.39-9.69,.46-.79,1.01-1.79,1.76-2.09,1.21-.99,2.99-.81,3.98,.39,.59,.73,.79,1.7,.52,2.6-.15,.92-.52,1.8-1.09,2.54-2.45,4.33-4.94,8.65-7.42,12.96-.23,.41-.51,.79-.84,1.12-1.18,1.18-2.31,2.93-4.29,1.57-1.73-1.18-1.43-3.05-.74-4.66,.82-1.63,1.73-3.21,2.72-4.74Z"/>
        <path id="Path_643" data-name="Path 643" class="cls-2" d="M300.5,123.44c2.74-5.48,5.44-10.58,8.08-15.7,.87-1.71,1.99-2.85,4.04-2.24,1.64,.63,2.46,2.47,1.83,4.11-.08,.22-.19,.43-.32,.62-2.66,5.47-5.54,10.84-8.56,16.12-.83,.86-2.01,1.27-3.19,1.13-1.95-.3-2.06-2.05-1.88-4.06Z"/>
        <path id="Path_646" data-name="Path 646" class="cls-2" d="M1401.84,995.06c1.42,1.98,2.73,4.04,3.91,6.17,1.26,2.62,.63,3.6-2.85,5.26-1.08-1.03-2.09-2.12-3.02-3.28-2.61-3.66-5.12-7.38-7.64-11.11-.62-.89-1.16-1.83-1.59-2.83-.59-1.26-.05-2.75,1.21-3.34,.09-.04,.19-.08,.28-.11,1.07-.41,2.27-.29,3.23,.34,2.27,2.72,4.22,5.71,6.47,8.9Z"/>
        <path id="Path_647" data-name="Path 647" class="cls-5" d="M306.63,94.97c-.15,1.67-1.63,2.9-3.29,2.75-.08,0-.15-.02-.23-.03h-15.38c-.63,0-1.43,.05-1.79-.29-.94-.9-2.37-2.03-2.34-3.04s1.5-2.08,2.49-2.94c.38-.31,1.19-.21,1.81-.22,4.67-.02,9.32,0,13.99-.03,2.26-.34,4.38,1.21,4.72,3.48,.02,.1,.03,.21,.04,.32Z"/>
        <path id="Path_648" data-name="Path 648" class="cls-7" d="M1134.48,348.24c2.91-.25,5.37-.63,7.85-.68,1.69-.06,3.38,.17,4.99,.68,.84,.28,1.99,1.54,1.92,2.24-.34,1.14-1,2.15-1.91,2.91-.52,.34-1.14,.5-1.75,.46-5.11,.31-10.22,.63-15.35,.9-.93,.04-1.86-.06-2.76-.31-1.58-.28-2.62-1.79-2.34-3.37,0-.05,.02-.1,.03-.14,.07-1.48,1.31-2.63,2.8-2.58,2.02-.09,4.05-.07,6.52-.1Z"/>
        <path id="Path_651" data-name="Path 651" class="cls-2" d="M1304.83,778.04c2.56,4.24,2.55,4.35-1.18,7.4-1.46-1.28-2.83-2.66-4.08-4.15-2.87-3.88-5.55-7.91-8.28-11.9-1.49-2.17-1.48-3.93-.07-5.02,1.75-1.03,4.01-.45,5.05,1.3,.04,.06,.07,.12,.1,.18,2.82,3.91,5.55,7.9,8.47,12.18Z"/>
        <path id="Path_654" data-name="Path 654" class="cls-1" d="M1177.07,851.44c1.75,3.52,3.34,6.72,4.94,9.93,.83,1.66,1.2,3.3-.54,4.6-1.5,.95-3.49,.49-4.44-1.01-.11-.17-.2-.35-.27-.54-2.74-5.07-5.25-10.26-7.78-15.44-.35-.7-.45-1.5-.27-2.26,.27-.99,.88-1.85,1.71-2.45,.87-.21,1.79,.04,2.43,.66,1.51,2.1,2.92,4.27,4.21,6.51Z"/>
        <path id="Path_655" data-name="Path 655" class="cls-1" d="M64.15,711.47c6.41-.73,12.6-1.19,18.77-1.59,.78-.01,1.55,.11,2.28,.37,1.44,.33,2.38,1.72,2.14,3.18-.13,1.64-.94,2.76-2.56,2.79-6.08,.1-12.17,.21-18.25,.03-2.66-.08-3.22-1.39-2.38-4.77Z"/>
        <path id="Path_656" data-name="Path 656" class="cls-2" d="M428.62,643.16c1.55-.03,3.58-.24,3.93,.43,.65,1.35,.68,2.92,.08,4.29-2.98,4.93-6.25,9.67-9.52,14.42-.94,1.35-2.27,2.28-3.98,1.09-1.45-.69-2.07-2.44-1.38-3.89,.08-.18,.19-.35,.31-.5,3.41-5.22,6.86-10.4,10.56-15.83Z"/>
        <path id="Path_657" data-name="Path 657" class="cls-1" d="M108.32,990.35c2.72,4.18,5.3,8.05,7.77,11.99,1.39,2.22,1.15,3.96-.42,4.9-1.75,.83-3.84,.14-4.76-1.57-2.91-4.4-5.76-8.83-8.53-13.3-.59-.91-.89-1.97-.86-3.05,.11-1.01,.65-1.93,1.48-2.51,.96-.3,2-.15,2.83,.42,.97,.93,1.81,1.98,2.5,3.14Z"/>
        <path id="Path_660" data-name="Path 660" class="cls-2" d="M330.25,104.49c1.27,.75,2.42,1.71,3.38,2.83,2.75,3.94,5.39,7.95,7.97,12,1.03,1.62,1.82,3.56-.11,5.02s-3.66,.44-4.81-1.21c-3.19-4.57-6.36-9.16-9.28-13.91-1.32-2.16-.84-2.73,2.84-4.73Z"/>
        <path id="Path_661" data-name="Path 661" class="cls-2" d="M194.66,657.72c.67,1.24,.22,2.8-1.03,3.47-.3,.16-.62,.26-.96,.3-1.2,.05-2.36-.45-3.14-1.36-3.6-4.69-7.08-9.48-10.44-14.37-1.07-1.43-.77-3.46,.66-4.52,.16-.12,.33-.22,.51-.31,1.8-.94,2.98,.16,3.9,1.5,3.47,4.97,6.89,9.99,10.49,15.3Z"/>
        <path id="Path_663" data-name="Path 663" class="cls-2" d="M1143.47,327.04c-2.05-4.18-2.01-5.73,0-6.78,1.66-.86,3.34,.29,5.27,3.41,2.53,4.11,5.05,8.22,7.74,12.24,1.11,1.16,1.07,2.99-.08,4.1-.14,.13-.29,.25-.45,.35-1.84,1.52-3.3,.51-4.35-.94-1.65-2.25-3.05-4.68-4.58-7.03-1.11-1.71-2.27-3.38-3.55-5.37Z"/>
        <path id="Path_664" data-name="Path 664" class="cls-1" d="M92.35,212.93c.66,1.01,1.11,2.13,1.34,3.31,0,1.16-.51,2.27-1.39,3.03-1.15,.25-2.35,.08-3.38-.48-.63-.25-1.08-1.11-1.44-1.77-2.51-4.65-5.06-9.29-7.47-13.99-1.14-2.22-.7-4.24,.94-4.74,1.82-.74,3.89,.14,4.62,1.96,0,.01,.01,.03,.02,.04,2.13,4.15,4.4,8.24,6.77,12.65Z"/>
        <path id="Path_667" data-name="Path 667" class="cls-2" d="M328.49,368.56c-.52-.82-.96-1.29-1.23-1.84-.86-1.8-1.29-3.81,.69-4.97s3.49,.25,4.61,1.91c2.96,4.4,5.96,8.72,8.84,13.16,1.55,2.4,1.29,4.27-.63,5.21-2.12,1.04-3.53-.31-4.62-1.91-2.53-3.73-5-7.5-7.67-11.55Z"/>
        <path id="Path_668" data-name="Path 668" class="cls-7" d="M1378.52,711.08c.76,2.57,.02,4.12-2.38,4.29-5.87,.42-11.75,.69-17.62,1.01-.47,.02-.93,0-1.4-.06-1.64-.2-2.73-1.2-2.4-2.78,.2-1,1.28-2.51,2.06-2.57,6.79-.49,13.59-.7,20.39-.94,.38-.02,.77,.47,1.36,1.06Z"/>
        <path id="Path_669" data-name="Path 669" class="cls-2" d="M1151.24,363.85c4.08,.94,5,2.17,3.61,5.21-2.2,4.8-4.61,9.5-7.03,14.19-.78,1.51-1.86,3.06-3.98,2.34-1.81-.94-2.51-3.17-1.57-4.98,.02-.04,.05-.09,.07-.13,2.79-5.53,5.71-10.98,8.9-16.63Z"/>
        <path id="Path_671" data-name="Path 671" class="cls-2" d="M1193.65,348.36c1.18,.11,2.2-.06,2.65,.36,1.04,.8,1.78,1.91,2.13,3.17,.06,.74-1.47,1.69-2.4,2.4-.52,.34-1.14,.51-1.76,.49-6.15-.03-12.37,.68-18.35-1.26-.79-4.32-.37-5.06,3.34-5.14,4.65-.11,9.31-.03,14.38-.03Z"/>
        <path id="Path_673" data-name="Path 673" class="cls-2" d="M1298.93,655.18c-1.35,2.14-2.4,4.08-3.67,5.84-.75,1.48-2.52,2.11-4.03,1.43-1.91-.99-1.59-2.83-1.16-4.55,.13-.45,.33-.88,.59-1.27,2.67-4.4,5.27-8.84,8.08-13.16,1.72-2.65,4.4-2.68,5.47-.1,.33,1.16,.19,2.39-.37,3.45-1.4,2.77-3.1,5.4-4.9,8.36Z"/>
        <path id="Path_675" data-name="Path 675" class="cls-2" d="M1374.88,950.45c3.45,5.22,6.64,10.2,9.85,15.18,.88,1.03,.76,2.58-.27,3.46-.1,.09-.21,.16-.32,.23-1.41,.36-2.9,.29-4.27-.2-.56-.13-.92-1.19-1.33-1.85-2.65-4.23-5.26-8.48-7.95-12.69-.92-1.43-1.47-2.89-.19-4.27s2.77-1.16,4.46,.14Z"/>
        <path id="Path_676" data-name="Path 676" class="cls-1" d="M1390.39,244.87c-.5-1.16-1.13-2.09-.98-2.88,.21-1.09,.87-2.74,1.62-2.9,1.29-.2,2.6,.21,3.54,1.11,1.5,2.17,2.86,4.42,4.08,6.75,1.43,2.39,2.97,4.73,4.4,7.13,1.63,2.75,1.43,4.45-.68,5.58-2.32,1.24-3.45-.47-4.45-2.08-2.52-4.11-4.89-8.28-7.54-12.71Z"/>
        <path id="Path_677" data-name="Path 677" class="cls-2" d="M545.03,258.07c-3.02-4.94-5.82-9.59-8.52-14.32-.91-1.59-2.1-3.42,.26-4.84,1.74-.97,3.94-.35,4.92,1.39,.07,.12,.13,.24,.18,.36,2.61,4.42,5.14,8.89,7.67,13.35,.81,1.43,1.28,2.98-.04,4.31s-2.81,1.1-4.45-.25Z"/>
        <path id="Path_680" data-name="Path 680" class="cls-2" d="M1375.57,214.74c-2.15-4.02-4.15-7.71-6.12-11.43-.94-1.78-1.48-3.7,.71-4.86,2.07-1.09,3.67,.14,4.65,1.91,2.57,4.63,5.11,9.28,7.43,14.04,.42,1.43,.6,2.91,.53,4.4q-4.43,1.32-7.21-4.05Z"/>
        <path id="Path_681" data-name="Path 681" class="cls-7" d="M751.55,469.34c2.51,2.98,1.88,5.38-1.38,5.54-6.35,.31-12.73,.19-19.1,.06-.83-.02-2.29-1.09-2.32-1.72,.12-1.15,.62-2.23,1.43-3.07,.6-.48,1.36-.73,2.13-.7,5.25-.34,10.49-.63,15.75-.85,1.19,.08,2.37,.33,3.49,.74Z"/>
        <path id="Path_682" data-name="Path 682" class="cls-7" d="M1166.38,469.78c1.98-.03,3.96,.19,5.89,.66,1.08,.47,1.85,1.45,2.05,2.61-.05,.96-1.26,1.99-2.2,2.72-.71,.33-1.49,.45-2.26,.35-5.48,.04-10.95,.05-16.42,.05-.63,.04-1.26,0-1.88-.13-2.24-.58-2.91-2.83-1.08-4.2,1.29-.8,2.77-1.25,4.29-1.31,3.75-.35,7.48-.46,11.62-.75Z"/>
        <path id="Path_683" data-name="Path 683" class="cls-1" d="M1174.75,368.06c2.01,2.98,3.85,5.68,5.59,8.44,.66,.84,1.06,1.86,1.16,2.92-.07,1.17-.6,2.28-1.47,3.06-1.18,.78-2.77,.45-3.55-.73-.04-.06-.08-.12-.11-.19-1.17-1.65-2.26-3.34-3.38-5.02-2.07-3.1-4.15-6.19-6.2-9.3-1.16-1.25-1.1-3.2,.15-4.37,.07-.07,.15-.13,.23-.2,1.67-1,3.83-.46,4.83,1.21,.93,1.23,1.7,2.59,2.75,4.17Z"/>
        <path id="Path_687" data-name="Path 687" class="cls-1" d="M306.12,573.42c-1.62-2.49-3.14-4.66-4.52-6.91-.61-.87-.97-1.89-1.05-2.96,.02-1.04,.5-2.02,1.3-2.68,.99-.29,2.05-.17,2.96,.33,.79,.49,1.44,1.17,1.88,1.99,2.81,4.08,5.61,8.19,8.31,12.36,.98,1.51,2.31,3.28,.17,4.92-1.59,1.22-3.88,.44-5.46-1.76-1.18-1.63-2.29-3.32-3.59-5.29Z"/>
        <path id="Path_689" data-name="Path 689" class="cls-1" d="M106.15,736.74c-1.35-1.93-2.65-3.51-3.71-5.23-.58-.91-.9-1.95-.94-3.02,0-2.56,2.44-3.98,4.08-2.15,4.92,4.96,8.91,10.76,11.78,17.13,.2,.51-.1,1.21-.18,1.91-1.78,1.31-4.29,.93-5.61-.85-.15-.2-.28-.42-.39-.65-1.61-2.29-3.25-4.57-5.03-7.16Z"/>
        <path id="Path_693" data-name="Path 693" class="cls-2" d="M540.8,734.11c-1.23-1.84-2.29-3.38-3.33-4.94-1-1.5-1.07-3.32,.43-4.12,1.11-.59,3.66-.53,4.18,.2,3.55,5.1,6.84,10.41,9.92,15.82,.36,.63-.76,2.57-1.66,3.37-1.32,1.18-2.76,.27-3.59-.94-2-2.99-3.86-6.07-5.95-9.39Z"/>
        <path id="Path_694" data-name="Path 694" class="cls-1" d="M328.63,79.14c2.28-3.37,4.33-6.47,6.41-9.55,.52-.77,1.03-1.76,1.79-2.07,1.05-.53,2.26-.61,3.37-.24,.78,.48,.94,2.03,1.22,3.14,.09,.36-.25,.89-.5,1.26-3.1,4.64-6.09,9.35-9.39,13.85-1.64,2.23-3.28,2.32-4.61,.63-.68-.94-.94-2.13-.72-3.27,.61-1.37,1.42-2.64,2.42-3.75Z"/>
        <path id="Path_695" data-name="Path 695" class="cls-1" d="M1398.37,697.33c-.85,1.53-1.23,3.19-2.26,3.86-1.25,.76-2.77,.96-4.18,.56-1.2-.55-1.73-1.97-1.18-3.17,.07-.15,.15-.28,.24-.41,2.79-5.02,5.54-10.07,8.41-15.05,.88-1.52,2.2-2.83,4.16-1.61,2,1.26,1.81,2.99,.77,4.86-1.96,3.53-3.86,7.1-5.95,10.96Z"/>
        <path id="Path_696" data-name="Path 696" class="cls-1" d="M107.3,255.33c-2.22-3.59-4.23-6.91-6.23-10.22-.4-.67-.76-1.36-1.07-2.07-.67-1.33-.14-2.94,1.19-3.61,.15-.07,.3-.13,.46-.18,1.11-.31,2.31-.06,3.21,.67,1.37,1.68,2.58,3.48,3.63,5.38,1.57,2.49,3.14,4.99,4.58,7.56,.73,1.17,1.21,2.49,1.42,3.86,.01,1.02-.48,1.99-1.31,2.58-1.09,.39-2.31,.29-3.31-.3-1.03-1.09-1.9-2.32-2.56-3.67Z"/>
        <path id="Path_697" data-name="Path 697" class="cls-2" d="M311.29,376.84c-.97,2.16-1.62,4.11-2.62,5.84-1.21,2.11-3.14,2.8-4.66,1.86-1.88-1.14-1.64-2.81-.85-4.5,2.16-4.65,4.34-9.3,6.52-13.95,.18-.43,.39-.85,.63-1.26,.88-1.55,2.84-2.1,4.39-1.22,.04,.02,.07,.04,.11,.06,1.34,.69,1.88,2.33,1.19,3.68-.06,.12-.13,.24-.21,.35-1.49,2.93-2.89,5.88-4.5,9.13Z"/>
        <path id="Path_698" data-name="Path 698" class="cls-2" d="M86.11,731.84c1.66-3.02,2.75-6.31,7.05-4.94,1.14,1.58,1.07,3.73-.18,5.23-2.64,4.43-5.29,8.84-8.11,13.15-1.33,2.03-3.42,2.51-4.79,1.42-1.38-1.12-1.59-3.16-.47-4.54,.03-.03,.06-.07,.08-.1,2.03-3.34,4.15-6.62,6.4-10.22Z"/>
        <path id="Path_699" data-name="Path 699" class="cls-2" d="M516.02,732.86c1.24-2.2,2.3-4.08,3.42-5.93,.55-.92,1.03-2.16,1.88-2.57,1.16-.59,2.5-.72,3.75-.34,.69,.31,.86,2.06,1.02,3.2,.07,.52-.41,1.15-.7,1.69-2.26,4.23-4.47,8.5-6.85,12.67-1.64,2.88-3.56,3.84-5.07,2.89s-1.67-3-.31-5.91c.84-1.83,1.8-3.6,2.86-5.71Z"/>
        <path id="Path_701" data-name="Path 701" class="cls-1" d="M1176.5,817.21l-4.08,5.29c-4.01-2.03-4.53-3.09-2.7-6.17,2.63-4.42,5.47-8.71,8.32-13,1.5-2.26,3.05-2.75,4.57-1.75,1.51,1.27,1.75,3.5,.55,5.07-2.06,3.48-4.3,6.88-6.66,10.57Z"/>
        <path id="Path_703" data-name="Path 703" class="cls-7" d="M1402.36,717.18c-1.66,.06-3.32-.14-4.92-.6-.96-.39-2.32-1.84-2.16-2.51,.48-1.24,1.37-2.28,2.51-2.96,.66-.46,1.8-.26,2.73-.27,4.98-.03,9.96-.03,14.94-.04,.63,0,1.39-.21,1.83,.07,.96,.63,2.34,1.42,2.45,2.29-.09,1.17-.76,2.21-1.77,2.8-1.31,.44-2.7,.62-4.08,.53-3.72,.23-7.43,.41-11.53,.68Z"/>
        <path id="Path_704" data-name="Path 704" class="cls-2" d="M548.02,716.3c-2.22-.71-2.94-2.16-2.17-3.74,.66-.98,1.71-1.64,2.89-1.78,4.49-.46,8.99-.67,13.5-.94,.63-.03,1.26-.03,1.88,0,2.9,.12,4.88,1.5,4.81,3.35-.66,2.16-2.78,3.53-5.02,3.23-5.14-.3-10.31-.08-15.88-.12Z"/>
        <path id="Path_708" data-name="Path 708" class="cls-2" d="M1379.29,999.45c-.96,2.2-1.75,4.05-2.57,5.91-1.81,4.02-3.61,4.18-6.99,.36,2.44-5.22,4.94-10.59,7.46-15.94,.27-.57,.62-1.09,1.05-1.54,1.17-1.32,2.79-1.99,4.11-.78,.87,.99,1.22,2.34,.94,3.63-1.18,2.86-2.51,5.65-3.99,8.37Z"/>
        <path id="Path_710" data-name="Path 710" class="cls-2" d="M317.03,335.39c.86,2.12,.85,3.8-1.2,4.6-1.91,.75-3.31-.36-4.31-1.91-2.79-4.29-5.53-8.62-8.27-12.95-.39-.48-.59-1.09-.58-1.71,.35-1.24,.66-2.88,1.57-3.48,1.44-.97,2.92-.18,3.89,1.37,2.88,4.61,5.81,9.18,8.89,14.08Z"/>
        <path id="Path_711" data-name="Path 711" class="cls-2" d="M495.6,710.77c1.55-.53,3.17-.86,4.8-.98,4.36-.09,8.73,0,13.09,.02,1.73,0,3.13,1.42,3.13,3.15,0,1.53-1.11,2.83-2.62,3.08-5.43,.25-10.88,.2-16.31-.15-3.02-.25-3.48-1.8-2.09-5.12Z"/>
        <path id="Path_712" data-name="Path 712" class="cls-2" d="M1149.38,816.83c-1.88-2.89-3.53-5.5-5.18-8.13-.42-.65-.79-1.33-1.12-2.03-.71-1.55-.82-3.1,.79-4.13,1.34-.91,3.18-.57,4.09,.78,.02,.02,.03,.05,.05,.08,1.34,1.7,2.47,3.57,3.64,5.39,1.68,2.6,3.38,5.2,4.96,7.86,.58,.9,.9,1.94,.9,3.01-.08,.94-.73,2.33-1.44,2.56-1.13,.33-2.36,.13-3.32-.55-1.27-1.5-2.4-3.12-3.37-4.84Z"/>
        <path id="Path_713" data-name="Path 713" class="cls-2" d="M1355.02,232.67c-1.92-2.2-1.35-3.67,.78-4.68,.82-.44,1.72-.7,2.65-.78,5.13-.1,10.27-.1,15.4-.11,1.76,0,3.05,.71,3.18,2.65,.24,1.33-.64,2.61-1.98,2.86-.13,.02-.27,.04-.4,.04-6.02,.35-12.06,.6-18.09,.84-.42,.03-.85-.36-1.54-.82Z"/>
        <path id="Path_715" data-name="Path 715" class="cls-2" d="M86.33,232.2c-6.03,.63-11.74,1.08-17.46,1.45-2,.13-3.8-.23-4.02-2.78-.19-2.2,.94-3.52,3.84-3.63,5.45-.19,10.91-.25,16.35-.07,2.86,.1,3.32,1.83,1.29,5.03Z"/>
        <path id="Path_718" data-name="Path 718" class="cls-2" d="M337.88,594c-2.27-.21-3.98-1-3.89-3.03,.16-2,1.89-3.5,3.89-3.37,5.45-.17,10.92-.14,16.38-.12,1.38-.11,2.59,.92,2.7,2.31,0,.1,0,.21,0,.31,.18,1.46-.85,2.78-2.31,2.96-.18,.02-.37,.03-.55,.01-5.29,.34-10.57,.62-16.22,.92Z"/>
        <path id="Path_719" data-name="Path 719" class="cls-4" d="M304.18,588.45c1,.17,1.77,.14,2.16,.52,.72,.72,1.84,1.88,1.66,2.48-.31,1.01-1.47,1.82-2.42,2.51-.43,.31-1.2,.19-1.83,.19-5.77,0-11.54-.04-17.31,.03-1.94,.03-3.45-.44-3.84-2.51-.29-1.57,1.44-3.07,3.87-3.12,5.77-.13,11.54-.08,17.72-.09Z"/>
        <path id="Path_720" data-name="Path 720" class="cls-3" d="M779.14,587.71c2.08,3.8,1.44,5.25-2.16,5.32-5.91,.13-11.83,.03-17.74,.03-1.92,0-3.47-.55-3.49-2.8s1.54-2.86,3.45-2.85c6.54,.03,13.06,.08,19.94,.3Z"/>
        <path id="Path_722" data-name="Path 722" class="cls-1" d="M731.68,615.62c-1.59,2.51-2.89,4.83-4.43,6.96-.88,1.22-2.08,2.63-3.88,1.64-1.88-1.02-1.62-2.87-1.12-4.55,.35-1.03,.84-2.02,1.44-2.92,2.12-3.43,4.29-6.84,6.44-10.25,.33-.52,.6-1.39,1.03-1.5,1.35-.55,2.82-.69,4.25-.42,1.55,.7,1.63,2.48,.65,4.03-1.41,2.25-2.79,4.48-4.38,7.01Z"/>
        <path id="Path_723" data-name="Path 723" class="cls-1" d="M637.68,660.23c-2.58-4.08-5.05-7.85-7.41-11.68-.58-.9-.94-1.92-1.03-2.98-.13-1.45,.95-2.73,2.4-2.86,.63-.06,1.26,.12,1.77,.48,.99,.74,1.82,1.65,2.46,2.71,2.4,3.62,4.75,7.27,7.02,10.96,1.05,1.71,2.26,3.6,.34,5.48-1.31,1.31-2.89,.72-5.54-2.1Z"/>
        <path id="Path_725" data-name="Path 725" class="cls-2" d="M1469.77,648.06c-.37-.72-.58-1.15-.8-1.57-.84-1.57-1.03-3.1,.82-3.95,1.57-.91,3.57-.45,4.59,1.04,1.15,1.66,2.1,3.45,3.2,5.14,1.6,2.48,3.3,4.9,4.9,7.37,1.79,2.79,1.73,3.96-.13,5.18s-3.22,.79-4.93-1.68c-2.55-3.7-5-7.48-7.65-11.54Z"/>
        <path id="Path_728" data-name="Path 728" class="cls-2" d="M86.39,443.59c1.78,3.3,3.45,6.28,5.06,9.27,.63,1.06,1.11,2.21,1.42,3.41,.41,1.57-.53,3.18-2.1,3.58-.03,0-.06,.02-.09,.02-1.19,.1-2.35-.39-3.1-1.31-2.87-4.96-5.49-10.05-8.18-15.11-.81-1.52-.11-2.66,1.03-3.67,1.42-1.26,2.73-.41,3.73,.47,.9,1,1.66,2.12,2.24,3.33Z"/>
        <path id="Path_730" data-name="Path 730" class="cls-2" d="M82.12,259.95c-1.56-1.35-1.85-3.66-.67-5.35,2.17-4.12,4.44-8.18,6.7-12.24,.37-.68,.83-1.67,1.39-1.8,1.39-.35,2.84-.36,4.23-.02,.45,.14,.8,2.32,.38,3.18-2.47,5.02-5.17,9.9-7.8,14.84-.72,1.54-2.56,2.19-4.09,1.47-.05-.02-.09-.05-.14-.07Z"/>
        <path id="Path_731" data-name="Path 731" class="cls-2" d="M523.43,249.65c-2.4,3.6-3.06,7.95-6.81,10.19-3.56-1.78-4.05-2.54-2.57-5.53,2.27-4.6,4.74-9.1,7.29-13.55,.86-1.51,2.23-2.83,4.21-1.52,1.49,.7,2.13,2.47,1.43,3.95-.07,.15-.16,.3-.26,.44-1.06,1.88-2.06,3.82-3.29,6.02Z"/>
        <path id="Path_733" data-name="Path 733" class="cls-1" d="M107.24,457.12c-.78,1.26-1.76,2.4-2.89,3.37-1.03,.51-2.23,.54-3.29,.1-1.24-.59-1.76-2.07-1.17-3.3,.05-.11,.11-.21,.17-.31,.12-.29,.26-.57,.42-.84,2.94-4.37,5.85-8.77,8.85-13.09,.6-.67,1.27-1.28,2.01-1.79,4.31,1.75,4.65,2.51,2.49,5.88-2.09,3.26-4.25,6.48-6.6,9.99Z"/>
        <path id="Path_734" data-name="Path 734" class="cls-6" d="M494.65,470.69c1.22-1.02,2.65-1.74,4.19-2.12,4.18-.22,8.37-.09,12.56-.02,.92-.07,1.85,.15,2.64,.63,.94,.85,2.24,2.2,2.1,3.14-.44,1.26-1.5,2.2-2.8,2.49-5.26,.25-10.55,.26-15.81,.03-2-.08-3.35-1.5-2.89-4.16Z"/>
        <path id="Path_739" data-name="Path 739" class="cls-3" d="M344,92.05c4.02,0,7.6,.03,11.16,.02,1.85,0,3.47,.35,3.7,2.59,.19,1.88-1,3-3.71,3.05-5.74,.1-11.48,0-17.23,.04-1.82,.11-3.48-1.02-4.04-2.75,.46-1.85,2.18-3.1,4.08-2.95,1.86,0,3.72,0,6.05,0Z"/>
        <path id="Path_741" data-name="Path 741" class="cls-2" d="M731.83,579.86c-2.41-3.67-4.59-7.09-6.77-10.51-.44-.64-.85-1.31-1.21-1.99-1.2-2.49-1.06-4.71,.49-5.49,2.33-1.21,3.53,.71,4.55,2.15,2.81,3.94,5.39,8.02,8.07,12.05,1.24,1.54,1,3.81-.54,5.05,0,0,0,0,0,0-1.83,1.69-3.11,.23-4.59-1.25Z"/>
        <path id="Path_743" data-name="Path 743" class="cls-2" d="M335.29,576.6c-1.05,1.67-2.3,3.2-3.73,4.56-1.13,.67-2.51,.72-3.69,.15-.82-1.02-1.05-2.4-.61-3.64,2.74-4.71,5.76-9.25,8.79-13.76,1.09-1.6,3.21-2.14,4.94-1.24,1.06,1.66,.94,3.81-.31,5.34-1.65,2.81-3.43,5.54-5.38,8.59Z"/>
        <path id="Path_745" data-name="Path 745" class="cls-2" d="M496.75,232.51c-1.99-3.64-1.55-5.18,1.42-5.45,5.24-.46,10.49-.68,15.74-.94,2.05-.11,3.74,.39,3.92,2.89,.15,2.15-1.03,3.45-3.91,3.53-5.58,.15-11.18,.05-17.16-.04Z"/>
        <path id="Path_746" data-name="Path 746" class="cls-2" d="M511.3,683.28c2.07-3.24,3.28-3.6,5.32-1.49,1.2,1.41,2.26,2.95,3.14,4.58,1.88,3.03,3.72,6.08,5.51,9.16,.9,1.55,1.55,3.21-.56,4.4-1.74,.87-3.85,.25-4.84-1.43-2.14-3.42-4.17-6.91-6.2-10.38-.89-1.56-1.68-3.18-2.36-4.84Z"/>
        <path id="Path_747" data-name="Path 747" class="cls-2" d="M1377.34,688.76c1.65,2.31,3.02,4.4,4.5,6.39,1.03,1.11,.97,2.85-.15,3.88-.09,.09-.19,.17-.3,.24-.87,1.06-2.43,1.22-3.5,.36-.22-.18-.42-.4-.56-.65-3.43-4.63-6.83-9.29-9.96-14.13-.43-1.24-.17-2.61,.67-3.61,1.19-.57,2.58-.48,3.69,.23,2.01,2.32,3.88,4.75,5.61,7.28Z"/>
        <path id="Path_748" data-name="Path 748" class="cls-1" d="M1383.67,242.43c-2.6,5.45-5.05,10.63-7.87,15.6-1.54,2.72-3.73,2.93-5.13,.83-.6-1.01-.71-2.24-.31-3.34,2.24-4.59,4.61-9.13,7.22-13.54,1.84-3.21,3.9-3.07,6.1,.45Z"/>
        <path id="Path_750" data-name="Path 750" class="cls-2" d="M340.9,322.37c.25,1.25,.15,2.53-.27,3.73-2.64,4.4-5.43,8.67-8.28,12.94-.98,1.47-2.28,2.72-4.22,1.35-1.53-.97-1.98-2.99-1.01-4.51,.09-.14,.19-.28,.3-.4,2.6-4.23,5.25-8.44,8.01-12.56,1.69-2.47,2.29-2.47,5.46-.55Z"/>
        <path id="Path_751" data-name="Path 751" class="cls-2" d="M524.84,458.06c-3.35,1.67-4.25,1.67-5.62-.68-2.66-4.59-5.09-9.32-7.56-14.01-.76-1.26-.35-2.89,.91-3.65,.17-.1,.34-.18,.53-.24,1.09-.39,2.3-.22,3.22,.47,3.76,5.5,7.72,10.95,8.52,18.11Z"/>
        <path id="Path_752" data-name="Path 752" class="cls-2" d="M310.45,84.17c-2.39-4.25-4.62-8.18-6.77-12.17-.61-.88-.96-1.92-1-2.99,.13-1.16,.76-2.21,1.74-2.86,1.15-.28,2.37,.06,3.21,.88,3.02,4.92,5.82,9.97,8.6,15.03,.85,1.54-.08,2.72-1.27,3.62-1.93,1.45-3.15,.17-4.51-1.51Z"/>
        <path id="Path_754" data-name="Path 754" class="cls-2" d="M1393.33,450.68c1.91-2.67,3.57-5.12,5.29-7.51,.94-1.32,2.11-2.41,3.89-1.47,1.61,.8,2.26,2.75,1.46,4.36-.08,.16-.17,.32-.28,.46-3,4.52-6.15,8.94-9.34,13.33-.82,1.13-1.91,2.03-3.59,1.1-1.43-.71-2.02-2.45-1.31-3.88,.02-.05,.05-.09,.07-.14,1.11-2.17,2.38-4.26,3.8-6.24Z"/>
        <path id="Path_756" data-name="Path 756" class="cls-1" d="M114.69,682.56c.43,1.21,.51,2.53,.23,3.79-2.35,4.74-4.8,9.44-7.51,13.99-1.57,2.62-4.4,2.46-5.43-.15-.28-1.02-.17-2.1,.31-3.04,2.26-4.44,4.61-8.83,7.07-13.16,.66-1.75,2.62-2.64,4.37-1.98,.34,.13,.67,.32,.95,.55Z"/>
        <path id="Path_757" data-name="Path 757" class="cls-2" d="M1470.94,780.76c2.1-4.2,4.1-8.07,6.12-11.93,.4-.84,.88-1.65,1.43-2.4,.94-1.15,2.11-2,3.63-1.04,1.4,.89,2.49,2.12,1.59,3.88-2.56,4.99-5.22,9.92-7.85,14.87-.63,1.31-2.21,1.87-3.52,1.24-.03-.02-.07-.03-.1-.05-1.9-.78-2.26-2.37-1.29-4.57Z"/>
        <path id="Path_761" data-name="Path 761" class="cls-1" d="M539.81,450.16c1.83-2.55,3.3-4.95,5.11-7.05,2.61-3,3.25-2.86,6.43,.98-3.38,4.93-6.82,10.05-10.4,15.07-.79,1.45-2.61,1.98-4.06,1.19-.16-.09-.3-.18-.44-.3-1.67-1.29-1.29-2.96-.19-4.55,1.16-1.66,2.24-3.37,3.55-5.33Z"/>
        <path id="Path_762" data-name="Path 762" class="cls-1" d="M1376.16,444.55c1.93,3.59,3.71,6.88,5.54,10.13,1.08,1.31,.89,3.24-.41,4.32-.09,.07-.17,.14-.27,.2-1.68,.9-3.77,.27-4.68-1.41-.02-.04-.04-.08-.06-.12-2.36-4.2-4.61-8.48-6.85-12.76-.49-.79-.73-1.72-.69-2.65,.13-1.01,.67-1.93,1.49-2.54,.94-.34,1.99-.2,2.81,.38,1.19,1.37,2.24,2.86,3.12,4.44Z"/>
        <path id="Path_763" data-name="Path 763" class="cls-2" d="M547.21,469.7c2.65-.58,5.33-.97,8.03-1.18,3.09-.24,6.2-.2,9.29,.13,1.4,.4,2.52,1.43,3.05,2.79,.22,.69-1.4,2.07-2.33,2.98-.51,.36-1.13,.53-1.75,.49-4.66,.06-9.32,.23-13.96,.04-3.16-.13-3.86-1.75-2.32-5.25Z"/>
        <path id="Path_765" data-name="Path 765" class="cls-4" d="M1375.04,592.62c-1.11-2.75-.03-4.08,2.31-4.12,6.1-.12,12.2-.06,18.3-.03,1.42-.2,2.74,.79,2.95,2.21,.03,.21,.03,.43,.01,.65,.1,1.38-.95,2.58-2.33,2.68-.11,0-.22,0-.33,0-6.41,.05-12.82,.03-19.23-.05-.49,0-.98-.65-1.68-1.34Z"/>
        <path id="Path_767" data-name="Path 767" class="cls-2" d="M1391.75,965.18c2.65-4.28,5.05-8.29,7.68-12.15,.99-1.45,2.18-3.35,4.51-2.29,1.68,.77,1.93,3.3,.43,5.85-2.3,3.88-4.71,7.72-7.24,11.44-.99,1.45-2.22,3.51-4.46,2.42-2.13-1.02-1.65-3.08-.92-5.27Z"/>
        <path id="Path_771" data-name="Path 771" class="cls-2" d="M426.65,152.94c-.6,1.38-1.39,2.67-2.35,3.83-.96,.69-2.17,.93-3.31,.65-.72-.21-1.26-1.59-1.53-2.54-.14-.76-.01-1.55,.36-2.24,2.33-4.56,4.67-9.12,7.22-13.57,.69-.97,1.75-1.6,2.93-1.74,2.04-.15,3.24,2.03,2.35,4.51-.94,2.3-2.01,4.54-3.22,6.72-.72,1.39-1.49,2.74-2.45,4.37Z"/>
        <path id="Path_773" data-name="Path 773" class="cls-1" d="M1178.66,329.04c-2.2,3.43-4.24,6.53-6.22,9.67-2.22,3.52-3.51,3.58-6.91-.17,1.06-1.83,2.17-3.84,3.36-5.79,1.68-2.78,3.42-5.53,5.15-8.28,1.64-2.61,3.62-3.56,5.24-2.36,2.2,1.63,1.1,3.55,.2,5.39-.2,.42-.44,.81-.83,1.54Z"/>
        <path id="Path_780" data-name="Path 780" class="cls-2" d="M542.72,702.28c-.94,1.15-2.63,1.31-3.78,.37-.2-.16-.37-.35-.52-.57-1.04-1.04-1.13-2.69-.21-3.84,2.42-4.16,4.81-8.33,7.27-12.47,.36-.7,.91-1.28,1.59-1.67,.85-.49,1.86-.65,2.83-.45,.88,.53,1.44,1.46,1.5,2.48-.27,1.67-.85,3.28-1.7,4.74-2.15,3.79-4.46,7.46-6.97,11.41Z"/>
        <path id="Path_781" data-name="Path 781" class="cls-4" d="M97.66,594.15c-3.27,0-6.07,0-8.89-.03-2-.03-3.37-.87-3.23-3.07,.12-1.96,1.49-2.58,3.24-2.59,5.77,0,11.55,.03,17.32-.03,1.86-.02,3.21,.76,3.33,2.51,.13,2.08-1.5,2.99-3.36,3.11-2.65,.16-5.3,.09-8.42,.11Z"/>
        <path id="Path_782" data-name="Path 782" class="cls-3" d="M532.68,347.18c2.96,0,5.46,.07,7.96-.02,1.95-.07,3.63,.45,3.79,2.54,.15,2.04-1.44,3.11-3.33,3.14-5.94,.09-11.87,.07-17.81-.02-1.43,.12-2.68-.94-2.79-2.37-.02-.23,0-.46,.03-.69,0-1.4,1.12-2.55,2.53-2.55,.09,0,.18,0,.27,.01,2.96-.06,5.93-.05,9.36-.05Z"/>
        <path id="Path_783" data-name="Path 783" class="cls-6" d="M128.24,228.15c1.94,2.23,1.34,3.74-.82,4.66-1.14,.48-2.36,.74-3.6,.78-3.59,.12-7.18,.07-10.77,.08-.63,0-1.45,.19-1.83-.13-1.11-.94-2.83-2.1-2.83-3.14,.38-1.42,1.47-2.55,2.88-2.98,2.78-.36,5.6-.43,8.4-.2,2.87,.13,5.73,.45,8.56,.94Z"/>
        <path id="Path_789" data-name="Path 789" class="cls-2" d="M759.93,565.83c-2.56,4.82-5,9.32-7.6,13.73-1.4,2.39-2.92,2.91-4.5,1.84-1.55-.83-2.13-2.76-1.3-4.3,.1-.19,.22-.36,.35-.53,2.45-4.14,4.66-8.44,7.34-12.42,2.06-3.03,4.33-2.4,5.7,1.68Z"/>
        <path id="Path_791" data-name="Path 791" class="cls-2" d="M302.6,622.43c.04-1.34,.29-2.67,.74-3.94,1.93-4.1,3.95-8.16,6.09-12.14,.82-1.52,2.09-2.95,4.16-1.82,1.47,.67,2.13,2.4,1.46,3.87-.08,.17-.17,.34-.28,.49-2.13,4.34-4.04,8.79-6.45,12.98-1.78,3.11-3.11,3.11-5.72,.55Z"/>
        <path id="Path_792" data-name="Path 792" class="cls-2" d="M749.31,611.98c-.67-1.26-1.14-2.25-1.65-3.21-1.05-1.97-.1-3.31,1.49-4.29,1.77-1.07,2.98,.14,3.89,1.43,1.07,1.51,1.96,3.14,2.89,4.76,1.41,2.4,2.83,4.81,4.17,7.25,1.43,2.58,1.26,4.45-.42,5.34s-3.36,.23-4.94-2.23c-1.85-2.85-3.51-5.83-5.43-9.05Z"/>
        <path id="Path_794" data-name="Path 794" class="cls-2" d="M112.68,179.38c-1.67,3.04-3.21,5.75-4.71,8.48-.59,1.52-2.3,2.27-3.82,1.68-.02,0-.05-.02-.07-.03-1.83-.68-1.97-2.34-1.6-3.93,.33-1.2,.82-2.35,1.44-3.43,1.61-3.03,3.25-6.04,4.96-9,.43-1,1.14-1.84,2.05-2.44,1.09-.45,2.33-.44,3.41,.03,.76,.72,1.12,1.77,.94,2.81-.73,2.01-1.6,3.96-2.6,5.84Z"/>
        <path id="Path_795" data-name="Path 795" class="cls-1" d="M78.93,686.23c-1.11-2.2-.63-3.75,1.31-4.47,1.52-.65,3.28-.05,4.08,1.4,2.68,4.19,5.46,8.33,8.03,12.58,1.3,2.14,.91,2.85-2.33,5.49-4.87-3.94-7.24-9.84-11.09-15Z"/>
        <path id="Path_796" data-name="Path 796" class="cls-1" d="M724.07,594.07c-5.54,.06-10.67,.08-15.79,.08-.78,0-1.57,.02-2.33-.03-1.44,.11-2.69-.97-2.8-2.41,0-.03,0-.07,0-.1-.15-1.78,1.12-2.41,2.51-2.87,.6-.17,1.21-.25,1.83-.24,5.13-.02,10.26-.13,15.38,.06,1.32,.09,2.54,.75,3.34,1.8,.85,1.52,.05,2.99-2.14,3.71Z"/>
        <path id="Path_800" data-name="Path 800" class="cls-2" d="M1400.23,980.24c-2.2-.71-2.79-2.04-2.25-3.77,.51-1.67,1.97-1.8,3.43-1.8,5.31,0,10.62,0,15.93,0,1.81,0,3.74,.16,3.68,2.51-.07,1.78-1.57,3.16-3.35,3.09-.05,0-.1,0-.15,0-3.74,.12-7.5,.05-11.24,.05-1.89,0-3.77,0-6.05-.08Z"/>
        <path id="Path_801" data-name="Path 801" class="cls-1" d="M351.35,348.26c1.69,.02,2.94-.02,4.18,.08,1.37-.03,2.5,1.06,2.53,2.43,0,.12,0,.23-.02,.35,.09,1.43-1,2.65-2.43,2.74-.06,0-.11,0-.17,0-.63,.06-1.25,.08-1.88,.07-4.52,0-9.05,0-13.57-.02-.94,0-2.09,.16-2.72-.31-1.13-.7-1.98-1.78-2.4-3.05-.2-1.63,1.34-2.26,2.9-2.27,4.39-.03,8.75-.02,13.57-.03Z"/>
        <path id="Path_802" data-name="Path 802" class="cls-2" d="M1413.97,233.42c-3.96,.17-7.52,.23-11.09,.26-.77,0-1.74,.16-2.26-.23-1.04-.78-2.66-2.02-2.54-2.83,.2-1.21,1.63-3.09,2.65-3.14,5.1-.34,10.22-.28,15.33-.12,1,.24,1.81,.98,2.13,1.96-.01,1.15-.46,2.26-1.26,3.1-.51,.58-1.69,.61-2.96,1Z"/>
        <path id="Path_806" data-name="Path 806" class="cls-7" d="M1418.04,474.11c-1.4,.5-2.85,.85-4.32,1.04-3.53,.31-7.08,.59-10.63,.73-1.08,.12-2.16-.13-3.08-.69-1.03-.79-1.75-1.92-2.03-3.19-.17-1.62,1.24-2.4,2.81-2.42,5.13-.05,10.26-.18,15.38-.03,2.97,.09,3.3,.99,1.88,4.56Z"/>
        <path id="Path_807" data-name="Path 807" class="cls-7" d="M561.13,232.64c-3.39,.02-6.37,.04-9.33,.04-.94,.04-1.87,.02-2.81-.08-1.67-.26-3.28-1.17-2.96-2.92,.19-1.01,1.74-1.96,2.88-2.56,.74-.39,1.84-.06,2.77-.14,2.32-.19,4.63-.57,6.95-.63,2-.11,4.01,.07,5.96,.52,1.11,.42,1.94,1.36,2.22,2.51-.26,1.18-1.01,2.19-2.06,2.78-1.16,.4-2.39,.56-3.62,.47Z"/>
        <path id="Path_811" data-name="Path 811" class="cls-7" d="M1368.49,475.14h-11.18c-1.88,0-3.5-.46-3.57-2.73-.07-2.26,1.42-2.95,3.36-2.96,4.82-.02,9.65,0,14.46,.02,1.88,0,3.5,.51,3.55,2.75s-1.43,2.89-3.38,2.89c-.93,0-1.86,.02-3.24,.02Z"/>
        <path id="Path_812" data-name="Path 812" class="cls-4" d="M84.36,474.64c-5.58,.31-10.85,.43-16.1,.46-.92,0-1.82-.24-2.62-.69-1.15-.49-1.68-1.82-1.19-2.97,.21-.5,.6-.91,1.09-1.14,.62-.45,1.35-.72,2.12-.78,4.96-.06,9.93-.19,14.88,.05,3.23,.17,3.89,1.98,1.81,5.09Z"/>
        <path id="Path_814" data-name="Path 814" class="cls-2" d="M341.57,622.17c-1.74,2.14-3.39,1.57-4.44-.02-2.83-4.25-5.52-8.6-7.96-13.08-.33-1.27,0-2.62,.88-3.59,1.06-.92,2.66-.8,3.57,.26,.16,.19,.3,.4,.4,.62,2.56,4.06,5.1,8.16,7.47,12.33,.33,1.13,.35,2.33,.07,3.47Z"/>
        <path id="Path_815" data-name="Path 815" class="cls-7" d="M1142.93,836.39c-4.31,.06-8.22,.09-12.13,.09-.94,0-2.08,.24-2.76-.19-.91-.59-2.01-1.74-2-2.64,.22-1.14,.98-2.1,2.03-2.58,1.37-.29,2.77-.39,4.17-.3,2.79-.19,5.58-.4,8.36-.63,.31-.06,.62-.1,.93-.12,1.94,.14,3.96,.55,4.56,2.6s-1.06,3.05-3.16,3.77Z"/>
        <path id="Path_817" data-name="Path 817" class="cls-4" d="M114.73,475.14h-4.88c-1.26-4.52-.77-5.5,2.86-5.62,4.51-.14,9.03-.05,13.55-.06,1.99,0,3.39,.72,3.31,2.96-.08,1.96-1.43,2.64-3.17,2.66-3.74,.05-7.48,.05-11.66,.06Z"/>
      </g>
    </g>
  </g>
</svg>